<svg width="18" height="18" viewBox="0 0 8 8" fill="none" xmlns="http://www.w3.org/2000/svg">
<g clip-path="url(#clip0_5_1181)">
<mask id="mask0_5_1181" style="mask-type:luminance" maskUnits="userSpaceOnUse" x="0" y="0" width="8" height="8">
<path d="M8 0H0V8H8V0Z" fill="white"/>
</mask>
<g mask="url(#mask0_5_1181)">
<path fill-rule="evenodd" clip-rule="evenodd" d="M0.333313 7.19999C0.333313 7.09391 0.368432 6.99216 0.430944 6.91715C0.493456 6.84214 0.578241 6.79999 0.666646 6.79999H7.33331C7.42171 6.79999 7.50651 6.84214 7.56905 6.91715C7.63151 6.99216 7.66665 7.09391 7.66665 7.19999C7.66665 7.30608 7.63151 7.40783 7.56905 7.48283C7.50651 7.55785 7.42171 7.59999 7.33331 7.59999H0.666646C0.578241 7.59999 0.493456 7.55785 0.430944 7.48283C0.368432 7.40783 0.333313 7.30608 0.333313 7.19999ZM0.333313 3.99999C0.333313 3.89391 0.368432 3.79216 0.430944 3.71715C0.493456 3.64214 0.578241 3.59999 0.666646 3.59999H7.33331C7.42171 3.59999 7.50651 3.64214 7.56905 3.71715C7.63151 3.79216 7.66665 3.89391 7.66665 3.99999C7.66665 4.10608 7.63151 4.20783 7.56905 4.28283C7.50651 4.35785 7.42171 4.39999 7.33331 4.39999H0.666646C0.578241 4.39999 0.493456 4.35785 0.430944 4.28283C0.368432 4.20783 0.333313 4.10608 0.333313 3.99999ZM0.333313 0.799994C0.333313 0.693907 0.368432 0.592166 0.430944 0.517151C0.493456 0.442137 0.578241 0.399994 0.666646 0.399994H7.33331C7.42171 0.399994 7.50651 0.442137 7.56905 0.517151C7.63151 0.592166 7.66665 0.693907 7.66665 0.799994C7.66665 0.906082 7.63151 1.00783 7.56905 1.08283C7.50651 1.15785 7.42171 1.19999 7.33331 1.19999H0.666646C0.578241 1.19999 0.493456 1.15785 0.430944 1.08283C0.368432 1.00783 0.333313 0.906082 0.333313 0.799994Z" fill="#EFF2FE"/>
</g>
</g>
<defs>
<clipPath id="clip0_5_1181">
<rect width="8" height="8" fill="white"/>
</clipPath>
</defs>
</svg>
