<svg width="18" height="18" viewBox="0 0 8 8" fill="none" xmlns="http://www.w3.org/2000/svg">
<g clip-path="url(#clip0_5_1191)">
<mask id="mask0_5_1191" style="mask-type:luminance" maskUnits="userSpaceOnUse" x="0" y="0" width="8" height="8">
<path d="M8 0H0V8H8V0Z" fill="white"/>
</mask>
<g mask="url(#mask0_5_1191)">
<path d="M0.645978 0.646008C0.692424 0.599445 0.747599 0.562502 0.808344 0.537296C0.86909 0.512089 0.934211 0.499115 0.999978 0.499115C1.06575 0.499115 1.13087 0.512089 1.19161 0.537296C1.25236 0.562502 1.30753 0.599445 1.35398 0.646008L3.99998 3.29301L6.64598 0.646008C6.69247 0.599521 6.74766 0.562644 6.80839 0.537485C6.86913 0.512326 6.93423 0.499377 6.99998 0.499377C7.06572 0.499377 7.13082 0.512326 7.19156 0.537485C7.2523 0.562644 7.30749 0.599521 7.35398 0.646008C7.40047 0.692496 7.43734 0.747686 7.4625 0.808425C7.48766 0.869164 7.50061 0.934265 7.50061 1.00001C7.50061 1.06575 7.48766 1.13085 7.4625 1.19159C7.43734 1.25233 7.40047 1.30752 7.35398 1.35401L4.70698 4.00001L7.35398 6.64601C7.40047 6.6925 7.43734 6.74769 7.4625 6.80842C7.48766 6.86916 7.50061 6.93426 7.50061 7.00001C7.50061 7.06575 7.48766 7.13085 7.4625 7.19159C7.43734 7.25233 7.40047 7.30752 7.35398 7.35401C7.30749 7.4005 7.2523 7.43737 7.19156 7.46253C7.13082 7.48769 7.06572 7.50064 6.99998 7.50064C6.93423 7.50064 6.86913 7.48769 6.80839 7.46253C6.74766 7.43737 6.69247 7.4005 6.64598 7.35401L3.99998 4.70701L1.35398 7.35401C1.30749 7.4005 1.2523 7.43737 1.19156 7.46253C1.13082 7.48769 1.06572 7.50064 0.999978 7.50064C0.934234 7.50064 0.869134 7.48769 0.808394 7.46253C0.747655 7.43737 0.692466 7.4005 0.645978 7.35401C0.59949 7.30752 0.562614 7.25233 0.537455 7.19159C0.512296 7.13085 0.499346 7.06575 0.499346 7.00001C0.499346 6.93426 0.512296 6.86916 0.537455 6.80842C0.562614 6.74769 0.59949 6.6925 0.645978 6.64601L3.29298 4.00001L0.645978 1.35401C0.599415 1.30756 0.562472 1.25239 0.537265 1.19164C0.512059 1.1309 0.499084 1.06578 0.499084 1.00001C0.499084 0.934241 0.512059 0.86912 0.537265 0.808375C0.562472 0.74763 0.599415 0.692454 0.645978 0.646008Z" fill="#EFF2FE"/>
</g>
</g>
<defs>
<clipPath id="clip0_5_1191">
<rect width="8" height="8" fill="white"/>
</clipPath>
</defs>
</svg>
