<svg width="64" height="23" viewBox="0 0 64 23" fill="none" xmlns="http://www.w3.org/2000/svg">
<g clip-path="url(#clip0_2_1176)">
<mask id="mask0_2_1176" style="mask-type:luminance" maskUnits="userSpaceOnUse" x="0" y="3" width="12" height="16">
<path d="M12 3H0V19H12V3Z" fill="white"/>
</mask>
<g mask="url(#mask0_2_1176)">
<mask id="mask1_2_1176" style="mask-type:luminance" maskUnits="userSpaceOnUse" x="-2" y="3" width="16" height="16">
<path d="M14 3H-2V19H14V3Z" fill="white"/>
</mask>
<g mask="url(#mask1_2_1176)">
<path d="M8 3.5C8 3.36739 7.94732 3.24022 7.85355 3.14645C7.75979 3.05268 7.63261 3 7.5 3H4.5C4.36739 3 4.24021 3.05268 4.14645 3.14645C4.05268 3.24022 4 3.36739 4 3.5C4 3.63261 3.94732 3.75978 3.85355 3.85355C3.75979 3.94732 3.63261 4 3.5 4C3.36739 4 3.24021 4.05268 3.14645 4.14645C3.05268 4.24021 3 4.36739 3 4.5V5C3 5.13261 3.05268 5.25979 3.14645 5.35355C3.24021 5.44732 3.36739 5.5 3.5 5.5H8.5C8.63261 5.5 8.75979 5.44732 8.85355 5.35355C8.94732 5.25979 9 5.13261 9 5V4.5C9 4.36739 8.94732 4.24021 8.85355 4.14645C8.75979 4.05268 8.63261 4 8.5 4C8.36739 4 8.24021 3.94732 8.14645 3.85355C8.05268 3.75978 8 3.63261 8 3.5Z" fill="#EFF2FE"/>
<path d="M2.085 4H1.5C1.10218 4 0.720644 4.15804 0.43934 4.43934C0.158035 4.72064 0 5.10218 0 5.5V17.5C0 17.8978 0.158035 18.2794 0.43934 18.5607C0.720644 18.842 1.10218 19 1.5 19H10.5C10.8978 19 11.2794 18.842 11.5607 18.5607C11.842 18.2794 12 17.8978 12 17.5V5.5C12 5.10218 11.842 4.72064 11.5607 4.43934C11.2794 4.15804 10.8978 4 10.5 4H9.915C9.971 4.15733 9.99933 4.324 10 4.5V5C10 5.39782 9.84196 5.77936 9.56066 6.06066C9.27936 6.34196 8.89782 6.5 8.5 6.5H3.5C3.10218 6.5 2.72064 6.34196 2.43934 6.06066C2.15804 5.77936 2 5.39782 2 5V4.5C2.00067 4.324 2.029 4.15733 2.085 4ZM7.98 8.356L9.372 13H9.5C9.63261 13 9.75979 13.0527 9.85355 13.1464C9.94732 13.2402 10 13.3674 10 13.5C10 13.6326 9.94732 13.7598 9.85355 13.8536C9.75979 13.9473 9.63261 14 9.5 14H9C8.8925 14 8.78784 13.9654 8.70156 13.9013C8.61528 13.8372 8.55196 13.7469 8.521 13.644L7.581 10.509L6.489 15.605C6.46583 15.7136 6.40717 15.8114 6.32228 15.8829C6.23738 15.9545 6.13108 15.9958 6.02014 16.0002C5.9092 16.0047 5.79992 15.9721 5.70954 15.9076C5.61917 15.8431 5.55283 15.7504 5.521 15.644L4.383 11.85L3.447 13.723C3.40557 13.8061 3.34181 13.8761 3.26286 13.925C3.1839 13.9739 3.09288 13.9999 3 14H2.5C2.36739 14 2.24021 13.9473 2.14645 13.8536C2.05268 13.7598 2 13.6326 2 13.5C2 13.3674 2.05268 13.2402 2.14645 13.1464C2.24021 13.0527 2.36739 13 2.5 13H2.691L4.053 10.276C4.09783 10.1864 4.16852 10.1124 4.25591 10.0635C4.34331 10.0146 4.44338 9.99303 4.54316 10.0016C4.64294 10.0103 4.73783 10.0487 4.81554 10.1118C4.89325 10.175 4.9502 10.2601 4.979 10.356L5.919 13.491L7.011 8.395C7.03417 8.28641 7.09283 8.18863 7.17772 8.11706C7.26262 8.0455 7.36892 8.00423 7.47986 7.99976C7.5908 7.99529 7.70008 8.02787 7.79046 8.09237C7.88083 8.15688 7.94817 8.24963 7.98 8.356Z" fill="#EFF2FE"/>
</g>
</g>
</g>
<path d="M21.167 18V6.786H17.36V4.626H27.809V6.786H24.002V18H21.167ZM29.5391 3.402H32.2571V7.218L32.1761 9.252L32.2571 9.306V16.497L29.5391 17.442V3.402ZM33.7421 18.171C33.2861 18.171 32.8241 18.144 32.3561 18.09C31.8941 18.036 31.4621 17.97 31.0601 17.892C30.6641 17.808 30.3311 17.727 30.0611 17.649C29.7911 17.565 29.6171 17.496 29.5391 17.442L32.2571 15.957C32.3771 16.071 32.5691 16.155 32.8331 16.209C33.0971 16.263 33.4211 16.29 33.8051 16.29C34.2371 16.29 34.6271 16.158 34.9751 15.894C35.3231 15.624 35.5961 15.234 35.7941 14.724C35.9981 14.208 36.1031 13.581 36.1091 12.843C36.1151 11.763 35.9351 11.004 35.5691 10.566C35.2091 10.128 34.7201 9.909 34.1021 9.909C33.7061 9.909 33.3431 9.981 33.0131 10.125C32.6891 10.263 32.4371 10.401 32.2571 10.539L31.9241 9.144C32.0621 9 32.2541 8.826 32.5001 8.622C32.7521 8.418 33.0791 8.238 33.4811 8.082C33.8891 7.926 34.3901 7.848 34.9841 7.848C35.6981 7.848 36.3521 8.022 36.9461 8.37C37.5461 8.712 38.0261 9.237 38.3861 9.945C38.7521 10.647 38.9351 11.538 38.9351 12.618C38.9351 13.734 38.7221 14.709 38.2961 15.543C37.8701 16.371 37.2671 17.016 36.4871 17.478C35.7071 17.94 34.7921 18.171 33.7421 18.171ZM41.1325 18V7.983H43.6255L43.6705 9.054C43.9045 8.874 44.1985 8.691 44.5525 8.505C44.9125 8.319 45.3025 8.163 45.7225 8.037C46.1425 7.905 46.5715 7.836 47.0095 7.83C47.6995 7.812 48.2665 7.923 48.7105 8.163C49.1545 8.403 49.4845 8.811 49.7005 9.387C49.9165 9.957 50.0245 10.725 50.0245 11.691V18H47.2885V12.096C47.2885 11.58 47.2465 11.172 47.1625 10.872C47.0785 10.566 46.9285 10.347 46.7125 10.215C46.5025 10.083 46.2025 10.023 45.8125 10.035C45.5485 10.035 45.2335 10.098 44.8675 10.224C44.5015 10.35 44.1685 10.536 43.8685 10.782V18H41.1325ZM49.9075 10.827L49.4035 9.126C49.5955 8.958 49.8685 8.775 50.2225 8.577C50.5825 8.373 50.9965 8.199 51.4645 8.055C51.9325 7.905 52.4275 7.83 52.9495 7.83C53.6395 7.824 54.2185 7.938 54.6865 8.172C55.1545 8.406 55.5085 8.808 55.7485 9.378C55.9885 9.948 56.1085 10.722 56.1085 11.7V18H53.3545V12.087C53.3545 11.571 53.3125 11.163 53.2285 10.863C53.1505 10.557 53.0035 10.341 52.7875 10.215C52.5775 10.083 52.2745 10.023 51.8785 10.035C51.5365 10.035 51.1825 10.119 50.8165 10.287C50.4565 10.449 50.1535 10.629 49.9075 10.827ZM60.1575 18.198C59.6955 18.198 59.3115 18.039 59.0055 17.721C58.6995 17.403 58.5435 17.01 58.5375 16.542C58.5375 16.212 58.6155 15.909 58.7715 15.633C58.9335 15.357 59.1465 15.135 59.4105 14.967C59.6805 14.799 59.9745 14.715 60.2925 14.715C60.7965 14.715 61.1895 14.877 61.4715 15.201C61.7535 15.519 61.8975 15.906 61.9035 16.362C61.9095 16.692 61.8315 16.998 61.6695 17.28C61.5135 17.556 61.3035 17.778 61.0395 17.946C60.7755 18.114 60.4815 18.198 60.1575 18.198Z" fill="#EFF2FE"/>
<defs>
<clipPath id="clip0_2_1176">
<rect width="12" height="16" fill="white" transform="translate(0 3)"/>
</clipPath>
</defs>
</svg>
