<svg width="129" height="119" viewBox="0 0 129 119" fill="none" xmlns="http://www.w3.org/2000/svg">
<g clip-path="url(#clip0_2_1062)">
<mask id="mask0_2_1062" style="mask-type:luminance" maskUnits="userSpaceOnUse" x="0" y="0" width="129" height="119">
<path d="M129 0H0V119H129V0Z" fill="white"/>
</mask>
<g mask="url(#mask0_2_1062)">
<path d="M147.202 103.356H-16.6196V103.438H147.202V103.356Z" fill="#EBEBEB"/>
<path d="M130.788 108.632H119.936V108.714H130.788V108.632Z" fill="#EBEBEB"/>
<path d="M91.9026 109.524H89.0551V109.606H91.9026V109.524Z" fill="#EBEBEB"/>
<path d="M119.608 105.589H103.99V105.671H119.608V105.589Z" fill="#EBEBEB"/>
<path d="M8.32724 106.14H0.568604V106.222H8.32724V106.14Z" fill="#EBEBEB"/>
<path d="M19.7128 106.14H11.2432V106.222H19.7128V106.14Z" fill="#EBEBEB"/>
<path d="M47.6347 107.524H26.4557V107.606H47.6347V107.524Z" fill="#EBEBEB"/>
<path d="M61.032 88.7317H-2.23277C-2.72838 88.7308 -3.2034 88.5325 -3.55354 88.1816C-3.90368 87.8307 -4.10034 87.355 -4.10034 86.859V-2.14595C-4.09603 -2.63912 -3.89746 -3.11067 -3.54779 -3.45818C-3.19811 -3.80568 -2.72556 -4.00108 -2.23277 -4.00193H61.032C61.5282 -4.00193 62.0041 -3.80466 62.3549 -3.45352C62.7058 -3.10238 62.9029 -2.62614 62.9029 -2.12955V86.859C62.9029 87.3555 62.7058 87.8318 62.3549 88.1825C62.0041 88.5342 61.5282 88.7317 61.032 88.7317ZM-2.23277 -3.93634C-2.70666 -3.93547 -3.16084 -3.74646 -3.49562 -3.41079C-3.83041 -3.07512 -4.01843 -2.62022 -4.01843 -2.14595V86.859C-4.01843 87.3332 -3.83041 87.7881 -3.49562 88.1238C-3.16084 88.4593 -2.70666 88.6488 -2.23277 88.6497H61.032C61.5062 88.6488 61.9607 88.4593 62.2961 88.124C62.6314 87.7884 62.8201 87.3336 62.821 86.859V-2.14595C62.8201 -2.62052 62.6314 -3.07542 62.2961 -3.41099C61.9607 -3.74657 61.5062 -3.93548 61.032 -3.93634H-2.23277Z" fill="#EBEBEB"/>
<path d="M131.904 88.7317H68.6366C68.1407 88.7308 67.6654 88.5334 67.3147 88.1816C66.9641 87.831 66.7667 87.3552 66.7658 86.859V-2.14595C66.771 -2.63942 66.9703 -3.11097 67.3205 -3.45838C67.6707 -3.8058 68.1436 -4.00109 68.6366 -4.00193H131.904C132.397 -4.00022 132.868 -3.80444 133.217 -3.45703C133.566 -3.10961 133.765 -2.63855 133.769 -2.14595V86.859C133.769 87.3544 133.573 87.8297 133.224 88.1808C132.874 88.5316 132.4 88.7299 131.904 88.7317ZM68.6366 -3.93634C68.1625 -3.93548 67.708 -3.74657 67.3727 -3.41099C67.0373 -3.07542 66.8486 -2.62052 66.8477 -2.14595V86.859C66.8486 87.3336 67.0373 87.7884 67.3727 88.124C67.708 88.4593 68.1625 88.6488 68.6366 88.6497H131.904C132.379 88.6488 132.834 88.4593 133.169 88.124C133.504 87.7884 133.693 87.3336 133.694 86.859V-2.14595C133.693 -2.62052 133.504 -3.07542 133.169 -3.41099C132.834 -3.74657 132.379 -3.93548 131.904 -3.93634H68.6366Z" fill="#EBEBEB"/>
<path d="M128.006 4.52376H76.2479V103.356H128.006V4.52376Z" fill="#EBEBEB"/>
<path d="M124.156 7.74713H80.0979V103.356H124.156V7.74713Z" fill="#F5F5F5"/>
<path d="M108.324 15.676H95.9356V19.1027H108.324V15.676Z" fill="white"/>
<path d="M113.904 49.7164H120.624C120.902 49.7164 121.169 49.8271 121.365 50.0238C121.562 50.2206 121.672 50.4875 121.672 50.7658C121.672 51.0441 121.562 51.311 121.365 51.5078C121.169 51.7045 120.902 51.8151 120.624 51.8151H113.904C113.626 51.8151 113.359 51.7045 113.162 51.5078C112.966 51.311 112.855 51.0441 112.855 50.7658C112.855 50.4875 112.966 50.2206 113.162 50.0238C113.359 49.8271 113.626 49.7164 113.904 49.7164Z" fill="white"/>
<path d="M40.8623 15.0398H6.44V42.8041H40.8623V15.0398Z" fill="#EBEBEB"/>
<path d="M39.0111 40.9547V16.8893H8.28467V40.9547H39.0111Z" fill="#FAFAFA"/>
<path d="M35.43 29.2384V28.0874H11.869V29.2384H35.43Z" fill="#E0E0E0"/>
<path d="M35.43 31.8584V30.7075H11.869V31.8584H35.43Z" fill="#E0E0E0"/>
<path d="M35.43 34.4752V33.3242H11.869V34.4752H35.43Z" fill="#E0E0E0"/>
<path d="M29.5225 37.0952V35.9442H17.7764V37.0952H29.5225Z" fill="#E0E0E0"/>
<path d="M11.8854 16.8893C11.8854 17.3619 11.792 17.8298 11.6106 18.2661C11.4292 18.7025 11.1634 19.0986 10.8284 19.4317C10.4935 19.7648 10.096 20.0284 9.65878 20.2072C9.22169 20.3859 8.75357 20.4764 8.28133 20.4734C7.62979 20.475 6.99041 20.2968 6.43341 19.9585V15.0398H11.348C11.6925 15.5957 11.8783 16.2353 11.8854 16.8893Z" fill="#EBEBEB"/>
<path d="M40.8623 15.0398V19.9585C40.1773 20.3709 39.3742 20.542 38.5808 20.4447C37.7873 20.3474 37.0493 19.9872 36.4841 19.4216C35.9189 18.8559 35.559 18.1173 35.4618 17.3232C35.3646 16.5292 35.5356 15.7254 35.9476 15.0398H40.8623Z" fill="#EBEBEB"/>
<path d="M11.8854 40.958C11.8866 41.6085 11.7098 42.2469 11.3743 42.8041H6.45966V37.8855C7.00325 37.5597 7.6234 37.384 8.25697 37.3761C8.8905 37.3684 9.51476 37.5288 10.0662 37.841C10.6176 38.1533 11.0765 38.6062 11.3961 39.1538C11.7157 39.7013 11.8845 40.3239 11.8854 40.958Z" fill="#EBEBEB"/>
<path d="M40.8623 37.8822V42.8009H35.9477C35.6096 42.2446 35.4316 41.6057 35.4332 40.9547C35.4339 40.3198 35.6028 39.6963 35.9227 39.148C36.2426 38.5996 36.7021 38.146 37.2544 37.8334C37.8065 37.5207 38.4317 37.3602 39.0661 37.3682C39.7004 37.3762 40.3214 37.5524 40.8656 37.8788L40.8623 37.8822Z" fill="#EBEBEB"/>
<path d="M26.6617 23.242C26.9316 21.5778 25.8024 20.0096 24.1395 19.7395C22.4766 19.4693 20.9097 20.5994 20.6398 22.2638C20.3699 23.928 21.4991 25.4961 23.162 25.7662C24.8249 26.0364 26.3917 24.9063 26.6617 23.242Z" fill="#E0E0E0"/>
<path d="M68.6793 63.9249H0.568604V66.3777H68.6793V63.9249Z" fill="#EBEBEB"/>
<path d="M68.0894 66.3777H45.9604V103.356H68.0894V66.3777Z" fill="#F5F5F5"/>
<path d="M23.5398 66.3777H1.41064V103.356H23.5398V66.3777Z" fill="#F5F5F5"/>
<path d="M2.1675 66.3777H1.41064V103.356H2.1675V66.3777Z" fill="#EBEBEB"/>
<path d="M46.7172 66.3777H45.9604V103.356H46.7172V66.3777Z" fill="#EBEBEB"/>
<path d="M13.0322 58.0126H8.96283L9.29047 63.9249H12.7045L13.0322 58.0126Z" fill="#F0F0F0"/>
<path d="M48.362 61.3606H27.1011V63.9249H48.362V61.3606Z" fill="#F0F0F0"/>
<path d="M48.3653 61.6623H38.5622V63.6265H48.3653V61.6623Z" fill="#FAFAFA"/>
<path d="M65.2914 118.164C100.376 118.164 128.818 116.503 128.818 114.452C128.818 112.403 100.376 110.741 65.2914 110.741C30.2065 110.741 1.76447 112.403 1.76447 114.452C1.76447 116.503 30.2065 118.164 65.2914 118.164Z" fill="#F5F5F5"/>
<path d="M95.012 91.4925C100.744 91.4925 105.391 86.8414 105.391 81.1041C105.391 75.3668 100.744 70.7159 95.012 70.7159C89.2791 70.7159 84.6319 75.3668 84.6319 81.1041C84.6319 86.8414 89.2791 91.4925 95.012 91.4925Z" fill="white"/>
<path d="M95.0121 91.6203C92.9338 91.6212 90.9015 91.005 89.1738 89.8494C87.4454 88.6947 86.0976 87.0522 85.3022 85.1307C84.5061 83.2092 84.2979 81.0947 84.7024 79.0545C85.1076 77.0144 86.1079 75.1403 87.5776 73.6693C89.0472 72.1983 90.9189 71.1964 92.9576 70.7903C94.9962 70.3843 97.1085 70.5923 99.0293 71.3882C100.949 72.184 102.591 73.532 103.745 75.2613C104.9 76.9908 105.516 79.0241 105.516 81.1041C105.513 83.8918 104.406 86.5646 102.437 88.536C100.468 90.5079 97.797 91.6168 95.0121 91.6203ZM95.0121 70.8471C92.9845 70.8471 91.002 71.4489 89.3163 72.5764C87.6298 73.704 86.316 75.3066 85.5405 77.1817C84.7641 79.0567 84.5615 81.1199 84.9572 83.1103C85.3529 85.1007 86.3295 86.9289 87.7643 88.3641C89.1984 89.7983 91.0249 90.7758 93.0138 91.1707C95.0026 91.5665 97.0642 91.3629 98.9375 90.5854C100.811 89.8089 102.412 88.4928 103.538 86.8054C104.664 85.1176 105.265 83.1336 105.264 81.1041C105.262 78.384 104.181 75.7761 102.258 73.853C100.336 71.9299 97.7298 70.8488 95.0121 70.8471Z" fill="#746BE9"/>
<path d="M96.6827 75.2149H93.3414V86.9934H96.6827V75.2149Z" fill="#746BE9"/>
<path d="M100.896 82.7797V79.4351H89.1271V82.7797H100.896Z" fill="#746BE9"/>
<path d="M24.6996 2.57925L24.4767 2.33987C25.9935 0.904945 27.918 -0.0231621 29.9845 -0.316208L30.0303 0.0117029C28.0305 0.293972 26.1677 1.19118 24.6996 2.57925Z" fill="#746BE9"/>
<path d="M22.275 6.16332L21.9703 6.04527C22.301 5.20992 22.7418 4.42253 23.2809 3.70399L23.543 3.90073C23.0232 4.59611 22.5968 5.35681 22.275 6.16332Z" fill="#746BE9"/>
<path d="M31.4162 18.7256C36.3816 18.7256 40.4068 14.6971 40.4068 9.72768C40.4068 4.75833 36.3816 0.729832 31.4162 0.729832C26.4509 0.729832 22.4257 4.75833 22.4257 9.72768C22.4257 14.6971 26.4509 18.7256 31.4162 18.7256Z" fill="#746BE9"/>
<path d="M36.7863 5.67473C36.4401 5.31497 36.0256 5.02792 35.5672 4.83034C35.1088 4.63278 34.6156 4.52866 34.1165 4.52408C33.6175 4.5195 33.1224 4.61455 32.6605 4.80368C32.1985 4.9928 31.7788 5.2722 31.426 5.62554C31.0735 5.2723 30.6542 4.99296 30.1925 4.80388C29.7308 4.61479 29.2361 4.51976 28.7373 4.52434C28.2385 4.52892 27.7455 4.63302 27.2874 4.83055C26.8293 5.02808 26.4151 5.31507 26.0691 5.67473C25.3911 6.40875 25.0258 7.37847 25.0508 8.37778C25.0759 9.37711 25.4894 10.3273 26.2034 11.0263L30.4628 15.2891C30.5906 15.417 30.7423 15.5185 30.9092 15.5877C31.0762 15.6569 31.2552 15.6925 31.4359 15.6925C31.6166 15.6925 31.7955 15.6569 31.9625 15.5877C32.1295 15.5185 32.2812 15.417 32.409 15.2891L36.6683 11.0263C37.3801 10.3251 37.7906 9.37376 37.8126 8.37444C37.8346 7.37515 37.4665 6.40665 36.7863 5.67473Z" fill="white"/>
<path d="M31.4163 13.6593C31.3502 13.6571 31.2865 13.6349 31.2333 13.5957C31.18 13.5565 31.1399 13.5021 31.1181 13.4397L29.2211 7.88813L28.4282 10.2098C28.4056 10.2743 28.3635 10.3301 28.3077 10.3695C28.2519 10.4089 28.1852 10.4299 28.1169 10.4294H24.942C24.8551 10.4294 24.7718 10.3949 24.7104 10.3334C24.6489 10.2719 24.6144 10.1885 24.6144 10.1015C24.6144 10.0146 24.6489 9.93112 24.7104 9.86968C24.7718 9.80816 24.8551 9.7736 24.942 9.7736H27.8908L28.9197 6.76667C28.9419 6.70224 28.9838 6.64636 29.0392 6.60682C29.0947 6.56727 29.1611 6.54601 29.2293 6.54601C29.2974 6.54601 29.3638 6.56727 29.4194 6.60682C29.4748 6.64636 29.5166 6.70224 29.5389 6.76667L31.4687 12.4165L33.3429 7.99962C33.3665 7.94332 33.4055 7.89476 33.4552 7.85942C33.505 7.82408 33.5637 7.80336 33.6246 7.79959C33.686 7.79607 33.7471 7.80988 33.8009 7.83945C33.8548 7.86902 33.8993 7.91316 33.9293 7.96683L34.9188 9.77034H37.9037C37.9906 9.77034 38.0739 9.80489 38.1353 9.86642C38.1968 9.92786 38.2313 10.0112 38.2313 10.0983C38.2313 10.1853 38.1968 10.2686 38.1353 10.3301C38.0739 10.3916 37.9906 10.4262 37.9037 10.4262H34.7288C34.6701 10.4266 34.6125 10.4114 34.5618 10.382C34.5111 10.3526 34.4692 10.3101 34.4405 10.2589L33.6639 8.86858L31.7177 13.4593C31.6927 13.5186 31.6507 13.5692 31.5971 13.6048C31.5435 13.6403 31.4806 13.6593 31.4163 13.6593Z" fill="#746BE9"/>
<path d="M81.3001 102.962H47.1038C46.5467 102.969 45.9943 102.859 45.4818 102.64C44.9693 102.421 44.508 102.098 44.1271 101.69C43.7463 101.283 43.4542 100.802 43.2695 100.276C43.0847 99.7493 43.0115 99.1905 43.0542 98.6343L48.5816 16.6565C48.6781 15.4857 49.2061 14.3927 50.0629 13.5897C50.9196 12.7868 52.0441 12.3312 53.2177 12.3117H87.4209C87.9788 12.3052 88.5328 12.4156 89.0464 12.6356C89.56 12.8556 90.0222 13.1804 90.4037 13.5894C90.7851 13.9982 91.0764 14.4822 91.26 15.0103C91.4436 15.5385 91.5156 16.0991 91.4705 16.6565L85.933 98.6343C85.8333 99.8022 85.3046 100.891 84.4483 101.69C83.5928 102.49 82.4706 102.944 81.3001 102.962Z" fill="#263238"/>
<path d="M88.8818 45.6963H88.02C87.8641 45.6982 87.7097 45.6674 87.5657 45.606C87.4224 45.5446 87.2934 45.4539 87.1866 45.3397C87.0806 45.2255 86.999 45.0902 86.9476 44.9428C86.8969 44.7952 86.8772 44.6387 86.8898 44.483L87.9479 28.8121C87.9725 28.4844 88.1197 28.1779 88.3587 27.9532C88.5985 27.7285 88.9135 27.602 89.2419 27.5988H90.1037C90.2597 27.597 90.4148 27.6277 90.558 27.6891C90.7013 27.7505 90.8311 27.8412 90.9371 27.9555C91.0432 28.0696 91.1247 28.2049 91.1761 28.3524C91.2276 28.4999 91.2473 28.6565 91.2347 28.8121L90.1758 44.483C90.1512 44.8107 90.0048 45.1173 89.765 45.342C89.5252 45.5667 89.2102 45.6931 88.8818 45.6963Z" fill="#263238"/>
<path d="M48.0835 35.2425H47.2251C47.0981 35.2442 46.9721 35.2194 46.8551 35.1699C46.7381 35.1203 46.6328 35.0469 46.5456 34.9544C46.4585 34.862 46.3914 34.7524 46.3488 34.6326C46.3061 34.5129 46.2888 34.3855 46.2979 34.2588L46.6812 28.599C46.7055 28.3333 46.8269 28.0859 47.0222 27.9044C47.2175 27.7228 47.473 27.6198 47.7395 27.6152H48.6012C48.7278 27.6145 48.8532 27.6399 48.9696 27.6899C49.086 27.7399 49.1907 27.8133 49.2775 27.9056C49.3641 27.9979 49.4309 28.1071 49.4736 28.2264C49.5162 28.3457 49.5337 28.4726 49.5252 28.599L49.1418 34.2588C49.1183 34.5247 48.9972 34.7725 48.8017 34.9543C48.6062 35.1359 48.3503 35.2386 48.0835 35.2425Z" fill="#746BE9"/>
<path d="M47.4021 45.3487H46.5404C46.4137 45.3499 46.288 45.3249 46.1714 45.2751C46.0548 45.2253 45.9498 45.1519 45.863 45.0594C45.7762 44.967 45.7095 44.8576 45.6671 44.7381C45.6246 44.6186 45.6074 44.4915 45.6164 44.365L45.9998 38.7052C46.024 38.4396 46.1454 38.1921 46.3407 38.0105C46.536 37.829 46.7915 37.7261 47.058 37.7215H47.9263C48.0529 37.7207 48.1783 37.7462 48.2947 37.7961C48.411 37.8461 48.5158 37.9195 48.6026 38.0118C48.6892 38.1042 48.756 38.2134 48.7986 38.3326C48.8412 38.452 48.8588 38.5788 48.8503 38.7052L48.4669 44.365C48.4433 44.6321 48.3212 44.8807 48.1243 45.0627C47.9275 45.2445 47.67 45.3465 47.4021 45.3487Z" fill="#746BE9"/>
<path d="M80.5759 102.962H46.3798C45.8226 102.968 45.2702 102.859 44.7577 102.64C44.2453 102.421 43.784 102.098 43.4031 101.69C43.0221 101.283 42.7301 100.802 42.5454 100.276C42.3607 99.7493 42.2874 99.1905 42.3301 98.6343L47.8608 16.6565C47.9607 15.4852 48.4924 14.3932 49.3522 13.5925C50.2122 12.792 51.3389 12.34 52.5133 12.3248H86.6967C87.2539 12.3185 87.8063 12.4285 88.3191 12.6478C88.8319 12.8669 89.2933 13.1906 89.6748 13.598C90.0555 14.0055 90.3475 14.4879 90.5319 15.0144C90.7163 15.541 90.7891 16.1002 90.7464 16.6565L85.212 98.6343C85.1123 99.8022 84.5829 100.892 83.7265 101.691C82.8702 102.492 81.7472 102.944 80.5759 102.962Z" fill="#746BE9"/>
<path opacity="0.3" d="M42.6906 97.7157L48.0901 17.7189H90.376L84.9762 97.7157H42.6906Z" fill="white"/>
<path opacity="0.1" d="M59.384 97.7157L74.4753 17.7189H83.9474L68.8562 97.7157H59.384Z" fill="white"/>
<path opacity="0.1" d="M52.2282 97.7157L67.3195 17.7189H72.1195L57.0282 97.7157H52.2282Z" fill="white"/>
<path d="M65.3373 14.3348H73.584C73.6529 14.3337 73.7212 14.347 73.7846 14.374C73.848 14.4008 73.9049 14.4408 73.9519 14.4912C73.9989 14.5416 74.0347 14.6013 74.0571 14.6664C74.0795 14.7316 74.0881 14.8007 74.0821 14.8694C74.0707 15.0138 74.0061 15.1489 73.9007 15.2483C73.7953 15.3477 73.6568 15.4043 73.512 15.4071H65.2652C65.1962 15.4079 65.1278 15.3941 65.0644 15.3668C65.0011 15.3395 64.9441 15.2993 64.8972 15.2486C64.8503 15.198 64.8145 15.138 64.7921 15.0727C64.7697 15.0074 64.7612 14.9381 64.7672 14.8694C64.7786 14.7252 64.8434 14.5905 64.9488 14.4916C65.0543 14.3927 65.1928 14.3369 65.3373 14.3348Z" fill="white"/>
<path d="M63.6205 110.849L60.7306 111.124L59.6887 104.451L62.5786 104.173L63.6205 110.849Z" fill="#FFB573"/>
<path d="M60.3997 109.711L63.4271 108.77C63.4793 108.752 63.5365 108.755 63.5866 108.778C63.6367 108.801 63.6759 108.843 63.6958 108.895L64.6787 111.298C64.7032 111.363 64.714 111.432 64.7105 111.5C64.707 111.569 64.6893 111.636 64.6585 111.698C64.6277 111.76 64.5845 111.814 64.5317 111.858C64.4787 111.902 64.4172 111.935 64.3511 111.954C63.2568 112.282 62.2148 112.357 60.8944 112.938C59.3512 113.594 58.7058 114.473 57.0446 114.473C55.8553 114.473 55.5866 113.381 56.0912 113.23C58.3847 112.534 58.0832 111.964 59.7477 110.17C59.9207 109.962 60.1457 109.803 60.3997 109.711Z" fill="#263238"/>
<path opacity="0.2" d="M59.6887 104.451L60.2261 107.894L63.1192 107.616L62.5818 104.173L59.6887 104.451Z" fill="black"/>
<path d="M61.779 20.1323C57.9882 19.6864 54.217 19.9848 50.4327 20.7193C49.8021 20.8418 49.2269 21.1621 48.7903 21.6338C48.3538 22.1054 48.0787 22.704 48.0049 23.3426C47.5954 26.9693 47.1268 35.0982 48.9551 47.2243L64.4461 45.9127C64.4755 43.7124 62.9126 33.6882 64.2036 23.2868C64.2565 22.9197 64.2352 22.5457 64.1412 22.1868C64.0473 21.828 63.8824 21.4916 63.6564 21.1975C63.4305 20.9035 63.1479 20.6578 62.8254 20.4748C62.503 20.2919 62.1472 20.1754 61.779 20.1323Z" fill="white"/>
<path d="M52.759 23.241L53.3128 24.3493C53.3386 24.4052 53.3797 24.4526 53.4313 24.4863C53.4828 24.52 53.5428 24.5383 53.6043 24.5395L54.2039 24.5723C54.3109 24.5769 54.4162 24.5445 54.5021 24.4804L55.5342 23.7098L54.2596 22.7819L52.759 23.241Z" fill="#263238"/>
<path d="M54.2236 24.2541C54.005 24.1529 53.7575 24.133 53.5257 24.1984C53.0375 25.92 52.5035 30.8615 52.4478 33.052C53.9287 37.3706 54.4136 37.8067 54.4136 37.8067L55.1639 32.6094C55.1639 32.6094 54.3219 27.2939 54.2236 24.2541Z" fill="#263238"/>
<path d="M58.4994 12.656C58.1455 14.7939 57.8441 18.6994 59.3775 20.0799C58.2537 21.2604 56.7825 22.6277 54.2596 22.7819C51.7368 22.936 52.1267 21.1882 52.7656 20.2536C55.1213 19.6241 55.0067 17.8665 54.5447 16.2237L58.4994 12.656Z" fill="#FFB573"/>
<path d="M60.0196 19.8929C59.8411 19.8159 59.6556 19.7555 59.4659 19.7126C59.4195 19.7003 59.3703 19.7036 59.3259 19.722C59.2815 19.7403 59.2444 19.7728 59.2202 19.8143C58.9777 20.2274 58.2373 22.0735 54.2596 22.7819C54.9149 23.1688 55.7832 24.3689 56.1567 24.9461C57.3493 24.3263 60.4521 22.4736 60.1572 20.0766C60.1512 20.037 60.1356 19.9995 60.1115 19.9675C60.0875 19.9354 60.0559 19.9098 60.0196 19.8929Z" fill="#F5F5F5"/>
<path d="M52.7886 20.352C52.7969 20.3147 52.7958 20.2759 52.7854 20.2391C52.775 20.2023 52.7556 20.1687 52.7289 20.1413C52.7022 20.114 52.6691 20.0937 52.6326 20.0824C52.5961 20.0711 52.5573 20.0691 52.5199 20.0766C52.3821 20.1033 52.2464 20.1395 52.1136 20.1848C52.0829 20.1968 52.0541 20.2134 52.0284 20.234C51.7237 20.516 50.0626 22.9163 51.6189 24.8575C51.9465 24.3296 53.0769 23.1327 54.2596 22.7819C53.1391 22.2769 52.5887 21.3357 52.7886 20.352Z" fill="#F5F5F5"/>
<path opacity="0.2" d="M56.8873 14.1119L54.5479 16.2237C54.6607 16.6051 54.7397 16.9957 54.7838 17.391C55.6881 17.2368 56.9037 16.2105 56.9692 15.2596C57.0136 14.8753 56.9858 14.486 56.8873 14.1119Z" fill="black"/>
<path d="M53.7616 6.19283C51.7433 6.9831 51.6123 8.64233 51.7957 10.4557C51.9793 12.269 53.9516 11.0689 54.3907 9.9343C54.8298 8.79973 56.5564 5.09761 53.7616 6.19283Z" fill="#263238"/>
<path d="M60.1998 9.80966C59.6395 12.6658 59.4528 14.3611 57.8211 15.676C55.3605 17.6435 52.0284 15.9449 51.7335 13.0003C51.4681 10.3474 52.428 6.11413 55.367 5.2878C56.008 5.09894 56.6871 5.08071 57.3372 5.23493C57.9873 5.38915 58.586 5.71047 59.0741 6.16714C59.5621 6.6238 59.9227 7.20001 60.1201 7.83884C60.3175 8.47767 60.345 9.15701 60.1998 9.80966Z" fill="#FFB573"/>
<path d="M60.0819 12.174C57.6803 12.3018 58.1881 10.9377 58.6239 10.154C59.0596 9.37032 58.1718 8.07504 58.7517 7.40282C57.7163 7.81599 56.6253 7.47496 55.2393 6.5109C54.1647 5.75999 52.818 8.76037 51.5074 7.25526C50.269 5.83541 51.419 3.69415 54.394 3.34984C57.369 3.00553 57.9096 5.11072 59.8624 4.92381C61.8152 4.73691 61.1369 6.34695 60.7536 6.67486C62.3918 6.78307 63.2862 8.35049 60.0819 12.174Z" fill="#263238"/>
<path d="M60.3768 6.87489C60.7525 6.66862 61.0663 6.36562 61.2858 5.99722C61.5053 5.62883 61.6225 5.20843 61.6251 4.77953C62.2738 5.91739 62.205 7.20935 60.3768 6.87489Z" fill="#263238"/>
<path d="M54.1515 12.8592C54.4126 12.9044 54.6801 12.8964 54.938 12.8356C55.1959 12.7747 55.4388 12.6623 55.6521 12.5051C55.6586 12.499 55.6637 12.4917 55.6672 12.4835C55.6707 12.4753 55.6725 12.4664 55.6725 12.4575C55.6725 12.4486 55.6707 12.4399 55.6672 12.4317C55.6637 12.4235 55.6586 12.4162 55.6521 12.41C55.6393 12.3978 55.6223 12.391 55.6046 12.391C55.5869 12.391 55.5699 12.3978 55.5571 12.41C55.3181 12.5795 55.0431 12.6912 54.7537 12.7362C54.4643 12.7811 54.1685 12.7581 53.8894 12.6691C53.8716 12.6646 53.8528 12.6669 53.8365 12.6753C53.8202 12.6837 53.8076 12.6978 53.8009 12.715C53.7959 12.7324 53.7978 12.7511 53.8064 12.767C53.8149 12.783 53.8295 12.795 53.8468 12.8003C53.9464 12.829 54.0484 12.8487 54.1515 12.8592Z" fill="#263238"/>
<path d="M60.7797 13.0495C60.3311 13.6281 59.6734 14.0073 58.9482 14.1053C57.9948 14.2299 57.6769 13.3413 58.0767 12.5117C58.4403 11.7641 59.3872 10.8 60.2653 11.0591C61.1434 11.318 61.3302 12.328 60.7797 13.0495Z" fill="#FFB573"/>
<path d="M59.8328 75.1459C59.9475 66.5842 61.0418 46.1914 61.0418 46.1914L48.9649 47.2113C48.9649 47.2113 51.3665 68.227 52.8147 76.9626C54.3219 86.0425 58.9449 107.314 58.9449 107.314L63.8596 106.895C63.8596 106.895 62.0641 81.7665 59.8328 75.1459Z" fill="#263238"/>
<path d="M58.6501 107.448L64.4789 106.954L64.2495 105.071L58.175 105.478L58.6501 107.448Z" fill="#746BE9"/>
<path d="M55.8946 9.98022C55.8651 10.213 55.7144 10.3901 55.5669 10.3737C55.4195 10.3573 55.3179 10.154 55.3506 9.9179C55.3834 9.68184 55.5309 9.50801 55.6783 9.52441C55.8257 9.5408 55.9273 9.74742 55.8946 9.98022Z" fill="#263238"/>
<path d="M53.221 9.77034C53.1915 10.0064 53.0408 10.1802 52.8933 10.1638C52.7459 10.1474 52.6444 9.94417 52.6771 9.71128C52.7099 9.47848 52.8573 9.30139 53.0048 9.31779C53.1522 9.33418 53.2537 9.52441 53.221 9.77034Z" fill="#263238"/>
<path d="M53.9745 10.0458C53.5799 10.6526 53.1061 11.204 52.5657 11.6854C52.913 12.0493 53.6305 11.9509 53.6305 11.9509L53.9745 10.0458Z" fill="#ED893E"/>
<path opacity="0.4" d="M51.5304 9.8294C51.4812 10.2031 51.858 10.5147 52.3789 10.5802C52.8999 10.6458 53.3816 10.3606 53.4274 9.98674" fill="#746BE9"/>
<path opacity="0.4" d="M54.6266 10.177C54.5545 10.5475 54.9182 10.882 55.4293 10.9804C55.9404 11.0787 56.4417 10.8164 56.5106 10.4491" fill="#746BE9"/>
<path d="M55.6325 11.082C55.5735 11.0852 55.5145 11.0852 55.4555 11.082C55.2037 11.0518 54.9671 10.9454 54.7773 10.777C54.6945 10.7062 54.6299 10.6166 54.5889 10.5155C54.5478 10.4145 54.5316 10.3052 54.5415 10.1966C54.3751 10.1242 54.198 10.0798 54.0172 10.0655C53.8354 10.0201 53.6453 10.0201 53.4635 10.0655C53.4176 10.4655 52.9195 10.7409 52.3625 10.6721C52.1106 10.6445 51.8736 10.5391 51.6844 10.3705C51.602 10.2992 51.5377 10.2095 51.4967 10.1087C51.4556 10.0077 51.4391 9.89851 51.4485 9.79L51.6057 9.80965C51.5991 9.89357 51.6126 9.97775 51.6451 10.0553C51.6776 10.1329 51.7281 10.2016 51.7925 10.2557C51.9575 10.401 52.1636 10.4916 52.3823 10.5147C52.8541 10.577 53.2735 10.3573 53.316 10.0294C53.339 9.84579 53.719 9.85884 54.0336 9.89824C54.3481 9.93756 54.7217 10.0261 54.6889 10.2065C54.6819 10.2903 54.6953 10.3747 54.7278 10.4523C54.7604 10.5299 54.811 10.5985 54.8756 10.6524C55.0427 10.7959 55.248 10.8872 55.4664 10.9152C55.6847 10.9432 55.9065 10.9066 56.1043 10.8098C56.1806 10.7743 56.2473 10.7208 56.2986 10.654C56.3499 10.5873 56.3844 10.5091 56.3991 10.4262V10.3474L60.4423 10.8688L60.4227 11.0263L56.5302 10.5245C56.5019 10.6158 56.4554 10.7004 56.3934 10.7731C56.3315 10.8458 56.2554 10.9052 56.1698 10.9476C56.0042 11.0353 55.8198 11.0814 55.6325 11.082Z" fill="#263238"/>
<path d="M56.9234 8.95056C56.9467 8.95065 56.9695 8.94377 56.9889 8.9309C57.0208 8.91231 57.0441 8.88207 57.0539 8.84646C57.0637 8.81094 57.0592 8.77296 57.0414 8.7407C56.9398 8.54998 56.7928 8.38733 56.6133 8.26719C56.4338 8.14706 56.2274 8.07317 56.0125 8.05209C55.9757 8.05029 55.9397 8.06301 55.912 8.08754C55.8845 8.11206 55.8676 8.14642 55.8651 8.18325C55.8633 8.21925 55.8757 8.25453 55.8996 8.2815C55.9234 8.30847 55.957 8.325 55.9929 8.32753C56.1629 8.34751 56.3255 8.40872 56.4666 8.50587C56.6076 8.60302 56.7228 8.73316 56.8021 8.88498C56.8146 8.90587 56.8324 8.92297 56.8537 8.93452C56.8751 8.94607 56.8992 8.95162 56.9234 8.95056Z" fill="#263238"/>
<path d="M52.356 8.58002C52.3787 8.58224 52.4016 8.57893 52.4227 8.57036C52.4438 8.56179 52.4626 8.54824 52.4773 8.53083C52.5832 8.39198 52.7202 8.2799 52.8773 8.2036C53.0343 8.12729 53.207 8.08888 53.3816 8.09143C53.3997 8.09324 53.4179 8.09144 53.4353 8.08614C53.4527 8.08085 53.4688 8.07216 53.4829 8.06057C53.4969 8.04898 53.5085 8.03474 53.517 8.01865C53.5254 8.00255 53.5307 7.98494 53.5322 7.96683C53.5345 7.94915 53.5333 7.9312 53.5286 7.91401C53.5239 7.89682 53.5158 7.88074 53.5049 7.8667C53.4939 7.85267 53.4802 7.84095 53.4647 7.83225C53.4491 7.82354 53.432 7.81802 53.4143 7.81599C53.1942 7.81022 52.9759 7.85617 52.7767 7.95012C52.5776 8.04409 52.4032 8.18345 52.2676 8.35704C52.2442 8.38492 52.2328 8.4209 52.2359 8.45715C52.239 8.49341 52.2562 8.52696 52.2839 8.55051C52.3053 8.56589 52.33 8.576 52.356 8.58002Z" fill="#263238"/>
<path d="M69.8948 73.7655C67.3884 60.872 66.8248 50.7888 64.4461 45.893L52.7459 47.2047C52.7459 47.2047 59.7149 66.417 63.1192 74.618C66.6544 83.1437 73.6332 97.7096 73.6332 97.7096H79.4783C79.4783 97.7096 74.0232 79.6383 69.8948 73.7655Z" fill="#263238"/>
<path d="M32.8087 24.9559L31.544 24.1558C31.3387 24.0235 31.094 23.9664 30.8513 23.9945C30.6088 24.0227 30.3834 24.1341 30.2138 24.3099L29.3554 25.215C29.2629 25.3126 29.1915 25.4283 29.1454 25.5547C29.0994 25.6811 29.0797 25.8156 29.0877 25.9499C29.0957 26.0842 29.1312 26.2154 29.1919 26.3355C29.2525 26.4555 29.3372 26.5619 29.4405 26.6479L30.0533 27.1725C30.5862 27.6246 31.2078 27.9597 31.8783 28.1563L33.7294 28.7039L34.945 27.3923C35.3152 26.0249 32.8087 24.9559 32.8087 24.9559Z" fill="#FFB573"/>
<path d="M51.5303 24.3427C51.0716 25.4641 50.6227 26.5069 50.1345 27.5727C49.6464 28.6384 49.1516 29.6909 48.6044 30.737C48.0573 31.7831 47.474 32.8225 46.8123 33.8653C46.4846 34.3833 46.1209 34.9015 45.7081 35.4229C45.2643 35.9977 44.7589 36.5222 44.2009 36.987C43.8325 37.2883 43.426 37.5397 42.9919 37.7346C42.8543 37.7871 42.7265 37.8395 42.5758 37.8855L42.3464 37.9478C42.231 37.9761 42.114 37.9969 41.9959 38.01C41.5965 38.0551 41.1922 38.0261 40.8032 37.9248C40.3169 37.7886 39.8549 37.5773 39.4337 37.2985C39.1182 37.1015 38.8171 36.8823 38.5327 36.6427C37.5871 35.8164 36.7155 34.909 35.9279 33.9309C35.1645 33.0127 34.4437 32.0912 33.7523 31.1501C33.061 30.2091 32.3959 29.2843 31.7144 28.2973L35.3381 25.956C36.4817 27.8035 37.747 29.5727 39.1257 31.2518C39.7594 32.0295 40.4576 32.7524 41.2128 33.4127C41.359 33.5325 41.5134 33.6421 41.6747 33.7406C41.796 33.8226 41.9172 33.8554 41.8321 33.8259C41.7168 33.7942 41.5962 33.7875 41.4782 33.8062C41.4305 33.8106 41.3833 33.8194 41.3373 33.8325H41.3111C41.2947 33.8325 41.2947 33.8325 41.2915 33.8325C41.3659 33.7837 41.4371 33.7301 41.5044 33.6718C41.8035 33.4001 42.0746 33.0991 42.3136 32.7733C42.5921 32.3995 42.8706 31.9798 43.1361 31.5436C43.6785 30.6369 44.1728 29.7021 44.617 28.7433C45.0757 27.7595 45.5181 26.7758 45.9276 25.7527C46.3372 24.7296 46.727 23.6902 47.058 22.6966L51.5303 24.3427Z" fill="#746BE9"/>
<g opacity="0.6">
<path d="M51.5303 24.3427C51.0716 25.4641 50.6227 26.5069 50.1345 27.5727C49.6464 28.6384 49.1516 29.6909 48.6044 30.737C48.0573 31.7831 47.474 32.8225 46.8123 33.8653C46.4846 34.3833 46.1209 34.9015 45.7081 35.4229C45.2643 35.9977 44.7589 36.5222 44.2009 36.987C43.8325 37.2883 43.426 37.5397 42.9919 37.7346C42.8543 37.7871 42.7265 37.8395 42.5758 37.8855L42.3464 37.9478C42.231 37.9761 42.114 37.9969 41.9959 38.01C41.5965 38.0551 41.1922 38.0261 40.8032 37.9248C40.3169 37.7886 39.8549 37.5773 39.4337 37.2985C39.1182 37.1015 38.8171 36.8823 38.5327 36.6427C37.5871 35.8164 36.7155 34.909 35.9279 33.9309C35.1645 33.0127 34.4437 32.0912 33.7523 31.1501C33.061 30.2091 32.3959 29.2843 31.7144 28.2973L35.3381 25.956C36.4817 27.8035 37.747 29.5727 39.1257 31.2518C39.7594 32.0295 40.4576 32.7524 41.2128 33.4127C41.359 33.5325 41.5134 33.6421 41.6747 33.7406C41.796 33.8226 41.9172 33.8554 41.8321 33.8259C41.7168 33.7942 41.5962 33.7875 41.4782 33.8062C41.4305 33.8106 41.3833 33.8194 41.3373 33.8325H41.3111C41.2947 33.8325 41.2947 33.8325 41.2915 33.8325C41.3659 33.7837 41.4371 33.7301 41.5044 33.6718C41.8035 33.4001 42.0746 33.0991 42.3136 32.7733C42.5921 32.3995 42.8706 31.9798 43.1361 31.5436C43.6785 30.6369 44.1728 29.7021 44.617 28.7433C45.0757 27.7595 45.5181 26.7758 45.9276 25.7527C46.3372 24.7296 46.727 23.6902 47.058 22.6966L51.5303 24.3427Z" fill="white"/>
</g>
<path d="M60.1081 19.3093C58.8794 21.6047 54.5054 30.35 53.9746 35.7474C52.0382 30.8288 52.4609 19.9487 52.4609 19.9487C51.0809 20.0833 49.7271 20.4146 48.4407 20.9325C48.0261 21.1029 47.6668 21.3849 47.4025 21.7472C47.1382 22.1096 46.9793 22.538 46.9434 22.9852C46.5663 28.6148 46.744 34.2679 47.4742 39.8627C48.8339 50.4542 50.0953 66.9252 50.0953 66.9252C50.0953 66.9252 60.9239 66.4727 69.2789 64.7086C68.2599 56.6124 64.7738 43.0434 64.741 39.4102C64.7017 34.7342 64.8098 25.5921 64.9572 21.7752C64.982 21.2363 64.8133 20.7064 64.4815 20.2811C64.1498 19.8559 63.677 19.5635 63.1487 19.4569C62.1464 19.271 61.1236 19.2213 60.1081 19.3093Z" fill="#746BE9"/>
<path opacity="0.7" d="M60.1081 19.3093C58.8794 21.6047 54.5054 30.35 53.9746 35.7474C52.0382 30.8288 52.4609 19.9487 52.4609 19.9487C51.0809 20.0833 49.7271 20.4146 48.4407 20.9325C48.0261 21.1029 47.6668 21.3849 47.4025 21.7472C47.1382 22.1096 46.9793 22.538 46.9434 22.9852C46.5663 28.6148 46.744 34.2679 47.4742 39.8627C48.8339 50.4542 50.0953 66.9252 50.0953 66.9252C50.0953 66.9252 60.9239 66.4727 69.2789 64.7086C68.2599 56.6124 64.7738 43.0434 64.741 39.4102C64.7017 34.7342 64.8098 25.5888 64.9572 21.7719C64.9882 21.2494 64.834 20.7327 64.5217 20.3129C64.2095 19.8929 63.7592 19.5968 63.2502 19.4765C62.2158 19.2736 61.1581 19.2174 60.1081 19.3093Z" fill="white"/>
<path d="M57.5557 65.1677C55.6751 54.7827 54.1843 39.5447 54.063 37.7116H54.2301C54.3514 39.5447 55.8455 54.763 57.7228 65.148L57.5557 65.1677Z" fill="white"/>
<path d="M56.6187 46.6931H46.6321C46.4305 46.6841 46.2372 46.6097 46.0812 46.4815C45.9253 46.3532 45.8151 46.1778 45.7671 45.9816L42.4284 30.4484C42.404 30.3636 42.4 30.2742 42.4168 30.1876C42.4336 30.1009 42.4708 30.0196 42.5252 29.9501C42.5795 29.8806 42.6496 29.8251 42.7296 29.788C42.8097 29.7509 42.8973 29.7334 42.9854 29.7369H52.9688C53.171 29.7452 53.365 29.8192 53.5216 29.9475C53.6782 30.0759 53.7889 30.2517 53.837 30.4484L57.1757 45.9816C57.2001 46.0664 57.2041 46.1558 57.1873 46.2423C57.1705 46.329 57.1334 46.4104 57.079 46.4799C57.0246 46.5494 56.9546 46.6049 56.8745 46.642C56.7945 46.679 56.7068 46.6966 56.6187 46.6931Z" fill="white"/>
<path d="M56.3074 46.8243H46.1504C45.9451 46.8147 45.7484 46.739 45.5895 46.6084C45.4307 46.4778 45.3183 46.2994 45.2691 46.0996L41.8714 30.3041C41.847 30.2175 41.8436 30.1265 41.861 30.0383C41.8786 29.9501 41.9167 29.8673 41.9722 29.7966C42.0279 29.726 42.0993 29.6695 42.1809 29.6318C42.2624 29.594 42.3517 29.5761 42.4415 29.5794H52.5984C52.8038 29.589 53.0006 29.6648 53.1594 29.7953C53.3182 29.9259 53.4306 30.1044 53.4798 30.3041L56.8742 46.0996C56.8992 46.1859 56.9033 46.277 56.8863 46.3652C56.8692 46.4535 56.8315 46.5363 56.7761 46.6071C56.7207 46.6779 56.6494 46.7345 56.5679 46.7723C56.4864 46.81 56.3971 46.8278 56.3074 46.8243Z" fill="#746BE9"/>
<path d="M57.4705 37.9116L54.9444 37.8166C54.6407 37.8061 54.3381 37.8597 54.0565 37.974L52.7459 38.4986C52.623 38.5474 52.5111 38.6204 52.4171 38.7135C52.323 38.8065 52.2486 38.9176 52.1984 39.04C52.1483 39.1625 52.1233 39.2939 52.125 39.4262C52.1268 39.5585 52.1552 39.6891 52.2086 39.8103L52.7328 40.9448C52.8386 41.1649 53.0169 41.3417 53.2377 41.4457C53.4585 41.5496 53.7082 41.5742 53.9451 41.5154L55.39 41.1547C55.39 41.1547 58.1029 40.9383 58.2012 39.5151L57.4705 37.9116Z" fill="#FFB573"/>
<path d="M64.4461 20.716C65.0719 21.6998 65.6452 22.5982 66.2088 23.5623C66.7724 24.5263 67.326 25.4805 67.847 26.4774C68.368 27.4743 68.8627 28.5039 69.3116 29.6057C69.5447 30.1826 69.7438 30.7729 69.9079 31.3732C70.1192 32.1047 70.2164 32.8646 70.1962 33.6259V33.7538C70.1973 33.7756 70.1973 33.7975 70.1962 33.8194C70.1962 33.9374 70.1635 34.0554 70.1405 34.1734C70.1176 34.2916 70.0881 34.3833 70.0554 34.5014C70.0226 34.6195 69.9865 34.6817 69.9505 34.7736C69.8252 35.0573 69.6645 35.324 69.4721 35.5671C69.2044 35.9019 68.9 36.2054 68.5646 36.4722C68.0492 36.8784 67.5013 37.2414 66.9264 37.5575C65.9149 38.111 64.8735 38.608 63.8072 39.0463C62.7751 39.4856 61.7463 39.8857 60.7109 40.2628C59.6755 40.6399 58.6566 41.0039 57.5786 41.3646L56.3303 37.2329C57.3133 36.964 58.3158 36.6328 59.2955 36.2983C60.2752 35.9639 61.2614 35.5901 62.1919 35.1998C63.105 34.8223 63.9955 34.392 64.8589 33.9111C65.2232 33.709 65.5706 33.4776 65.8975 33.2192C65.9834 33.1541 66.0605 33.078 66.1269 32.993C66.0986 33.0248 66.0765 33.0615 66.0614 33.1012C66.0614 33.1307 66.045 33.1504 66.0286 33.1865C66.0157 33.225 66.0058 33.2645 65.9991 33.3045C65.9853 33.3549 65.9766 33.4066 65.9729 33.4587C65.9729 33.4783 65.9729 33.4816 65.9729 33.4751V33.452C65.95 33.141 65.8895 32.8338 65.7927 32.5372C65.6617 32.1079 65.5063 31.6864 65.3274 31.2748C64.9269 30.3671 64.4739 29.4835 63.971 28.6285C63.4598 27.7497 62.916 26.8709 62.3328 26.0052C61.7496 25.1395 61.1533 24.2771 60.5537 23.4902L64.4461 20.716Z" fill="#746BE9"/>
<g opacity="0.7">
<path d="M64.4461 20.716C65.0719 21.6998 65.6452 22.5982 66.2088 23.5623C66.7724 24.5263 67.326 25.4805 67.847 26.4774C68.368 27.4743 68.8627 28.5039 69.3116 29.6057C69.5447 30.1826 69.7438 30.7729 69.9079 31.3732C70.1192 32.1047 70.2164 32.8646 70.1962 33.6259V33.7538C70.1973 33.7756 70.1973 33.7975 70.1962 33.8194C70.1962 33.9374 70.1635 34.0554 70.1405 34.1734C70.1176 34.2916 70.0881 34.3833 70.0554 34.5014C70.0226 34.6195 69.9865 34.6817 69.9505 34.7736C69.8252 35.0573 69.6645 35.324 69.4721 35.5671C69.2044 35.9019 68.9 36.2054 68.5646 36.4722C68.0492 36.8784 67.5013 37.2414 66.9264 37.5575C65.9149 38.111 64.8735 38.608 63.8072 39.0463C62.7751 39.4856 61.7463 39.8857 60.7109 40.2628C59.6755 40.6399 58.6566 41.0039 57.5786 41.3646L56.3303 37.2329C57.3133 36.964 58.3158 36.6328 59.2955 36.2983C60.2752 35.9639 61.2614 35.5901 62.1919 35.1998C63.105 34.8223 63.9955 34.392 64.8589 33.9111C65.2232 33.709 65.5706 33.4776 65.8975 33.2192C65.9834 33.1541 66.0605 33.078 66.1269 32.993C66.0986 33.0248 66.0765 33.0615 66.0614 33.1012C66.0614 33.1307 66.045 33.1504 66.0286 33.1865C66.0157 33.225 66.0058 33.2645 65.9991 33.3045C65.9853 33.3549 65.9766 33.4066 65.9729 33.4587C65.9729 33.4783 65.9729 33.4816 65.9729 33.4751V33.452C65.95 33.141 65.8895 32.8338 65.7927 32.5372C65.6617 32.1079 65.5063 31.6864 65.3274 31.2748C64.9269 30.3671 64.4739 29.4835 63.971 28.6285C63.4598 27.7497 62.916 26.8709 62.3328 26.0052C61.7496 25.1395 61.1533 24.2771 60.5537 23.4902L64.4461 20.716Z" fill="white"/>
</g>
<path d="M61.1304 32.0946C61.1085 32.0943 61.0871 32.0884 61.0681 32.0775C61.0492 32.0665 61.0334 32.051 61.0222 32.0322C61.0126 32.0179 61.006 32.0018 61.0028 31.9848C60.9995 31.9679 60.9998 31.9505 61.0034 31.9337C61.0071 31.9169 61.0142 31.9009 61.0241 31.8868C61.0341 31.8728 61.0469 31.8609 61.0615 31.8519L61.5727 31.524C62.0497 31.2229 62.4242 30.7838 62.6465 30.265C62.8688 29.7463 62.9285 29.1722 62.8177 28.6187L61.7889 23.4049C61.7136 23.015 61.5091 22.662 61.2085 22.4029C60.9078 22.1439 60.5286 21.9938 60.1323 21.9771C59.7359 21.9604 59.3455 22.078 59.0242 22.311C58.7029 22.5439 58.4695 22.8785 58.3618 23.2606L56.9037 28.3728C56.7445 28.9131 56.7532 29.4892 56.9287 30.0245C57.1044 30.5598 57.4384 31.029 57.8867 31.3698L58.3716 31.7371C58.3989 31.7585 58.4166 31.7897 58.4209 31.8242C58.4252 31.8586 58.4157 31.8933 58.3945 31.9207C58.3842 31.9341 58.3714 31.9454 58.3568 31.9539C58.3421 31.9623 58.3259 31.9677 58.3092 31.9698C58.2924 31.9719 58.2754 31.9708 58.2591 31.9663C58.2428 31.9618 58.2276 31.9541 58.2143 31.9437L57.7556 31.5797C57.2629 31.2084 56.8946 30.6959 56.6998 30.1102C56.5049 29.5245 56.4926 28.8934 56.6645 28.3006L58.1258 23.1884C58.2513 22.7519 58.5196 22.3702 58.8878 22.1046C59.256 21.8391 59.7026 21.705 60.1561 21.7238C60.6095 21.7428 61.0435 21.9136 61.3883 22.2089C61.7332 22.5042 61.9689 22.907 62.0576 23.3524L63.0864 28.5695C63.2078 29.1741 63.1428 29.8015 62.9 30.3684C62.6572 30.9352 62.248 31.4149 61.7266 31.7436L61.2123 32.0716C61.2009 32.0807 61.1877 32.0875 61.1736 32.0915C61.1595 32.0954 61.1448 32.0964 61.1304 32.0946Z" fill="#263238"/>
<path d="M61.9167 23.5131L58.2372 23.359C58.22 23.3581 58.2031 23.3539 58.1875 23.3466C58.1719 23.3392 58.1579 23.3288 58.1464 23.316C58.1348 23.3032 58.1259 23.2882 58.1201 23.272C58.1143 23.2557 58.1118 23.2385 58.1127 23.2212C58.116 23.187 58.1319 23.1553 58.1574 23.1323C58.1828 23.1092 58.2159 23.0965 58.2503 23.0967L61.9265 23.2508C61.9436 23.2516 61.9606 23.2559 61.9762 23.2632C61.9918 23.2706 62.0057 23.281 62.0172 23.2938C62.0288 23.3065 62.0377 23.3215 62.0435 23.3378C62.0493 23.3541 62.0518 23.3712 62.051 23.3885C62.0506 23.4055 62.0467 23.4224 62.0397 23.438C62.0327 23.4536 62.0226 23.4676 62.0101 23.4791C61.9975 23.4908 61.9828 23.4998 61.9668 23.5056C61.9508 23.5114 61.9337 23.514 61.9167 23.5131Z" fill="#263238"/>
<path d="M60.1277 21.985C60.0938 21.9842 60.0614 21.9706 60.0371 21.9469C60.0128 21.9231 59.9983 21.8911 59.9967 21.8571C59.9967 21.2013 59.7936 20.0635 59.1809 19.8143C59.1639 19.8086 59.1483 19.7995 59.135 19.7875C59.1217 19.7755 59.111 19.761 59.1035 19.7447C59.096 19.7284 59.0919 19.7108 59.0915 19.6929C59.0911 19.675 59.0944 19.6572 59.1011 19.6406C59.1078 19.6241 59.1179 19.609 59.1306 19.5965C59.1434 19.5839 59.1586 19.5741 59.1753 19.5676C59.1919 19.5611 59.2098 19.5581 59.2276 19.5588C59.2455 19.5595 59.263 19.5639 59.2792 19.5716C60.1868 19.9455 60.2621 21.6571 60.2621 21.867C60.2621 21.9016 60.2489 21.9348 60.2251 21.9598C60.2013 21.9849 60.1688 21.9997 60.1343 22.0014L60.1277 21.985Z" fill="#263238"/>
<path d="M48.8732 26.4414H48.8469C48.8131 26.4342 48.7835 26.414 48.7644 26.3852C48.7454 26.3563 48.7386 26.3211 48.7454 26.2872C49.1779 24.1328 50.9668 20.7324 52.5428 19.729C52.5571 19.7201 52.5732 19.7141 52.5899 19.7113C52.6066 19.7087 52.6237 19.7093 52.6401 19.7133C52.6566 19.7172 52.6721 19.7245 52.6858 19.7344C52.6994 19.7445 52.711 19.7571 52.7197 19.7716C52.7292 19.7856 52.7358 19.8015 52.739 19.8183C52.7421 19.8349 52.7419 19.8521 52.7383 19.8687C52.7345 19.8853 52.7275 19.9009 52.7175 19.9147C52.7076 19.9284 52.695 19.94 52.6803 19.9487C51.1568 20.9128 49.4203 24.2116 49.0009 26.3331C48.9956 26.3633 48.9799 26.3906 48.9565 26.4103C48.9332 26.4301 48.9037 26.441 48.8732 26.4414Z" fill="#263238"/>
<path d="M49.9478 26.7791C49.7447 27.3005 49.2925 27.6152 48.9648 27.4808C48.6372 27.3464 48.5094 26.825 48.7126 26.2905C48.9157 25.756 49.3679 25.4544 49.6955 25.5921C50.0232 25.7297 50.1542 26.2577 49.9478 26.7791Z" fill="white"/>
<path d="M58.5977 31.8584C58.5977 32.1011 58.4469 32.2946 58.2864 32.288C58.1258 32.2814 58.0013 32.0782 58.0112 31.8322C58.021 31.5863 58.1619 31.3928 58.3224 31.4026C58.483 31.4125 58.6075 31.6125 58.5977 31.8584Z" fill="white"/>
<path d="M61.422 31.9764C61.422 32.2191 61.2745 32.4126 61.1107 32.4061C60.9469 32.3995 60.8289 32.1962 60.8387 31.9503C60.8486 31.7043 60.9861 31.5141 61.1663 31.5207C61.3465 31.5272 61.4318 31.7404 61.422 31.9764Z" fill="white"/>
<path d="M116.984 27.4284L116.656 27.4087C116.711 26.7106 116.62 26.0087 116.389 25.3476C116.158 24.6866 115.792 24.0808 115.315 23.5687C114.838 23.0566 114.259 22.6493 113.617 22.3727C112.974 22.0962 112.281 21.9563 111.581 21.9621V21.6342C112.326 21.6279 113.063 21.7765 113.747 22.0705C114.432 22.3647 115.047 22.7978 115.555 23.3426C116.063 23.8874 116.452 24.5319 116.698 25.2352C116.944 25.9386 117.042 26.6854 116.984 27.4284Z" fill="#746BE9"/>
<path d="M117.157 28.8032L116.967 31.5183L117.294 31.5413L117.484 28.8262L117.157 28.8032Z" fill="#746BE9"/>
<path d="M111.581 22.7819H88.9736C87.739 22.8022 86.5558 23.2813 85.6552 24.1262C84.7538 24.9711 84.199 26.1213 84.0985 27.3529L83.8919 30.3992C83.8452 30.9854 83.9204 31.5749 84.1135 32.1302C84.3074 32.6855 84.6137 33.1944 85.0149 33.6244C85.4154 34.0544 85.9013 34.3962 86.4411 34.6279C86.9816 34.8597 87.5633 34.9763 88.1513 34.9703H110.759L115.142 37.6756L115.837 27.3529C115.885 26.767 115.81 26.1775 115.616 25.6222C115.423 25.067 115.117 24.558 114.717 24.1279C114.316 23.6977 113.83 23.3559 113.29 23.1242C112.751 22.8924 112.168 22.7758 111.581 22.7819Z" fill="#746BE9"/>
<path d="M110.434 27.1464H89.4944V27.9071H110.434V27.1464Z" fill="white"/>
<path d="M110.251 29.845H94.7042V30.6058H110.251V29.845Z" fill="white"/>
<path d="M77.5715 39.0791H100.677C101.278 39.0725 101.873 39.1915 102.425 39.4281C102.978 39.6649 103.475 40.0143 103.885 40.454C104.294 40.8937 104.608 41.414 104.805 41.9819C105.003 42.5496 105.08 43.1525 105.031 43.7518L104.822 46.867C104.718 48.1256 104.151 49.3007 103.229 50.1642C102.309 51.0277 101.1 51.5179 99.8381 51.5397H76.7295L71.8738 54.3105L72.5881 43.7518C72.6912 42.4928 73.2584 41.3172 74.1795 40.4537C75.1005 39.59 76.3096 39.1 77.5715 39.0791Z" fill="white"/>
<path opacity="0.15" d="M77.5715 39.0791H100.677C101.278 39.0725 101.873 39.1915 102.425 39.4281C102.978 39.6649 103.475 40.0143 103.885 40.454C104.294 40.8937 104.608 41.414 104.805 41.9819C105.003 42.5496 105.08 43.1525 105.031 43.7518L104.822 46.867C104.718 48.1256 104.151 49.3007 103.229 50.1642C102.309 51.0277 101.1 51.5179 99.8381 51.5397H76.7295L71.8738 54.3105L72.5881 43.7518C72.6912 42.4928 73.2584 41.3172 74.1795 40.4537C75.1005 39.59 76.3096 39.1 77.5715 39.0791Z" fill="#746BE9"/>
<path opacity="0.5" d="M99.5041 43.5419H78.0892V44.3223H99.5041V43.5419Z" fill="#746BE9"/>
<path opacity="0.5" d="M86.3651 46.2996H77.9024V47.0801H86.3651V46.2996Z" fill="#746BE9"/>
<path opacity="0.5" d="M93.8455 46.2996H88.4394V47.0801H93.8455V46.2996Z" fill="#746BE9"/>
</g>
</g>
<defs>
<clipPath id="clip0_2_1062">
<rect width="129" height="119" fill="white"/>
</clipPath>
</defs>
</svg>
