<svg width="140" height="118" viewBox="0 0 140 118" fill="none" xmlns="http://www.w3.org/2000/svg">
<g clip-path="url(#clip0_2_785)">
<mask id="mask0_2_785" style="mask-type:luminance" maskUnits="userSpaceOnUse" x="0" y="0" width="140" height="118">
<path d="M140 0H0V118H140V0Z" fill="white"/>
</mask>
<g mask="url(#mask0_2_785)">
<path d="M159.416 103.469H-16.3504V103.55H159.416V103.469Z" fill="#EBEBEB"/>
<path d="M141.805 108.686H122.389V108.768H141.805V108.686Z" fill="#EBEBEB"/>
<path d="M99.8312 106.987H96.7764V107.069H99.8312V106.987Z" fill="#EBEBEB"/>
<path d="M121.331 105.677H114.585V105.759H121.331V105.677Z" fill="#EBEBEB"/>
<path d="M17.2737 106.222H2.09103V106.303H17.2737V106.222Z" fill="#EBEBEB"/>
<path d="M75.4173 108.317H59.3452V108.399H75.4173V108.317Z" fill="#EBEBEB"/>
<path d="M65.9576 106.945H33.0259V107.027H65.9576V106.945Z" fill="#EBEBEB"/>
<path d="M-0.914571 89.0077H66.9629C67.4952 89.0077 68.0059 88.8126 68.3822 88.4654C68.7587 88.1182 68.9701 87.6473 68.9701 87.1562V-0.853131C68.9655 -1.34135 68.7519 -1.80811 68.3761 -2.15182C68.0001 -2.49553 67.4923 -2.68836 66.9629 -2.68835H-0.914571C-1.44632 -2.68749 -1.95596 -2.49205 -2.33164 -2.14493C-2.70731 -1.79781 -2.9183 -1.32738 -2.9183 -0.836919V87.1562C-2.9183 87.6467 -2.70731 88.1172 -2.33164 88.4643C-1.95596 88.8114 -1.44632 89.0069 -0.914571 89.0077ZM-2.83042 -0.853131C-2.83042 -1.3221 -2.62869 -1.77192 -2.2695 -2.10382C-1.9103 -2.43574 -1.42301 -2.62264 -0.914571 -2.6235H66.9629C67.4717 -2.62264 67.9594 -2.43584 68.3191 -2.10403C68.6788 -1.7722 68.8813 -1.3224 68.8822 -0.853131V87.1562C68.8813 87.6256 68.6788 88.0754 68.3191 88.4071C67.9594 88.739 67.4717 88.9258 66.9629 88.9266H-0.914571C-1.42301 88.9258 -1.9103 88.7389 -2.2695 88.4069C-2.62869 88.0751 -2.83042 87.6253 -2.83042 87.1562V-0.853131Z" fill="#EBEBEB"/>
<path d="M75.1219 89.0077H143.003C143.536 89.0077 144.046 88.8126 144.423 88.4654C144.799 88.1182 145.01 87.6473 145.01 87.1562V-0.853131C145.005 -1.34135 144.792 -1.80811 144.417 -2.15182C144.041 -2.49553 143.533 -2.68836 143.003 -2.68835H75.1219C74.5899 -2.68749 74.0799 -2.49216 73.7037 -2.14513C73.3275 -1.79811 73.1157 -1.32768 73.1147 -0.836919V87.1562C73.1157 87.647 73.3275 88.1175 73.7037 88.4645C74.0799 88.8115 74.5899 89.0069 75.1219 89.0077ZM73.2026 -0.853131C73.2035 -1.3224 73.4061 -1.7722 73.7658 -2.10403C74.1256 -2.43584 74.6132 -2.62264 75.1219 -2.6235H143.003C143.512 -2.62264 144 -2.43584 144.359 -2.10403C144.719 -1.7722 144.921 -1.3224 144.922 -0.853131V87.1562C144.921 87.6256 144.719 88.0754 144.359 88.4071C144 88.739 143.512 88.9258 143.003 88.9266H75.1219C74.6132 88.9258 74.1256 88.739 73.7658 88.4071C73.4061 88.0754 73.2035 87.6256 73.2026 87.1562V-0.853131Z" fill="#EBEBEB"/>
<path d="M133.122 1.67596H52.8735V44.2297H133.122V1.67596Z" fill="#F5F5F5"/>
<path d="M130.756 4.84383H94.1716V41.6324H130.756V4.84383Z" fill="#FAFAFA"/>
<path d="M125.799 7.41832H119.478L116.319 12.4668L119.478 17.5153H125.799L128.959 12.4668L125.799 7.41832Z" fill="#F0F0F0"/>
<path d="M116.319 22.5605H110.001L106.84 27.6089L110.001 32.6575H116.319L119.478 27.6089L116.319 22.5605Z" fill="white"/>
<path d="M116.319 12.4668H110.001L106.84 17.5153L110.001 22.5605H116.319L119.478 17.5153L116.319 12.4668Z" fill="#EBEBEB"/>
<path d="M87.6577 34.5899H57.7774V40.9257H87.6577V34.5899Z" fill="#FAFAFA"/>
<path d="M70.3411 9.87932C70.2527 10.3337 70.0202 10.7537 69.673 11.0862C69.3258 11.4187 68.8795 11.6488 68.3906 11.7475C67.9016 11.8461 67.3919 11.8087 66.9259 11.6402C66.46 11.4716 66.0586 11.1795 65.7727 10.8007C65.4868 10.4218 65.329 9.97318 65.3194 9.51161C65.3098 9.05005 65.4488 8.59621 65.7187 8.20749C65.9887 7.81875 66.3776 7.51259 66.8362 7.32768C67.2948 7.14277 67.8025 7.08743 68.2953 7.16865C68.9559 7.27843 69.5424 7.6255 69.926 8.1337C70.3095 8.6419 70.4588 9.26969 70.3411 9.87932Z" fill="#EBEBEB"/>
<path d="M65.8591 23.4619C65.7707 23.9162 65.5382 24.3363 65.1909 24.6688C64.8438 25.0013 64.3974 25.2314 63.9086 25.33C63.4196 25.4286 62.9099 25.3913 62.4439 25.2228C61.978 25.0543 61.5766 24.762 61.2907 24.3832C61.0047 24.0044 60.847 23.5558 60.8373 23.0941C60.8277 22.6326 60.9667 22.1788 61.2367 21.7901C61.5067 21.4013 61.8955 21.0951 62.3542 20.9102C62.8128 20.7253 63.3205 20.67 63.8132 20.7512C64.1405 20.8051 64.4531 20.9181 64.7332 21.0836C65.0132 21.249 65.2551 21.4638 65.4451 21.7155C65.6352 21.9673 65.7695 22.251 65.8406 22.5507C65.9116 22.8503 65.9178 23.16 65.8591 23.4619Z" fill="#EBEBEB"/>
<path d="M79.087 31.3726C80.4845 31.3418 81.5902 30.2719 81.5568 28.9829C81.5234 27.694 80.3635 26.674 78.966 26.7048C77.5686 26.7357 76.4628 27.8056 76.4962 29.0946C76.5296 30.3836 77.6896 31.4035 79.087 31.3726Z" fill="#EBEBEB"/>
<path d="M84.828 16.0907C85.5713 14.9987 85.214 13.5578 84.0301 12.8722C82.8463 12.1866 81.284 12.5162 80.5408 13.6082C79.7975 14.7001 80.1548 16.1412 81.3387 16.8267C82.5225 17.5122 84.0848 17.1826 84.828 16.0907Z" fill="#EBEBEB"/>
<path d="M88.6384 14.1723C88.5998 14.3603 88.5018 14.5336 88.3568 14.6705C88.2118 14.8075 88.0263 14.9019 87.8233 14.942C87.6205 14.982 87.4094 14.9661 87.2162 14.896C87.0232 14.8259 86.8568 14.7049 86.738 14.5481C86.6191 14.3912 86.553 14.2055 86.5481 14.0141C86.5431 13.8228 86.5994 13.6344 86.71 13.4724C86.8205 13.3105 86.9805 13.1822 87.1696 13.1037C87.3589 13.0253 87.569 12.9999 87.7737 13.031C88.0518 13.0776 88.2988 13.2237 88.4608 13.4375C88.6227 13.6513 88.6865 13.9154 88.6384 14.1723Z" fill="#EBEBEB"/>
<path d="M82.6835 15.2326C82.579 15.2328 82.4784 15.1971 82.4011 15.1322C82.3239 15.0675 82.2756 14.9784 82.2659 14.8826C82.2563 14.7867 82.2858 14.6909 82.3487 14.6141C82.4117 14.5373 82.5035 14.4849 82.6061 14.4674L87.51 13.6244C87.5641 13.6149 87.6196 13.6155 87.6733 13.6259C87.7271 13.6363 87.7781 13.6564 87.8235 13.685C87.8689 13.7136 87.9077 13.7502 87.9378 13.7926C87.9678 13.835 87.9885 13.8825 87.9987 13.9324C88.0088 13.9822 88.0082 14.0334 87.9969 14.0829C87.9856 14.1326 87.9638 14.1797 87.9329 14.2216C87.9019 14.2633 87.8622 14.2991 87.8162 14.3269C87.7702 14.3546 87.7187 14.3737 87.6647 14.3831L82.7608 15.2261C82.7355 15.2314 82.7094 15.2337 82.6835 15.2326Z" fill="#EBEBEB"/>
<path d="M61.1239 16.6009C61.3306 16.6172 61.5275 16.6893 61.6899 16.8083C61.8524 16.9273 61.9732 17.0878 62.0373 17.2698C62.1013 17.4518 62.1057 17.6472 62.05 17.8314C61.9942 18.0157 61.8808 18.1808 61.7239 18.3059C61.567 18.4311 61.3735 18.5107 61.1678 18.535C60.962 18.5592 60.753 18.5269 60.5672 18.4423C60.3812 18.3575 60.2264 18.224 60.1222 18.0586C60.018 17.8931 59.969 17.703 59.9814 17.512C59.9899 17.3824 60.0263 17.2557 60.0886 17.1393C60.1509 17.0229 60.2379 16.9191 60.3444 16.8343C60.4509 16.7493 60.5747 16.685 60.7086 16.6449C60.8425 16.6048 60.9837 16.5899 61.1239 16.6009Z" fill="#EBEBEB"/>
<path d="M63.3667 23.4359C63.2825 23.4351 63.2006 23.4112 63.1311 23.3674C63.0616 23.3235 63.0079 23.2616 62.9765 23.1896L60.6564 17.739C60.6363 17.6918 60.6265 17.6413 60.6275 17.5905C60.6287 17.5398 60.6405 17.4898 60.6626 17.4432C60.6846 17.3967 60.7163 17.3546 60.756 17.3194C60.7956 17.2842 60.8424 17.2565 60.8936 17.2381C60.9449 17.2195 60.9996 17.2104 61.0547 17.2115C61.1097 17.2124 61.1639 17.2234 61.2144 17.2437C61.2648 17.264 61.3104 17.2934 61.3486 17.3299C61.3867 17.3665 61.4168 17.4096 61.4368 17.4569L63.7569 22.9237C63.7972 23.0195 63.7946 23.1263 63.7499 23.2204C63.7051 23.3146 63.6216 23.3886 63.5179 23.4263C63.4684 23.4372 63.4173 23.4404 63.3667 23.4359Z" fill="#EBEBEB"/>
<path d="M78.4686 19.9341C78.3724 20.4291 78.1192 20.8865 77.7411 21.2487C77.363 21.6109 76.8769 21.8616 76.3442 21.9689C75.8117 22.0763 75.2565 22.0355 74.7492 21.8518C74.2417 21.6682 73.8046 21.3499 73.4934 20.9371C73.1821 20.5243 73.0104 20.0357 73.0003 19.5329C72.9901 19.0302 73.1418 18.5359 73.4361 18.1128C73.7305 17.6895 74.1544 17.3564 74.654 17.1553C75.1537 16.9543 75.7068 16.8945 76.2434 16.9835C76.9626 17.1027 77.601 17.4805 78.0183 18.0339C78.4356 18.5871 78.5975 19.2707 78.4686 19.9341Z" fill="#EBEBEB"/>
<path d="M63.3668 23.4359C63.2776 23.4359 63.1908 23.4094 63.1193 23.3604C63.0477 23.3114 62.9952 23.2423 62.9694 23.1636C62.9364 23.066 62.9468 22.9602 62.9983 22.8697C63.0497 22.7791 63.138 22.7111 63.2437 22.6804L75.0763 19.2791L67.5113 9.69451C67.4752 9.6539 67.4485 9.60693 67.4328 9.55646C67.4171 9.506 67.4128 9.45311 67.4199 9.40103C67.4272 9.34896 67.4458 9.29878 67.4748 9.25358C67.5037 9.20839 67.5424 9.16913 67.5884 9.1382C67.6344 9.10726 67.6867 9.08532 67.7422 9.07369C67.7978 9.06207 67.8552 9.06102 67.9112 9.0706C67.9672 9.08019 68.0205 9.10021 68.0678 9.12943C68.115 9.15865 68.1554 9.19647 68.1862 9.24057L76.0957 19.2596C76.1345 19.3091 76.1601 19.3664 76.1705 19.4266C76.1809 19.4868 76.1757 19.5485 76.1555 19.6067C76.1347 19.6651 76.0988 19.7179 76.0511 19.7608C76.0034 19.8037 75.9451 19.8353 75.8813 19.853L63.4898 23.4197C63.4501 23.4318 63.4085 23.4374 63.3668 23.4359Z" fill="#EBEBEB"/>
<path d="M79.024 29.4117C78.9353 29.412 78.8488 29.386 78.7774 29.3376C78.7058 29.289 78.6531 29.2208 78.6267 29.1426L75.3575 19.5872C75.3318 19.5099 75.333 19.4271 75.3608 19.3503C75.3885 19.2737 75.4414 19.2068 75.5122 19.1592L82.4374 14.5225C82.5271 14.469 82.6356 14.4492 82.7408 14.4672C82.8459 14.4852 82.9395 14.5396 83.0024 14.6193C83.0654 14.6989 83.0929 14.7977 83.0794 14.8955C83.0658 14.9933 83.0122 15.0825 82.9295 15.145L76.2504 19.6229L79.4142 28.9125C79.4463 29.01 79.4355 29.1153 79.3842 29.2057C79.3329 29.296 79.2452 29.3642 79.14 29.3955C79.1024 29.4063 79.0633 29.4117 79.024 29.4117Z" fill="#EBEBEB"/>
<path d="M133.125 44.2265H134.179V1.67273H133.125V44.2265Z" fill="#E6E6E6"/>
<path d="M31.3175 79.2382H5.92273C5.11749 79.2381 4.34107 79.5147 3.74504 80.014C3.149 80.5135 2.77612 81.1999 2.69918 81.9392L0.488037 103.469H36.7521L34.541 81.9392C34.4641 81.1999 34.0912 80.5135 33.4951 80.014C32.8992 79.5147 32.1227 79.2381 31.3175 79.2382Z" fill="#EBEBEB"/>
<path d="M31.3597 12.4668H5.87704V79.2382H31.3597V12.4668Z" fill="#F5F5F5"/>
<path d="M31.6514 9.46753H5.58527C5.02418 9.46753 4.56934 9.88706 4.56934 10.4046V11.5297C4.56934 12.0473 5.02418 12.4667 5.58527 12.4667H31.6514C32.2126 12.4667 32.6674 12.0473 32.6674 11.5297V10.4046C32.6674 9.88706 32.2126 9.46753 31.6514 9.46753Z" fill="#EBEBEB"/>
<path d="M18.6201 -0.305161C15.5564 -0.305161 12.6184 0.81738 10.4521 2.81551C8.28573 4.81364 7.06873 7.52369 7.06873 10.3495H30.1679C30.1679 7.52426 28.9514 4.8147 26.7859 2.81666C24.6204 0.818618 21.6831 -0.304301 18.6201 -0.305161Z" fill="#EBEBEB"/>
<path d="M15.5231 67.6725C17.6587 67.6725 19.39 66.0756 19.39 64.1058C19.39 62.136 17.6587 60.5391 15.5231 60.5391C13.3875 60.5391 11.6563 62.136 11.6563 64.1058C11.6563 66.0756 13.3875 67.6725 15.5231 67.6725Z" fill="#FAFAFA"/>
<path d="M21.2004 55.7306C22.3963 55.7306 23.3658 54.8363 23.3658 53.7333C23.3658 52.6301 22.3963 51.7359 21.2004 51.7359C20.0045 51.7359 19.0349 52.6301 19.0349 53.7333C19.0349 54.8363 20.0045 55.7306 21.2004 55.7306Z" fill="#FAFAFA"/>
<path d="M21.9281 25.5111C24.0636 25.5111 25.7949 23.9143 25.7949 21.9444C25.7949 19.9746 24.0636 18.3777 21.9281 18.3777C19.7924 18.3777 18.0612 19.9746 18.0612 21.9444C18.0612 23.9143 19.7924 25.5111 21.9281 25.5111Z" fill="#FAFAFA"/>
<path d="M12.8515 43.2116C13.2798 43.2116 13.6984 43.3287 14.0545 43.5482C14.4106 43.7676 14.6881 44.0796 14.852 44.4445C15.016 44.8095 15.0589 45.2111 14.9753 45.5986C14.8917 45.986 14.6855 46.3419 14.3827 46.6212C14.0798 46.9006 13.6939 47.0908 13.2739 47.1679C12.8538 47.2449 12.4185 47.2053 12.0227 47.0542C11.627 46.903 11.2889 46.647 11.051 46.3186C10.813 45.9901 10.686 45.6039 10.686 45.2089C10.686 44.6792 10.9142 44.1711 11.3203 43.7966C11.7264 43.4219 12.2772 43.2116 12.8515 43.2116Z" fill="#FAFAFA"/>
<path d="M19.39 36.5613C20.1665 36.5613 20.7961 35.9807 20.7961 35.2644C20.7961 34.548 20.1665 33.9674 19.39 33.9674C18.6133 33.9674 17.9839 34.548 17.9839 35.2644C17.9839 35.9807 18.6133 36.5613 19.39 36.5613Z" fill="#FAFAFA"/>
<path d="M75.8672 103.469V57.1183H48.9293V103.469H75.8672Z" fill="#F0F0F0"/>
<path d="M71.7613 72.0562V58.4704H53.0422V72.0562H71.7613Z" fill="#F5F5F5"/>
<path d="M71.7613 86.8612V73.2754H53.0422V86.8612H71.7613Z" fill="#F5F5F5"/>
<path d="M71.7613 101.669V88.0836H53.0422V101.669H71.7613Z" fill="#F5F5F5"/>
<path d="M65.2826 58.2921H59.5175C59.5175 58.4772 59.557 58.6605 59.634 58.8314C59.7108 59.0024 59.8235 59.1576 59.9656 59.2883C60.1076 59.419 60.2762 59.5226 60.4617 59.5932C60.6472 59.6637 60.8459 59.6998 61.0466 59.6994H63.7569C64.1616 59.6994 64.5496 59.5511 64.8357 59.2872C65.1219 59.0233 65.2826 58.6654 65.2826 58.2921Z" fill="#E6E6E6"/>
<path d="M65.2826 73.0971H59.5175C59.5175 73.2823 59.557 73.4657 59.6338 73.6368C59.7107 73.808 59.8233 73.9634 59.9654 74.0944C60.1073 74.2254 60.2759 74.3293 60.4614 74.4001C60.647 74.471 60.8458 74.5075 61.0466 74.5075H63.7569C63.9576 74.5075 64.1563 74.471 64.3416 74.4001C64.5269 74.3292 64.6953 74.2253 64.8369 74.0942C64.9787 73.9632 65.091 73.8077 65.1674 73.6366C65.244 73.4655 65.283 73.2822 65.2826 73.0971Z" fill="#E6E6E6"/>
<path d="M65.2826 87.9021H59.5175C59.5175 88.2761 59.6785 88.6348 59.9654 88.8993C60.2521 89.1639 60.641 89.3125 61.0466 89.3125H63.7569C63.9576 89.3125 64.1563 89.276 64.3416 89.2051C64.5269 89.1341 64.6953 89.0302 64.8369 88.8991C64.9787 88.7682 65.091 88.6127 65.1674 88.4415C65.244 88.2705 65.283 88.0871 65.2826 87.9021Z" fill="#E6E6E6"/>
<path d="M83.4076 103.465V57.1151H75.8708V103.465H83.4076Z" fill="#E6E6E6"/>
<path d="M128.727 103.465V57.1151H77.6038V103.465H128.727Z" fill="#F0F0F0"/>
<path d="M120.252 52.6276V50.2606C120.281 50.253 120.307 50.237 120.326 50.2149C120.345 50.1928 120.356 50.1656 120.357 50.1374C120.357 50.103 120.343 50.0701 120.316 50.0456C120.29 50.0213 120.254 50.0077 120.217 50.0077H118.863C118.83 50.0088 118.799 50.0205 118.774 50.0409C118.75 50.0613 118.733 50.089 118.729 50.1192C118.724 50.1494 118.731 50.1801 118.749 50.2059C118.766 50.2318 118.794 50.2512 118.824 50.2606V52.6276C118.253 52.7856 117.762 53.128 117.442 53.5922C117.122 54.0565 116.993 54.6115 117.079 55.1561C117.166 55.7006 117.462 56.1983 117.914 56.558C118.364 56.9179 118.942 57.1159 119.539 57.1159C120.135 57.1159 120.712 56.9179 121.163 56.558C121.615 56.1983 121.91 55.7006 121.997 55.1561C122.084 54.6115 121.955 54.0565 121.634 53.5922C121.315 53.128 120.823 52.7856 120.252 52.6276Z" fill="#F0F0F0"/>
<path d="M116.558 53.3766V52.433C116.585 52.4267 116.609 52.411 116.625 52.3891C116.641 52.3673 116.648 52.3407 116.643 52.3145C116.64 52.2885 116.626 52.2646 116.604 52.2475C116.582 52.2305 116.555 52.2215 116.526 52.2223H115.397C115.366 52.2223 115.336 52.2336 115.315 52.2537C115.294 52.2737 115.281 52.3009 115.281 52.3293C115.28 52.3528 115.288 52.376 115.304 52.3949C115.319 52.4136 115.341 52.4272 115.365 52.433V53.3798C114.889 53.5118 114.479 53.7975 114.211 54.185C113.945 54.5724 113.837 55.0356 113.909 55.49C113.981 55.9443 114.229 56.3596 114.606 56.6598C114.982 56.96 115.463 57.1252 115.961 57.1252C116.46 57.1252 116.941 56.96 117.317 56.6598C117.694 56.3596 117.941 55.9443 118.014 55.49C118.085 55.0356 117.978 54.5724 117.711 54.185C117.444 53.7975 117.034 53.5118 116.558 53.3798V53.3766Z" fill="#F0F0F0"/>
<path d="M126.255 53.0815V48.581C126.292 48.5736 126.324 48.5551 126.347 48.5286C126.37 48.5021 126.382 48.4691 126.382 48.4351C126.381 48.3942 126.364 48.355 126.332 48.326C126.3 48.297 126.259 48.2804 126.214 48.2794H124.614C124.569 48.2794 124.526 48.2959 124.495 48.3251C124.463 48.3542 124.446 48.3938 124.446 48.4351C124.446 48.4686 124.457 48.5013 124.479 48.5277C124.502 48.5542 124.534 48.573 124.568 48.581V53.0815C124.561 53.4521 124.465 53.8166 124.286 54.1487C124.107 54.4806 123.851 54.7718 123.535 55.001C123.16 55.2858 122.867 55.6509 122.681 56.0646C122.631 56.1813 122.612 56.3076 122.628 56.4324C122.643 56.5572 122.691 56.6766 122.769 56.7802C122.845 56.8837 122.949 56.968 123.07 57.0259C123.191 57.0838 123.325 57.1132 123.462 57.1119H127.381C127.518 57.113 127.651 57.0834 127.772 57.0255C127.894 56.9677 127.997 56.8834 128.074 56.7801C128.151 56.6767 128.2 56.5575 128.215 56.4327C128.232 56.308 128.214 56.1815 128.164 56.0646C127.977 55.6507 127.683 55.2857 127.307 55.001C126.988 54.7729 126.729 54.4823 126.548 54.1504C126.366 53.8185 126.266 53.4534 126.255 53.0815Z" fill="#F0F0F0"/>
<path d="M124.617 72.0562V58.4704H81.7132V72.0562H124.617Z" fill="#F5F5F5"/>
<path d="M124.621 86.8644V73.2786H81.7168V86.8644H124.621Z" fill="#F5F5F5"/>
<path d="M124.621 101.669V88.0836H81.7168V101.669H124.621Z" fill="#F5F5F5"/>
<path d="M106.049 58.2921H100.285C100.285 58.4772 100.324 58.6605 100.401 58.8314C100.478 59.0024 100.591 59.1576 100.733 59.2883C100.875 59.419 101.043 59.5226 101.229 59.5932C101.414 59.6637 101.613 59.6998 101.814 59.6994H104.524C104.928 59.6994 105.317 59.5511 105.603 59.2872C105.889 59.0233 106.049 58.6654 106.049 58.2921Z" fill="#E6E6E6"/>
<path d="M106.049 73.0971H100.285C100.285 73.2823 100.324 73.4657 100.401 73.6368C100.478 73.808 100.591 73.9634 100.733 74.0944C100.875 74.2254 101.043 74.3293 101.229 74.4001C101.414 74.471 101.613 74.5075 101.814 74.5075H104.524C104.725 74.5075 104.923 74.471 105.109 74.4001C105.294 74.3292 105.463 74.2253 105.604 74.0942C105.746 73.9632 105.858 73.8077 105.935 73.6366C106.012 73.4655 106.051 73.2822 106.049 73.0971Z" fill="#E6E6E6"/>
<path d="M106.049 87.9021H100.285C100.285 88.2761 100.446 88.6348 100.733 88.8993C101.019 89.1639 101.408 89.3125 101.814 89.3125H104.524C104.725 89.3125 104.923 89.276 105.109 89.2051C105.294 89.1341 105.463 89.0302 105.604 88.8991C105.746 88.7682 105.858 88.6127 105.935 88.4415C106.012 88.2705 106.051 88.0871 106.049 87.9021Z" fill="#E6E6E6"/>
<path d="M136.264 103.469V57.1183H128.727V103.469H136.264Z" fill="#E6E6E6"/>
<path d="M71.5328 118.112C109.175 118.112 139.691 116.468 139.691 114.442C139.691 112.414 109.175 110.771 71.5328 110.771C33.8898 110.771 3.37415 112.414 3.37415 114.442C3.37415 116.468 33.8898 118.112 71.5328 118.112Z" fill="#F5F5F5"/>
<path d="M91.3944 15.7222C89.4856 14.8759 84.877 16.2248 85.893 19.5418C86.7542 22.3594 84.29 23.9191 86.3816 25.5208C88.4732 27.1225 84.5115 30.7638 93.2329 30.4396C100.439 30.1673 103.136 27.4922 102.636 25.2095C102.011 22.3368 99.325 23.183 99.529 21.2537C99.7328 19.3245 91.3944 15.7222 91.3944 15.7222Z" fill="#263238"/>
<path d="M91.3136 35.8966C91.2116 36.156 91.1343 36.3441 91.0394 36.5645C90.9445 36.785 90.853 36.9795 90.7546 37.1838C90.5649 37.5956 90.3504 37.9977 90.136 38.3966C89.6964 39.206 89.2057 39.9909 88.6666 40.7473C88.1086 41.5414 87.4808 42.2919 86.7894 42.9911C86.4206 43.3664 86.0248 43.7186 85.6047 44.0449C85.3903 44.2135 85.1547 44.3691 84.9192 44.5344L84.543 44.7679L84.297 44.9073C84.2056 44.9592 84.1142 45.0014 84.0228 45.0467C83.3723 45.3405 82.6673 45.5177 81.9453 45.5688C81.3599 45.6139 80.7711 45.6052 80.1876 45.5429C79.1641 45.4234 78.1568 45.2061 77.182 44.8944C75.369 44.3121 73.6388 43.5304 72.0285 42.5663L73.1147 40.436C74.7558 40.8584 76.4212 41.1962 78.103 41.4476C78.8666 41.5599 79.6394 41.6098 80.4125 41.5968C80.7251 41.5932 81.0363 41.5585 81.3406 41.493C81.5184 41.4612 81.6864 41.3937 81.8327 41.2953C81.8327 41.2953 81.8327 41.2953 81.8327 41.2758L81.8679 41.2466L82.0366 41.1105C82.1491 41.0099 82.2651 40.9126 82.3882 40.7862C82.6167 40.5624 82.8451 40.3128 83.0702 40.0469C83.5341 39.4745 83.9602 38.8768 84.3462 38.2571C84.7434 37.6086 85.1301 36.9439 85.4887 36.2565C85.6715 35.9322 85.8402 35.5659 86.016 35.219L86.2691 34.7001L86.4976 34.2137L91.3136 35.8966Z" fill="#746BE9"/>
<path opacity="0.8" d="M91.3136 35.8966C91.2116 36.156 91.1343 36.3441 91.0394 36.5645C90.9445 36.785 90.853 36.9795 90.7546 37.1838C90.5649 37.5956 90.3504 37.9977 90.136 38.3966C89.6964 39.206 89.2057 39.9909 88.6666 40.7473C88.1086 41.5414 87.4808 42.2919 86.7894 42.9911C86.4206 43.3664 86.0248 43.7186 85.6047 44.0449C85.3903 44.2135 85.1547 44.3691 84.9192 44.5344L84.543 44.7679L84.297 44.9073C84.2056 44.9592 84.1142 45.0014 84.0228 45.0467C83.3723 45.3405 82.6673 45.5177 81.9453 45.5688C81.3599 45.6139 80.7711 45.6052 80.1876 45.5429C79.1641 45.4234 78.1568 45.2061 77.182 44.8944C75.369 44.3121 73.6388 43.5304 72.0285 42.5663L73.1147 40.436C74.7558 40.8584 76.4212 41.1962 78.103 41.4476C78.8666 41.5599 79.6394 41.6098 80.4125 41.5968C80.7251 41.5932 81.0363 41.5585 81.3406 41.493C81.5184 41.4612 81.6864 41.3937 81.8327 41.2953C81.8327 41.2953 81.8327 41.2953 81.8327 41.2758L81.8679 41.2466L82.0366 41.1105C82.1491 41.0099 82.2651 40.9126 82.3882 40.7862C82.6167 40.5624 82.8451 40.3128 83.0702 40.0469C83.5341 39.4745 83.9602 38.8768 84.3462 38.2571C84.7434 37.6086 85.1301 36.9439 85.4887 36.2565C85.6715 35.9322 85.8402 35.5659 86.016 35.219L86.2691 34.7001L86.4976 34.2137L91.3136 35.8966Z" fill="white"/>
<path d="M73.0163 42.2551L70.9669 42.495V39.9497C70.9669 39.9497 72.9987 40.1669 73.853 41.1072L73.0163 42.2551Z" fill="#FFB573"/>
<path d="M68.4535 42.3426L68.7347 40.6013L70.9739 39.9497L70.9669 42.495L68.4535 42.3426Z" fill="#FFB573"/>
<path opacity="0.2" d="M71.4344 42.8743V39.6319C71.4843 39.6254 71.5294 39.601 71.5597 39.5639C71.59 39.5268 71.6031 39.4801 71.5961 39.4342C71.5891 39.3881 71.5626 39.3465 71.5224 39.3186C71.4821 39.2906 71.4316 39.2785 71.3817 39.285H69.5256C69.4768 39.281 69.4281 39.2944 69.3899 39.3227C69.3516 39.3509 69.3267 39.3918 69.3203 39.4366C69.314 39.4815 69.3267 39.5268 69.3558 39.5632C69.3848 39.5997 69.428 39.6242 69.4764 39.6319V42.8743C68.6932 43.0911 68.0207 43.5605 67.5817 44.1968C67.1427 44.8331 66.9664 45.5939 67.0851 46.34C67.204 47.0863 67.6098 47.7681 68.2285 48.2613C68.8473 48.7543 69.6377 49.0256 70.4553 49.0256C71.2731 49.0256 72.0635 48.7543 72.6823 48.2613C73.301 47.7681 73.7068 47.0863 73.8257 46.34C73.9444 45.5939 73.7681 44.8331 73.3291 44.1968C72.8901 43.5605 72.2176 43.0911 71.4344 42.8743Z" fill="#746BE9"/>
<path opacity="0.5" d="M73.4909 46.373C73.4019 47.0574 73.0445 47.6882 72.4863 48.1466C71.9279 48.6048 71.207 48.8589 70.4596 48.8609C69.7122 48.8629 68.9898 48.6126 68.4286 48.1573C67.8674 47.7021 67.5061 47.0732 67.4128 46.3892C69.4412 47.0441 71.4696 45.7179 73.4909 46.373Z" fill="#746BE9"/>
<path opacity="0.7" d="M67.4128 46.373C67.5018 47.0574 67.8592 47.6882 68.4176 48.1466C68.9758 48.6048 69.6967 48.8589 70.4441 48.8609C71.1915 48.8629 71.9139 48.6126 72.4751 48.1573C73.0363 47.7021 73.3976 47.0732 73.4909 46.3892C71.466 47.0441 69.4236 45.7179 67.4128 46.373Z" fill="#746BE9"/>
<path d="M99.7187 110.531L96.4565 110.816L96.2139 103.923L99.4797 103.641L99.7187 110.531Z" fill="#FFB573"/>
<path d="M118.082 106.867L115.091 108.077L112.42 101.617L115.411 100.405L118.082 106.867Z" fill="#FFB573"/>
<path d="M114.662 107.554L117.608 105.534C117.658 105.494 117.724 105.475 117.789 105.479C117.855 105.483 117.917 105.511 117.96 105.557L119.949 107.502C119.998 107.554 120.034 107.615 120.057 107.681C120.078 107.745 120.085 107.815 120.077 107.883C120.068 107.95 120.044 108.016 120.007 108.076C119.969 108.134 119.919 108.185 119.858 108.225C118.821 108.913 118.284 109.198 116.986 110.084C116.188 110.632 114.508 111.948 113.407 112.703C112.308 113.459 111.478 112.486 111.864 112.08C113.622 110.262 114.071 109.03 114.353 108.015C114.394 107.832 114.504 107.669 114.662 107.554Z" fill="#263238"/>
<path d="M96.1858 109.922H100.053C100.121 109.922 100.188 109.942 100.242 109.981C100.296 110.02 100.334 110.075 100.351 110.135L101.104 112.95C101.121 113.017 101.122 113.088 101.106 113.156C101.089 113.225 101.056 113.288 101.009 113.343C100.962 113.397 100.902 113.44 100.834 113.47C100.765 113.5 100.691 113.515 100.615 113.514C99.2583 113.514 98.6114 113.424 96.917 113.424C95.8624 113.424 93.1767 113.517 91.7355 113.517C90.2942 113.517 90.0727 112.204 90.6597 112.085C93.2893 111.552 94.8184 110.816 95.6445 110.116C95.7931 109.992 95.9857 109.923 96.1858 109.922Z" fill="#263238"/>
<path opacity="0.2" d="M96.2139 103.926L96.337 107.476H99.6133L99.4797 103.641L96.2139 103.926Z" fill="black"/>
<path opacity="0.2" d="M115.411 100.408L112.42 101.617L113.798 104.947L116.79 103.738L115.411 100.408Z" fill="black"/>
<path d="M105.048 47.1511L92.2452 50.1438C89.1131 42.9554 87.5979 38.7597 86.8843 36.3148C86.6175 35.3978 86.7198 34.4226 87.1721 33.5697C87.6245 32.7167 88.3963 32.0437 89.345 31.675C89.7598 31.5129 90.1958 31.3507 90.6352 31.1918C90.9585 31.0751 91.289 30.9616 91.6124 30.8676C93.5134 30.2879 95.4563 29.8328 97.4267 29.5057C97.715 29.4506 98.0067 29.402 98.295 29.3566H98.3689C98.9536 29.2678 99.5521 29.2924 100.126 29.429C100.7 29.5656 101.236 29.811 101.702 30.1497C102.167 30.4884 102.551 30.9129 102.827 31.3961C103.104 31.8793 103.27 32.4105 103.312 32.9557C103.635 37.1092 104.233 43.471 105.069 47.1738" fill="#746BE9"/>
<path d="M95.6199 26.0105C95.8906 27.4858 96.4214 28.9643 97.4162 29.4961C97.4162 29.4961 97.6728 30.7282 94.4493 33.3351C94.1918 33.5466 93.8589 33.6635 93.5142 33.6635C93.1694 33.6635 92.8366 33.5466 92.5791 33.3351C90.7195 31.7561 91.6019 30.8611 91.6019 30.8611C93.5774 29.9111 93.3068 28.6206 92.224 26.6103L93.7392 25.6376C93.8596 25.4866 94.0248 25.3709 94.2148 25.3044C94.4047 25.238 94.6116 25.2236 94.8102 25.263C95.0089 25.3024 95.1911 25.3939 95.3347 25.5265C95.4783 25.6591 95.5774 25.8271 95.6199 26.0105Z" fill="#FFB573"/>
<path opacity="0.2" d="M93.7427 25.6246C93.8564 25.4827 94.0099 25.3719 94.1867 25.3042C94.3634 25.2366 94.5568 25.2146 94.7461 25.2406C94.9353 25.2666 95.1134 25.3396 95.2611 25.4518C95.4089 25.5639 95.5208 25.7112 95.5847 25.8775C95.0944 27.0842 94.2131 28.1223 93.0608 28.8508C92.9354 28.0604 92.6516 27.2984 92.224 26.6038L93.7427 25.6246Z" fill="black"/>
<path d="M95.9292 19.9212C96.5936 22.8587 96.9452 24.0877 95.8379 25.9974C94.1716 28.867 90.2133 29.0422 88.6173 26.3606C87.1901 23.9482 86.3394 19.5515 88.9935 17.5704C91.6476 15.5892 95.2613 16.9803 95.9292 19.9212Z" fill="#FFB573"/>
<path d="M88.3151 24.9891C88.152 24.977 87.9932 24.9352 87.8477 24.8663C87.7023 24.7972 87.5733 24.7023 87.4678 24.587C87.1087 24.206 86.8435 23.7576 86.6905 23.2728C86.5376 22.7879 86.5006 22.2784 86.5819 21.7791C86.5768 21.5902 86.6395 21.4051 86.7602 21.2525C86.881 21.1 87.0531 20.9886 87.2497 20.9357C87.4463 20.8827 87.6563 20.8913 87.8471 20.96C88.0379 21.0286 88.1988 21.1536 88.3044 21.3154C88.6737 21.6912 88.9412 22.1423 89.0849 22.6318C89.2478 23.1154 89.284 23.6277 89.1903 24.1266C89.1726 24.3094 89.1006 24.4844 88.9822 24.6319C88.8637 24.7795 88.7034 24.8941 88.5189 24.9632C88.4525 24.9801 88.3839 24.9888 88.3151 24.9891ZM87.4573 21.0722C87.4038 21.072 87.3506 21.0786 87.2991 21.0916C87.1458 21.1549 87.014 21.2552 86.9174 21.3819C86.8209 21.5086 86.7633 21.6571 86.7507 21.8115C86.6751 22.2854 86.7111 22.7687 86.856 23.2286C87.001 23.6884 87.2517 24.1142 87.5908 24.4768C87.6741 24.6174 87.8069 24.7276 87.9673 24.7891C88.1276 24.8507 88.306 24.8599 88.4727 24.8153C88.6396 24.7707 88.7849 24.6749 88.8848 24.5438C88.9845 24.4127 89.0328 24.254 89.0216 24.0942C89.1094 23.62 89.0744 23.1333 88.9196 22.6739C88.7828 22.2104 88.5299 21.7828 88.1814 21.4256C87.9998 21.2246 87.7396 21.0977 87.4573 21.0722Z" fill="white"/>
<path d="M94.7973 20.2421C94.2313 20.6767 95.0258 23.4035 96.5234 22.9658C98.0209 22.528 96.6533 18.8187 94.7973 20.2421Z" fill="#263238"/>
<path d="M96.167 21.2311L92.3705 21.6579L92.3917 21.8189L96.1884 21.392L96.167 21.2311Z" fill="white"/>
<path d="M91.2187 24.2238C90.8523 24.2108 90.502 24.0814 90.2273 23.8574C89.7853 23.498 89.4675 23.0267 89.3133 22.5021C88.9618 21.3445 89.3555 20.213 90.2203 19.9795C91.0851 19.746 92.0904 20.5015 92.4561 21.659C92.8076 22.8199 92.4139 23.9515 91.5456 24.1817C91.4394 24.2104 91.3293 24.2246 91.2187 24.2238ZM90.5473 20.0995C90.4534 20.1002 90.3601 20.1121 90.2695 20.1351C89.4996 20.3427 89.1446 21.3834 89.482 22.4567C89.6257 22.9502 89.9241 23.3934 90.3398 23.731C90.4909 23.8648 90.6757 23.9619 90.8777 24.0134C91.0796 24.0649 91.2922 24.0693 91.4964 24.026C92.2698 23.8185 92.6248 22.7777 92.2874 21.7045C91.9815 20.7447 91.2433 20.0865 90.5402 20.0865L90.5473 20.0995Z" fill="white"/>
<path d="M97.4162 22.4146C97.4361 22.9962 97.2105 23.5623 96.787 23.9936C96.221 24.5578 95.5249 24.185 95.3351 23.4748C95.1629 22.8263 95.2508 21.7791 95.9855 21.4775C96.7202 21.176 97.3881 21.7012 97.4162 22.4146Z" fill="#FFB573"/>
<path d="M91.3944 15.3623C87.2604 17.003 88.2587 19.5774 92.4139 20.4431C94.7199 20.9166 97.149 22.0644 97.2509 23.2998C97.3529 24.5352 101.329 20.3589 98.9559 19.2176C96.583 18.0762 96.5795 13.3033 91.3944 15.3623Z" fill="#263238"/>
<path d="M89.4891 17.1456C89.6332 18.5787 87.1163 22.3692 84.1599 20.1579C85.7875 20.2194 86.0124 19.2208 86.6909 17.6579C87.3167 16.2248 89.3204 15.4693 89.4891 17.1456Z" fill="#263238"/>
<path d="M92.2452 50.1438C92.2452 50.1438 92.3225 65.4061 92.2943 77.1306C92.2733 86.4526 95.2508 106.086 95.2508 106.086L99.9789 105.651C99.9789 105.651 99.9789 84.5105 99.072 77.857C102.021 64.7445 106.708 52.2645 102.527 47.6731L92.2452 50.1438Z" fill="#263238"/>
<path d="M100.749 104.588L94.516 104.762L94.857 106.727L100.689 106.646L100.749 104.588Z" fill="#746BE9"/>
<path opacity="0.3" d="M98.8645 58.8077L104.05 55.763C103.571 60.4127 101.919 66.3009 100.341 72.5815C98.6009 67.7309 97.6447 62.6272 98.8645 58.8077Z" fill="black"/>
<path d="M95.0504 49.5148C95.0504 49.5148 100.214 63.8983 102.647 75.1916C103.274 78.1165 104.09 81.0041 105.09 83.8393C108.254 92.8176 112.388 103.566 112.388 103.566L116.451 101.806C116.451 101.806 113.116 83.408 110.307 77.1631C110.198 64.0442 110.436 51.4863 105.034 47.1446L95.0504 49.5148Z" fill="#263238"/>
<path d="M97.701 29.3923C97.701 29.3923 97.0788 43.3996 101.455 61.3692C107.08 60.8083 110.472 59.213 110.472 59.213C110.472 59.213 107.308 47.3878 106.254 42.6344C105.473 39.1455 104.43 33.575 103.93 30.8546C103.84 30.3777 103.583 29.9415 103.195 29.6143C102.809 29.287 102.315 29.0869 101.793 29.0453C100.71 28.9611 99.2161 29.1524 97.701 29.3923Z" fill="#746BE9"/>
<path opacity="0.8" d="M97.701 29.3923C97.701 29.3923 97.0788 43.3996 101.455 61.3692C107.08 60.8083 110.472 59.213 110.472 59.213C110.472 59.213 107.308 47.3878 106.254 42.6344C105.473 39.1455 104.43 33.575 103.93 30.8546C103.84 30.3777 103.583 29.9415 103.195 29.6143C102.809 29.287 102.315 29.0869 101.793 29.0453C100.71 28.9611 99.2161 29.1524 97.701 29.3923Z" fill="white"/>
<path d="M91.5456 30.6763C91.5456 30.6763 91.1518 37.32 97.0576 61.9074C95.2824 62.8801 91.3663 62.7504 91.3663 62.7504C91.3663 62.7504 89.8828 51.8916 88.6947 46.5772C87.7807 42.5047 86.814 37.1482 86.4097 34.8655C86.3463 34.5012 86.3836 34.1281 86.5181 33.7806C86.6527 33.4332 86.8802 33.1227 87.1795 32.8779C88.1533 32.0738 89.7703 30.9648 91.5456 30.6763Z" fill="#746BE9"/>
<path opacity="0.8" d="M91.5456 30.6763C91.5456 30.6763 91.1518 37.32 97.0576 61.9074C95.2824 62.8801 91.3663 62.7504 91.3663 62.7504C91.3663 62.7504 89.8828 51.8916 88.6947 46.5772C87.7807 42.5047 86.814 37.1482 86.4097 34.8655C86.3463 34.5012 86.3836 34.1281 86.5181 33.7806C86.6527 33.4332 86.8802 33.1227 87.1795 32.8779C88.1533 32.0738 89.7703 30.9648 91.5456 30.6763Z" fill="white"/>
<path d="M98.5622 40.1118C95.0785 41.4607 91.7601 42.7057 89.4224 43.3056C89.3325 43.3308 89.2494 43.3733 89.1787 43.4303C89.1079 43.4873 89.051 43.5575 89.0118 43.6362C88.9726 43.715 88.9519 43.8005 88.9512 43.8872C88.9505 43.9738 88.9697 44.0596 89.0075 44.1389L94.734 55.1307C94.832 55.29 94.9897 55.4107 95.1773 55.4705C95.365 55.5302 95.5698 55.5246 95.7535 55.455C99.0227 54.158 103.807 52.6989 104.767 51.6224C102.144 47.2127 99.6977 42.9878 98.5622 40.1118Z" fill="white"/>
<path d="M99.2512 40.3776C95.669 41.4865 92.2628 42.4983 89.8723 42.9456C89.7808 42.9645 89.6947 43.001 89.6197 43.053C89.5447 43.1049 89.4826 43.1709 89.4373 43.2466C89.3921 43.3223 89.3649 43.4061 89.3574 43.4923C89.35 43.5785 89.3625 43.6651 89.3942 43.7466L94.256 55.0951C94.3399 55.2617 94.487 55.3943 94.6696 55.4679C94.8522 55.5414 95.0578 55.5506 95.2472 55.4938C98.6114 54.4142 103.498 53.2858 104.538 52.2774C102.26 47.7055 100.158 43.3251 99.2512 40.3776Z" fill="white"/>
<path d="M103.937 53.2663L95.0855 55.9024C94.8959 55.9637 94.6886 55.9598 94.502 55.8913C94.3153 55.8227 94.1618 55.6942 94.0696 55.5296L88.8142 44.2978C88.7806 44.2165 88.7661 44.1295 88.7717 44.0427C88.7775 43.9559 88.8031 43.8712 88.847 43.7942C88.8909 43.7172 88.952 43.6497 89.0264 43.5963C89.1007 43.5427 89.1865 43.5044 89.2782 43.4839L98.1158 40.8478C98.3053 40.7865 98.5127 40.7905 98.6993 40.859C98.886 40.9275 99.0396 41.056 99.1316 41.2207L104.387 52.4525C104.422 52.5329 104.437 52.6191 104.433 52.7054C104.428 52.7915 104.403 52.876 104.361 52.953C104.318 53.0299 104.259 53.0976 104.186 53.1517C104.113 53.2057 104.028 53.2448 103.937 53.2663Z" fill="#746BE9"/>
<path opacity="0.3" d="M103.937 53.2663L95.0855 55.9024C94.8959 55.9637 94.6886 55.9598 94.502 55.8913C94.3153 55.8227 94.1618 55.6942 94.0696 55.5296L88.8142 44.2978C88.7806 44.2165 88.7661 44.1295 88.7717 44.0427C88.7775 43.9559 88.8031 43.8712 88.847 43.7942C88.8909 43.7172 88.952 43.6497 89.0264 43.5963C89.1007 43.5427 89.1865 43.5044 89.2782 43.4839L98.1158 40.8478C98.3053 40.7865 98.5127 40.7905 98.6993 40.859C98.886 40.9275 99.0396 41.056 99.1316 41.2207L104.387 52.4525C104.422 52.5329 104.437 52.6191 104.433 52.7054C104.428 52.7915 104.403 52.876 104.361 52.953C104.318 53.0299 104.259 53.0976 104.186 53.1517C104.113 53.2057 104.028 53.2448 103.937 53.2663Z" fill="black"/>
<path d="M112.23 104.578L117.429 102.542L116.902 100.522L111.136 102.967L112.23 104.578Z" fill="#746BE9"/>
<path d="M91.05 22.2168C91.1203 22.4503 91.05 22.6772 90.8812 22.7226C90.7124 22.768 90.5297 22.6124 90.4594 22.3789C90.3891 22.1454 90.4594 21.9153 90.6281 21.8731C90.7968 21.8309 90.9797 21.9801 91.05 22.2168Z" fill="#263238"/>
<path d="M88.2307 22.9917C88.301 23.2252 88.2307 23.4521 88.0619 23.4975C87.8932 23.5429 87.7104 23.3906 87.6401 23.1539C87.5698 22.9171 87.6401 22.6935 87.8088 22.648C87.9775 22.6026 88.1603 22.755 88.2307 22.9917Z" fill="#263238"/>
<path d="M87.8862 22.6415H87.2393C87.2393 22.6415 87.6787 22.9982 87.8862 22.6415Z" fill="#263238"/>
<path d="M89.2747 23.0728C89.2533 23.7382 89.135 24.398 88.9232 25.0345C89.0969 25.0788 89.279 25.0869 89.4566 25.0583C89.6341 25.0297 89.8025 24.9651 89.9497 24.8691L89.2747 23.0728Z" fill="#ED893E"/>
<path d="M91.1835 25.3263C91.1685 25.3246 91.1544 25.3188 91.143 25.3096C91.1317 25.3002 91.1237 25.288 91.1203 25.2744C91.1147 25.2559 91.1171 25.2362 91.1269 25.2193C91.1367 25.2023 91.1532 25.1896 91.173 25.1837C91.4901 25.1031 91.7823 24.9554 92.0265 24.7521C92.2706 24.5489 92.4599 24.2958 92.5791 24.0131C92.5848 23.9951 92.598 23.98 92.6157 23.9708C92.6335 23.9617 92.6544 23.9594 92.6741 23.9645C92.6932 23.971 92.7088 23.9841 92.718 24.001C92.7271 24.0178 92.7289 24.0372 92.7232 24.0553C92.5995 24.3604 92.3994 24.6343 92.1391 24.8546C91.8789 25.0749 91.5659 25.2355 91.2257 25.323L91.1835 25.3263Z" fill="#263238"/>
<path d="M91.6757 21.0041C91.6486 21.0035 91.6225 20.9942 91.6019 20.9781C91.4561 20.8697 91.2845 20.7946 91.1012 20.7591C90.9178 20.7236 90.7281 20.7286 90.5473 20.7738C90.5284 20.7806 90.5082 20.7837 90.4879 20.7831C90.4677 20.7825 90.4479 20.778 90.4295 20.7701C90.4111 20.7623 90.3946 20.7512 90.381 20.7373C90.3675 20.7235 90.357 20.7072 90.3504 20.6896C90.3368 20.6535 90.3391 20.6139 90.3569 20.5793C90.3746 20.5447 90.4064 20.5179 90.4453 20.5048C90.6763 20.4387 90.9213 20.4263 91.1587 20.4687C91.396 20.5112 91.6183 20.6071 91.8058 20.748C91.8377 20.7716 91.8586 20.8057 91.8638 20.8432C91.8691 20.8808 91.8583 20.9186 91.8339 20.949C91.8165 20.9717 91.7921 20.989 91.7639 20.9989C91.7358 21.0087 91.705 21.0106 91.6757 21.0041Z" fill="#263238"/>
<path d="M86.7542 22.0417L86.7332 22.0223C86.7043 21.9955 86.6882 21.9594 86.6882 21.9217C86.6882 21.8841 86.7043 21.848 86.7332 21.8212C86.9017 21.6596 87.1106 21.5384 87.3416 21.4683C87.5726 21.3982 87.8187 21.3814 88.0584 21.4192C88.0977 21.4298 88.1312 21.4537 88.1521 21.4863C88.1729 21.5188 88.1797 21.5574 88.1709 21.5942C88.1608 21.6302 88.1364 21.6612 88.1024 21.6811C88.0685 21.701 88.0276 21.7082 87.988 21.7012C87.7969 21.6719 87.6009 21.686 87.4171 21.7426C87.2334 21.7991 87.0673 21.8962 86.9334 22.0255C86.9094 22.0456 86.8791 22.058 86.8468 22.0609C86.8145 22.0638 86.782 22.0571 86.7542 22.0417Z" fill="#263238"/>
<path d="M113.544 108.799H113.492C113.415 108.793 113.343 108.767 113.28 108.726C113.219 108.684 113.17 108.628 113.14 108.563C113.118 108.525 113.107 108.483 113.107 108.44C113.107 108.397 113.118 108.354 113.14 108.317C113.348 107.993 114.511 107.912 114.642 107.904C114.656 107.903 114.67 107.906 114.683 107.914C114.696 107.921 114.706 107.931 114.712 107.943C114.72 107.955 114.724 107.969 114.724 107.982C114.724 107.997 114.72 108.01 114.712 108.021C114.444 108.313 113.942 108.793 113.544 108.799ZM114.476 108.057C114.012 108.099 113.397 108.206 113.288 108.381C113.277 108.398 113.272 108.416 113.272 108.435C113.272 108.453 113.277 108.472 113.288 108.488C113.305 108.531 113.336 108.569 113.374 108.598C113.413 108.627 113.46 108.644 113.509 108.65C113.717 108.676 114.086 108.455 114.476 108.057Z" fill="#746BE9"/>
<path d="M114.581 108.05C114.191 108.05 113.425 107.862 113.288 107.571C113.263 107.519 113.257 107.46 113.272 107.405C113.288 107.349 113.323 107.3 113.372 107.266C113.414 107.227 113.465 107.197 113.522 107.18C113.577 107.161 113.637 107.156 113.695 107.162C114.159 107.201 114.698 107.901 114.722 107.931C114.731 107.941 114.736 107.953 114.737 107.966C114.739 107.978 114.736 107.991 114.731 108.003C114.724 108.014 114.715 108.024 114.704 108.032C114.693 108.039 114.679 108.043 114.666 108.044L114.581 108.05ZM113.646 107.305C113.582 107.305 113.521 107.328 113.475 107.37C113.404 107.434 113.411 107.476 113.425 107.509C113.516 107.7 114.128 107.892 114.508 107.904C114.315 107.681 113.956 107.328 113.678 107.305H113.646Z" fill="#746BE9"/>
<path d="M94.4598 110.509C94.1972 110.526 93.9354 110.466 93.7111 110.339C93.656 110.301 93.6108 110.253 93.5787 110.197C93.5465 110.141 93.5281 110.079 93.5247 110.015C93.5218 109.977 93.5301 109.939 93.5487 109.905C93.5672 109.87 93.5954 109.842 93.6302 109.821C93.9817 109.604 95.2824 110.145 95.5355 110.265C95.551 110.27 95.5638 110.282 95.5715 110.295C95.5792 110.308 95.5814 110.325 95.5777 110.339C95.575 110.354 95.568 110.368 95.5575 110.378C95.5468 110.389 95.5331 110.398 95.5179 110.401C95.1699 110.47 94.8155 110.504 94.4598 110.509ZM93.8622 109.892C93.8095 109.889 93.7569 109.9 93.7111 109.925C93.6995 109.932 93.6903 109.941 93.6847 109.952C93.6791 109.965 93.6773 109.977 93.6794 109.989C93.6791 110.036 93.6904 110.081 93.7124 110.122C93.7344 110.163 93.7664 110.199 93.8059 110.226C94.0275 110.385 94.5617 110.408 95.2543 110.288C94.8151 110.091 94.3456 109.958 93.8622 109.892Z" fill="#746BE9"/>
<path d="M95.5003 110.385C95.4913 110.388 95.4812 110.388 95.4722 110.385C95.0399 110.223 94.1821 109.575 94.2419 109.237C94.2419 109.166 94.3122 109.072 94.5126 109.049C95.2824 108.968 95.5672 110.249 95.5672 110.304C95.5706 110.317 95.5698 110.331 95.5648 110.343C95.5598 110.357 95.5508 110.367 95.5391 110.375C95.5272 110.381 95.5139 110.384 95.5003 110.385ZM94.5793 109.176H94.5266C94.4457 109.176 94.4001 109.204 94.3966 109.24C94.3614 109.435 94.952 109.947 95.3878 110.171C95.2965 109.872 95.0399 109.176 94.5793 109.176Z" fill="#746BE9"/>
<path d="M90.7019 21.8633H90.0551C90.0551 21.8633 90.4946 22.2233 90.7019 21.8633Z" fill="#263238"/>
<path d="M103.118 29.5803C104.035 30.2839 104.875 30.9876 105.702 31.7268C106.528 32.4661 107.35 33.2249 108.138 34.0258C108.954 34.8386 109.72 35.6926 110.433 36.584C110.827 37.0683 111.186 37.5752 111.509 38.1015C111.694 38.4045 111.86 38.7173 112.005 39.0385C112.199 39.4604 112.333 39.9042 112.402 40.3583L112.452 40.7019L112.402 40.9613C112.279 41.59 112.029 42.1916 111.664 42.7349C111.358 43.1934 110.998 43.6186 110.588 44.0027C109.88 44.6499 109.082 45.21 108.219 45.6693C107.43 46.0958 106.607 46.4665 105.758 46.7783C104.921 47.0888 104.062 47.3423 103.185 47.537L102.236 45.3581C102.865 44.9625 103.551 44.5377 104.176 44.1064C104.798 43.6912 105.394 43.2464 105.966 42.7739C106.48 42.359 106.944 41.8949 107.35 41.3893C107.616 41.1018 107.775 40.7443 107.807 40.3679V40.971C107.807 41.023 107.78 40.9386 107.706 40.8187C107.631 40.6987 107.533 40.5495 107.414 40.3907C107.175 40.0664 106.886 39.7194 106.567 39.3725C105.924 38.6754 105.199 37.9685 104.457 37.2714C103.715 36.5742 102.932 35.8869 102.141 35.2028C101.35 34.5186 100.538 33.8312 99.768 33.1794L103.118 29.5803Z" fill="#746BE9"/>
<path opacity="0.8" d="M103.118 29.5803C104.035 30.2839 104.875 30.9876 105.702 31.7268C106.528 32.4661 107.35 33.2249 108.138 34.0258C108.954 34.8386 109.72 35.6926 110.433 36.584C110.827 37.0683 111.186 37.5752 111.509 38.1015C111.694 38.4045 111.86 38.7173 112.005 39.0385C112.199 39.4604 112.333 39.9042 112.402 40.3583L112.452 40.7019L112.402 40.9613C112.279 41.59 112.029 42.1916 111.664 42.7349C111.358 43.1934 110.998 43.6186 110.588 44.0027C109.88 44.6499 109.082 45.21 108.219 45.6693C107.43 46.0958 106.607 46.4665 105.758 46.7783C104.921 47.0888 104.062 47.3423 103.185 47.537L102.236 45.3581C102.865 44.9625 103.551 44.5377 104.176 44.1064C104.798 43.6912 105.394 43.2464 105.966 42.7739C106.48 42.359 106.944 41.8949 107.35 41.3893C107.616 41.1018 107.775 40.7443 107.807 40.3679V40.971C107.807 41.023 107.78 40.9386 107.706 40.8187C107.631 40.6987 107.533 40.5495 107.414 40.3907C107.175 40.0664 106.886 39.7194 106.567 39.3725C105.924 38.6754 105.199 37.9685 104.457 37.2714C103.715 36.5742 102.932 35.8869 102.141 35.2028C101.35 34.5186 100.538 33.8312 99.768 33.1794L103.118 29.5803Z" fill="white"/>
<path d="M103.417 47.0117L102.053 48.0687L101.234 45.6466C101.969 45.3856 102.781 45.3775 103.522 45.6239L103.417 47.0117Z" fill="#FFB573"/>
<path opacity="0.7" d="M97.6341 29.3566C97.6341 29.3566 97.0155 36.1269 97.9857 39.2492C98.3021 36.2728 99.2829 33.3935 99.2055 32.4629C98.8692 32.3174 98.545 32.1494 98.2352 31.9603C98.5812 31.6688 98.9636 31.4163 99.3742 31.208C99.3742 30.7833 99.3742 29.2301 99.2969 29.1037C98.4005 29.2172 97.6341 29.3566 97.6341 29.3566Z" fill="#746BE9"/>
<path opacity="0.7" d="M91.6019 30.6244C91.6019 30.6244 91.8901 35.9777 92.5967 40.4911C91.4613 37.8972 90.0376 35.4362 90.1043 34.4408C90.6035 34.016 91.0394 33.5523 91.0394 33.5523C90.6977 33.377 90.3253 33.2584 89.9391 33.2021C89.9164 32.4634 89.9388 31.724 90.0059 30.9876C90.8672 30.7671 91.6019 30.6244 91.6019 30.6244Z" fill="#746BE9"/>
<path d="M100.97 48.6556L99.884 46.9728L101.234 45.6466L102.053 48.0687L100.97 48.6556Z" fill="#FFB573"/>
<g opacity="0.2">
<path d="M39.125 47.8223V54.7481C39.14 54.9782 39.2496 55.1944 39.4315 55.3526C39.6135 55.5106 39.8541 55.5986 40.1041 55.5986C40.354 55.5986 40.5946 55.5106 40.7765 55.3526C40.9585 55.1944 41.0681 54.9782 41.083 54.7481V47.8223H39.125Z" fill="#746BE9"/>
<path d="M41.0339 48.0006H39.1918C39.1405 48.0006 39.0914 47.9819 39.0551 47.9484C39.0188 47.915 38.9985 47.8696 38.9985 47.8223C38.9985 47.775 39.0188 47.7297 39.0551 47.6962C39.0914 47.6628 39.1405 47.644 39.1918 47.644H41.0479C41.0992 47.644 41.1483 47.6628 41.1846 47.6962C41.2209 47.7297 41.2412 47.775 41.2412 47.8223C41.2413 47.8468 41.2359 47.8712 41.2253 47.8936C41.2148 47.9162 41.1992 47.9365 41.1797 47.9532C41.1603 47.97 41.1373 47.9828 41.1122 47.991C41.087 47.9991 41.0604 48.0024 41.0339 48.0006Z" fill="#746BE9"/>
</g>
<g opacity="0.2">
<path d="M43.0306 47.8223V54.7481C43.0455 54.9782 43.1551 55.1944 43.3371 55.3526C43.519 55.5106 43.7596 55.5986 44.0096 55.5986C44.2595 55.5986 44.5001 55.5106 44.682 55.3526C44.864 55.1944 44.9736 54.9782 44.9886 54.7481V47.8223H43.0306Z" fill="#746BE9"/>
<path d="M44.9359 48.0006H43.0797C43.0285 48.0006 42.9793 47.9819 42.9431 47.9484C42.9068 47.915 42.8864 47.8696 42.8864 47.8223C42.8864 47.775 42.9068 47.7297 42.9431 47.6962C42.9793 47.6628 43.0285 47.644 43.0797 47.644H44.9359C44.9871 47.644 45.0364 47.6628 45.0725 47.6962C45.1088 47.7297 45.1292 47.775 45.1292 47.8223C45.1292 47.8696 45.1088 47.915 45.0725 47.9484C45.0364 47.9819 44.9871 48.0006 44.9359 48.0006Z" fill="#746BE9"/>
</g>
<g opacity="0.2">
<path d="M46.9255 47.8223V54.7481C46.9405 54.9782 47.0501 55.1944 47.2321 55.3526C47.4141 55.5106 47.6546 55.5986 47.9045 55.5986C48.1545 55.5986 48.395 55.5106 48.577 55.3526C48.7589 55.1944 48.8686 54.9782 48.8836 54.7481V47.8223H46.9255Z" fill="#746BE9"/>
<path d="M48.8414 48.0006H46.9817C46.9564 48.0006 46.9313 47.996 46.9077 47.987C46.8843 47.9781 46.863 47.9649 46.845 47.9484C46.8271 47.9318 46.8128 47.9122 46.8031 47.8905C46.7934 47.8689 46.7884 47.8457 46.7884 47.8223C46.7884 47.7989 46.7934 47.7757 46.8031 47.7541C46.8128 47.7324 46.8271 47.7127 46.845 47.6962C46.863 47.6796 46.8843 47.6665 46.9077 47.6575C46.9313 47.6486 46.9564 47.644 46.9817 47.644H48.8414C48.8927 47.644 48.9418 47.6628 48.9781 47.6962C49.0144 47.7297 49.0347 47.775 49.0347 47.8223C49.0347 47.8696 49.0144 47.915 48.9781 47.9484C48.9418 47.9819 48.8927 48.0006 48.8414 48.0006Z" fill="#746BE9"/>
</g>
<path d="M51.0595 49.2133H36.9561C36.9019 49.2133 36.8501 49.1935 36.8119 49.1582C36.7737 49.123 36.7521 49.0751 36.7521 49.0252C36.7521 49.0006 36.7575 48.976 36.7677 48.9533C36.7779 48.9305 36.7929 48.9098 36.8119 48.8922C36.8308 48.8748 36.8533 48.8609 36.878 48.8515C36.9028 48.842 36.9292 48.8372 36.9561 48.8372H51.0595C51.0863 48.8372 51.1129 48.842 51.1376 48.8515C51.1623 48.8609 51.1848 48.8748 51.2037 48.8922C51.2226 48.9098 51.2376 48.9305 51.248 48.9533C51.2582 48.976 51.2634 49.0006 51.2634 49.0252C51.2634 49.0751 51.2419 49.123 51.2037 49.1582C51.1655 49.1935 51.1136 49.2133 51.0595 49.2133Z" fill="#746BE9"/>
<path d="M38.3481 58.0198V48.5454H37.9404V58.0198H38.3481Z" fill="#746BE9"/>
<path d="M50.0823 58.0198V48.5454H49.6745V58.0198H50.0823Z" fill="#746BE9"/>
<path d="M65.0014 43.3996H56.786C56.732 43.3996 56.6801 43.3798 56.6418 43.3446C56.6036 43.3093 56.5822 43.2615 56.5822 43.2116C56.5822 43.1616 56.6036 43.1138 56.6418 43.0786C56.6801 43.0433 56.732 43.0235 56.786 43.0235H65.0014C65.0554 43.0235 65.1072 43.0433 65.1456 43.0786C65.1838 43.1138 65.2052 43.1616 65.2052 43.2116C65.2052 43.2615 65.1838 43.3093 65.1456 43.3446C65.1072 43.3798 65.0554 43.3996 65.0014 43.3996Z" fill="#746BE9"/>
<path d="M64.6638 42.8549H62.1786C62.0893 42.8549 62.0168 42.9216 62.0168 43.004V43.4223C62.0168 43.5046 62.0893 43.5714 62.1786 43.5714H64.6638C64.7531 43.5714 64.8256 43.5046 64.8256 43.4223V43.004C64.8256 42.9216 64.7531 42.8549 64.6638 42.8549Z" fill="#746BE9"/>
<path d="M58.1746 58.0229V42.7349H57.7668V58.0229H58.1746Z" fill="#746BE9"/>
<path opacity="0.1" d="M80.0118 52.5044V50.5589C80.0661 50.5462 80.1134 50.5156 80.1449 50.4728C80.1763 50.43 80.1895 50.3781 80.1822 50.3269C80.1748 50.2756 80.1473 50.2287 80.1048 50.1949C80.0624 50.1613 80.0081 50.143 79.9521 50.1438H77.7339C77.6726 50.1447 77.6142 50.1675 77.5708 50.2075C77.5275 50.2475 77.5028 50.3013 77.5019 50.3579C77.5027 50.4042 77.5199 50.449 77.5511 50.4853C77.5822 50.5216 77.6254 50.5475 77.6741 50.5589V52.5044C77.6649 53.0112 77.5341 53.51 77.2909 53.9647C77.0478 54.4194 76.6984 54.8187 76.268 55.134C75.7531 55.5231 75.3498 56.023 75.0939 56.5898C75.026 56.749 75.0011 56.921 75.0214 57.0911C75.0416 57.2611 75.1065 57.4239 75.2104 57.5656C75.3142 57.7074 75.4539 57.8237 75.6173 57.9045C75.7807 57.9853 75.963 58.0282 76.1485 58.0294H81.5234C81.7088 58.0282 81.8911 57.9853 82.0546 57.9045C82.218 57.8237 82.3577 57.7074 82.4615 57.5656C82.5654 57.4239 82.6301 57.2611 82.6505 57.0911C82.6708 56.921 82.6459 56.749 82.578 56.5898C82.322 56.023 81.9188 55.5231 81.4039 55.134C80.976 54.8175 80.6293 54.4176 80.3886 53.9629C80.148 53.5084 80.0193 53.0102 80.0118 52.5044Z" fill="#746BE9"/>
<path opacity="0.6" d="M64.699 55.429H62.1469C61.5296 55.429 61.0291 55.8906 61.0291 56.4601V56.9887C61.0291 57.5581 61.5296 58.0198 62.1469 58.0198H64.699C65.3164 58.0198 65.817 57.5581 65.817 56.9887V56.4601C65.817 55.8906 65.3164 55.429 64.699 55.429Z" fill="#746BE9"/>
<path opacity="0.8" d="M64.6182 54.4822H62.2243C61.9913 54.4822 61.8024 54.6565 61.8024 54.8713V55.0399C61.8024 55.2548 61.9913 55.429 62.2243 55.429H64.6182C64.8512 55.429 65.04 55.2548 65.04 55.0399V54.8713C65.04 54.6565 64.8512 54.4822 64.6182 54.4822Z" fill="#746BE9"/>
<path d="M63.4827 54.7287H63.3668C63.3182 54.7287 63.2789 54.7649 63.2789 54.8098V55.1048C63.2789 55.1496 63.3182 55.1858 63.3668 55.1858H63.4827C63.5313 55.1858 63.5706 55.1496 63.5706 55.1048V54.8098C63.5706 54.7649 63.5313 54.7287 63.4827 54.7287Z" fill="#746BE9"/>
<path d="M64.003 54.7287H63.887C63.8384 54.7287 63.7991 54.7649 63.7991 54.8098V55.1048C63.7991 55.1496 63.8384 55.1858 63.887 55.1858H64.003C64.0515 55.1858 64.0909 55.1496 64.0909 55.1048V54.8098C64.0909 54.7649 64.0515 54.7287 64.003 54.7287Z" fill="#746BE9"/>
<path d="M64.5232 54.7287H64.4072C64.3587 54.7287 64.3194 54.7649 64.3194 54.8098V55.1048C64.3194 55.1496 64.3587 55.1858 64.4072 55.1858H64.5232C64.5718 55.1858 64.6111 55.1496 64.6111 55.1048V54.8098C64.6111 54.7649 64.5718 54.7287 64.5232 54.7287Z" fill="#746BE9"/>
<path d="M65.0436 54.7287H64.9275C64.8789 54.7287 64.8396 54.7649 64.8396 54.8098V55.1048C64.8396 55.1496 64.8789 55.1858 64.9275 55.1858H65.0436C65.0921 55.1858 65.1315 55.1496 65.1315 55.1048V54.8098C65.1315 54.7649 65.0921 54.7287 65.0436 54.7287Z" fill="#746BE9"/>
<path d="M62.9625 54.7287H62.8465C62.798 54.7287 62.7586 54.7649 62.7586 54.8098V55.1048C62.7586 55.1496 62.798 55.1858 62.8465 55.1858H62.9625C63.011 55.1858 63.0504 55.1496 63.0504 55.1048V54.8098C63.0504 54.7649 63.011 54.7287 62.9625 54.7287Z" fill="#746BE9"/>
<path d="M62.4387 54.7287H62.3227C62.2741 54.7287 62.2348 54.7649 62.2348 54.8098V55.1048C62.2348 55.1496 62.2741 55.1858 62.3227 55.1858H62.4387C62.4872 55.1858 62.5266 55.1496 62.5266 55.1048V54.8098C62.5266 54.7649 62.4872 54.7287 62.4387 54.7287Z" fill="#746BE9"/>
<path d="M61.9184 54.7287H61.8024C61.7539 54.7287 61.7146 54.7649 61.7146 54.8098V55.1048C61.7146 55.1496 61.7539 55.1858 61.8024 55.1858H61.9184C61.967 55.1858 62.0063 55.1496 62.0063 55.1048V54.8098C62.0063 54.7649 61.967 54.7287 61.9184 54.7287Z" fill="#746BE9"/>
<path opacity="0.6" d="M63.423 54.3039C62.9308 54.3947 62.741 53.3636 63.423 52.4525C63.6023 52.7897 64.4565 54.1158 63.423 54.3039Z" fill="#746BE9"/>
<path opacity="0.6" d="M63.4476 54.265C63.1628 54.3168 63.0538 53.7235 63.4476 53.1982C63.5389 53.4058 64.0311 54.158 63.4476 54.265Z" fill="#746BE9"/>
<path d="M97.4374 60.4289H27.4436V114.438H97.4374V60.4289Z" fill="#746BE9"/>
<path opacity="0.7" d="M97.4374 60.4289H27.4436V114.438H97.4374V60.4289Z" fill="white"/>
<path opacity="0.2" d="M97.4373 60.4289H82.3811V114.438H97.4373V60.4289Z" fill="#746BE9"/>
<path opacity="0.3" d="M78.6478 110.758H31.191V64.1058H78.6478V110.758ZM31.5425 110.434H78.2963V64.4494H31.546L31.5425 110.434Z" fill="#746BE9"/>
<g opacity="0.3">
<path d="M44.5632 104.409L44.282 104.15C46.9853 101.66 47.3896 97.5126 47.7973 93.5049C48.1805 89.5946 48.5391 85.9014 50.9049 83.7193C53.7172 81.1253 58.2871 80.7557 62.6918 80.3893C66.8574 80.0424 70.777 79.7181 73.0515 77.6299L73.3327 77.8894C70.9704 80.0715 66.9664 80.4023 62.7269 80.7557C58.382 81.1157 53.8859 81.4885 51.1861 83.9786C48.9222 86.0668 48.5672 89.6951 48.1945 93.5374C47.7797 97.6099 47.3684 101.825 44.5632 104.409Z" fill="#746BE9"/>
<path d="M36.7909 97.2402L36.5096 96.9808C39.3219 94.3869 43.8918 94.0173 48.2965 93.6508C52.4622 93.3039 56.3818 92.9764 58.6597 90.8915C61.3594 88.3981 61.7637 84.2543 62.175 80.2434C62.5547 76.333 62.9168 72.6432 65.279 70.461L65.5603 70.7204C63.2999 72.8053 62.9449 76.4368 62.5688 80.2758C62.1715 84.3515 61.7602 88.5635 58.9585 91.151C56.5927 93.3299 52.5887 93.6638 48.3527 94.014C43.9868 94.3739 39.4941 94.7501 36.7909 97.2402Z" fill="#746BE9"/>
<path d="M52.6748 85.1068L52.3939 85.3659L57.159 89.7612L57.44 89.5021L52.6748 85.1068Z" fill="#746BE9"/>
<path d="M50.0712 89.1009L49.7903 89.3599L52.8279 92.1617L53.1087 91.9026L50.0712 89.1009Z" fill="#746BE9"/>
<path d="M67.0465 71.8471L66.7656 72.1062L71.5307 76.5014L71.8116 76.2424L67.0465 71.8471Z" fill="#746BE9"/>
<path d="M64.4454 75.8388L64.1646 76.0979L67.202 78.8996L67.483 78.6405L64.4454 75.8388Z" fill="#746BE9"/>
<path d="M56.9999 82.7118L56.7191 82.9709L59.7566 85.7727L60.0375 85.5136L56.9999 82.7118Z" fill="#746BE9"/>
<path d="M38.2946 98.3665L38.0138 98.6256L42.7789 103.021L43.0597 102.762L38.2946 98.3665Z" fill="#746BE9"/>
<path d="M42.6258 95.9693L42.3449 96.2284L45.3825 99.0301L45.6633 98.771L42.6258 95.9693Z" fill="#746BE9"/>
</g>
<path d="M98.5095 60.4289H26.3714C26.0258 60.428 25.6946 60.301 25.4503 60.0756C25.2058 59.8502 25.0682 59.5447 25.0673 59.2259C25.0682 58.9068 25.2057 58.6011 25.4501 58.3751C25.6943 58.1492 26.0255 58.0214 26.3714 58.0198H98.5095C98.8557 58.0214 99.1872 58.1491 99.4321 58.3749C99.6769 58.6007 99.8153 58.9065 99.8171 59.2259C99.8153 59.5451 99.6768 59.8505 99.4319 60.0758C99.1869 60.3011 98.8554 60.428 98.5095 60.4289Z" fill="#746BE9"/>
<path opacity="0.3" d="M98.5094 60.4289H81.302C80.956 60.428 80.6245 60.3011 80.3795 60.0758C80.1346 59.8505 79.9961 59.5451 79.9943 59.2259C79.9961 58.9065 80.1345 58.6007 80.3793 58.3749C80.6242 58.1491 80.9557 58.0214 81.302 58.0198H98.5094C98.8557 58.0214 99.1872 58.1491 99.4321 58.3749C99.6769 58.6007 99.8153 58.9065 99.8171 59.2259C99.8153 59.5451 99.6768 59.8505 99.4319 60.0758C99.1869 60.3011 98.8554 60.428 98.5094 60.4289Z" fill="black"/>
</g>
</g>
<defs>
<clipPath id="clip0_2_785">
<rect width="140" height="118" fill="white"/>
</clipPath>
</defs>
</svg>
