<svg width="140" height="124" viewBox="0 0 140 124" fill="none" xmlns="http://www.w3.org/2000/svg">
<g clip-path="url(#clip0_2_520)">
<mask id="mask0_2_520" style="mask-type:luminance" maskUnits="userSpaceOnUse" x="0" y="0" width="140" height="124">
<path d="M140 0H0V124H140V0Z" fill="white"/>
</mask>
<g mask="url(#mask0_2_520)">
<path d="M162.609 101.809H-22.6087V101.889H162.609V101.809Z" fill="#EBEBEB"/>
<path d="M41.558 103.86H32.9714V103.94H41.558V103.86Z" fill="#EBEBEB"/>
<path d="M147.336 105.583H126.343V105.664H147.336V105.583Z" fill="#EBEBEB"/>
<path d="M14.2088 105.583H-6.78372V105.664H14.2088V105.583Z" fill="#EBEBEB"/>
<path d="M65.1844 87.4705H-6.3429C-6.90324 87.4697 -7.4403 87.2759 -7.83617 86.9317C-8.23204 86.5875 -8.45438 86.1211 -8.45438 85.6349V-1.62486C-8.4495 -2.10836 -8.22501 -2.57067 -7.82966 -2.91135C-7.43432 -3.25205 -6.90005 -3.44362 -6.3429 -3.44444H65.1844C65.7453 -3.44444 66.2833 -3.25104 66.68 -2.90679C67.0767 -2.56254 67.2996 -2.09564 67.2996 -1.60878V85.6349C67.2996 86.1217 67.0767 86.5886 66.68 86.9328C66.2833 87.2771 65.7453 87.4705 65.1844 87.4705ZM-6.3429 -3.38015C-6.87868 -3.37929 -7.39218 -3.19399 -7.77068 -2.8649C-8.14918 -2.53581 -8.36178 -2.08983 -8.36177 -1.62486V85.6349C-8.36178 86.0998 -8.14918 86.5458 -7.77068 86.8749C-7.39218 87.204 -6.87868 87.3893 -6.3429 87.3901H65.1844C65.7202 87.3884 66.2335 87.203 66.6124 86.8741C66.9912 86.5453 67.205 86.0998 67.207 85.6349V-1.62486C67.205 -2.08987 66.9912 -2.53535 66.6124 -2.86416C66.2335 -3.19298 65.7202 -3.37846 65.1844 -3.38015H-6.3429Z" fill="#EBEBEB"/>
<path d="M145.313 87.4705H73.7821C73.2217 87.4688 72.6848 87.2749 72.2886 86.931C71.8923 86.5871 71.6688 86.1212 71.6669 85.6349V-1.62486C71.6728 -2.10865 71.8981 -2.57095 72.2941 -2.91156C72.69 -3.25216 73.2246 -3.44363 73.7821 -3.44444H145.313C145.87 -3.44277 146.403 -3.25083 146.797 -2.91023C147.192 -2.56963 147.416 -2.10781 147.421 -1.62486V85.6349C147.422 85.8755 147.367 86.1139 147.262 86.3363C147.156 86.5588 147.001 86.7611 146.805 86.9315C146.61 87.102 146.376 87.2373 146.121 87.3298C145.865 87.4223 145.59 87.4701 145.313 87.4705ZM73.7821 -3.38015C73.2463 -3.37846 72.7329 -3.19298 72.3541 -2.86416C71.9752 -2.53535 71.7615 -2.08987 71.7595 -1.62486V85.6349C71.7615 86.0998 71.9752 86.5453 72.3541 86.8741C72.7329 87.203 73.2463 87.3884 73.7821 87.3901H145.313C145.849 87.3884 146.363 87.203 146.741 86.8741C147.12 86.5453 147.334 86.0998 147.336 85.6349V-1.62486C147.334 -2.08987 147.12 -2.53535 146.741 -2.86416C146.363 -3.19298 145.849 -3.37846 145.313 -3.38015H73.7821Z" fill="#EBEBEB"/>
<path d="M56.7236 56.5536H4.57748V101.809H56.7236V56.5536Z" fill="#E0E0E0"/>
<path d="M47.4701 56.5536H-0.419678V101.809H47.4701V56.5536Z" fill="#EBEBEB"/>
<path d="M45.4808 59.0033H1.51028V71.3611H45.4808V59.0033Z" fill="#F5F5F5"/>
<path d="M45.4808 73.306H1.51028V85.6638H45.4808V73.306Z" fill="#F5F5F5"/>
<path d="M45.4808 87.0044H1.51028V99.3626H45.4808V87.0044Z" fill="#F5F5F5"/>
<path d="M23.9623 64.4975C23.9623 64.7645 23.8711 65.0255 23.7002 65.2476C23.5292 65.4696 23.2862 65.6427 23.0019 65.7449C22.7176 65.8471 22.4048 65.8739 22.103 65.8217C21.8012 65.7696 21.524 65.641 21.3064 65.4522C21.0888 65.2634 20.9406 65.0228 20.8806 64.7609C20.8206 64.4989 20.8514 64.2275 20.9691 63.9807C21.0869 63.734 21.2863 63.5232 21.5422 63.3747C21.798 63.2264 22.0989 63.1472 22.4065 63.1472C22.8192 63.1472 23.2149 63.2895 23.5067 63.5427C23.7984 63.7959 23.9623 64.1393 23.9623 64.4975Z" fill="#FAFAFA"/>
<path d="M23.5252 91.9327C23.5252 92.1237 23.4601 92.3102 23.338 92.4682C23.2158 92.6271 23.0423 92.7511 22.8392 92.8236C22.6362 92.8971 22.4127 92.9155 22.1971 92.8788C21.9816 92.8411 21.7836 92.7492 21.6282 92.6142C21.4727 92.4801 21.3669 92.3084 21.324 92.121C21.2811 91.9336 21.3031 91.7398 21.3872 91.5636C21.4714 91.3874 21.6138 91.2367 21.7965 91.1307C21.9793 91.0248 22.1942 90.9682 22.4139 90.9682C22.7087 90.9682 22.9914 91.0698 23.1997 91.2507C23.4082 91.4316 23.5252 91.6769 23.5252 91.9327Z" fill="#FAFAFA"/>
<path d="M23.5252 79.2985C23.5252 79.4892 23.4601 79.6757 23.338 79.8343C23.2158 79.9929 23.0423 80.1165 22.8392 80.1895C22.6362 80.2624 22.4127 80.2816 22.1971 80.2444C21.9816 80.2072 21.7836 80.1153 21.6282 79.9805C21.4727 79.8455 21.3669 79.6737 21.324 79.4866C21.2811 79.2996 21.3031 79.1057 21.3872 78.9294C21.4714 78.7531 21.6138 78.6025 21.7965 78.4966C21.9793 78.3906 22.1942 78.334 22.4139 78.334C22.7087 78.334 22.9914 78.4356 23.1997 78.6165C23.4082 78.7973 23.5252 79.0427 23.5252 79.2985Z" fill="#FAFAFA"/>
<path d="M63.2433 0.956635H2.61789V35.6348H63.2433V0.956635Z" fill="#E0E0E0"/>
<path d="M62.0727 0.956635H1.44733V35.6348H62.0727V0.956635Z" fill="#F0F0F0"/>
<path d="M59.8427 2.60905H3.18835V34.2557H59.8427V2.60905Z" fill="#FAFAFA"/>
<path d="M57.9312 3.05914L41.8136 34.2557H35.1902L50.6929 3.05914H57.9312Z" fill="white"/>
<path d="M44.7252 3.05914L28.3557 34.2557H20.5914L37.7055 3.05914H44.7252Z" fill="white"/>
<path d="M63.1617 0.956635H1.44733V3.05912H63.1617V0.956635Z" fill="#E0E0E0"/>
<path d="M63.1617 3.60243H1.44733V5.70492H63.1617V3.60243Z" fill="#E0E0E0"/>
<path d="M63.1617 6.24823H1.44733V8.35072H63.1617V6.24823Z" fill="#E0E0E0"/>
<path d="M63.1617 8.89081H1.44733V10.9933H63.1617V8.89081Z" fill="#E0E0E0"/>
<path d="M63.1617 11.5366H1.44733V13.6391H63.1617V11.5366Z" fill="#E0E0E0"/>
<path d="M65.0029 35.6348H0.124878V38.2517H65.0029V35.6348Z" fill="#E0E0E0"/>
<path d="M140.075 74.862V101.809H129.103L128.517 99.1109H85.8842V74.862H140.075Z" fill="#E0E0E0"/>
<path d="M132.559 74.862V101.809H129.103L128.517 99.1109H85.036L84.3469 101.809H78.3682V74.862H132.559Z" fill="#EBEBEB"/>
<path d="M129.503 76.7523H81.1204V86.0367H129.503V76.7523Z" stroke="#FAFAFA" stroke-miterlimit="10"/>
<path d="M129.503 87.8852H81.1204V97.2628H129.503V87.8852Z" stroke="#FAFAFA" stroke-miterlimit="10"/>
<path d="M139.101 -0.412872H117.345V25.1224H139.101V-0.412872Z" fill="#E0E0E0"/>
<path d="M138.012 -0.42894H116.257V25.1063H138.012V-0.42894Z" fill="#E6E6E6"/>
<path d="M136.882 0.529068H117.345V24.1869H136.882V0.529068Z" fill="#FAFAFA"/>
<path d="M134.889 19.0528H119.957V19.6058H134.889V19.0528Z" fill="#E0E0E0"/>
<path d="M134.889 20.4641H119.957V21.0171H134.889V20.4641Z" fill="#E0E0E0"/>
<path d="M134.889 21.8754H119.957V22.4284H134.889V21.8754Z" fill="#E0E0E0"/>
<path d="M132.756 9.27979C132.756 10.1945 132.443 11.0886 131.857 11.8493C131.272 12.6099 130.44 13.2028 129.466 13.5531C128.493 13.9035 127.422 13.9955 126.388 13.8175C125.354 13.6395 124.404 13.1996 123.658 12.5532C122.912 11.9068 122.404 11.0832 122.197 10.1863C121.991 9.28925 122.096 8.35933 122.498 7.51391C122.9 6.66848 123.583 5.94554 124.458 5.43645C125.334 4.92735 126.363 4.65495 127.417 4.65368C128.118 4.65283 128.812 4.77186 129.46 5.00397C130.107 5.23608 130.696 5.5767 131.191 6.00636C131.687 6.43602 132.081 6.94629 132.349 7.50797C132.617 8.06965 132.756 8.67174 132.756 9.27979Z" stroke="#E0E0E0" stroke-miterlimit="10"/>
<path d="M130.584 31.716H112.007V47.8383H130.584V31.716Z" fill="#E0E0E0"/>
<path d="M128.996 31.716H110.418V47.8383H128.996V31.716Z" fill="#EBEBEB"/>
<path d="M127.714 32.8315H111.703V46.726H127.714V32.8315Z" fill="#FAFAFA"/>
<path d="M123.954 36.0914H115.463V43.4597H123.954V36.0914Z" fill="#E0E0E0"/>
<path d="M69.2888 124.412C103.487 124.412 131.21 122.593 131.21 120.348C131.21 118.104 103.487 116.284 69.2888 116.284C35.0903 116.284 7.36688 118.104 7.36688 120.348C7.36688 122.593 35.0903 124.412 69.2888 124.412Z" fill="#F5F5F5"/>
<path d="M36.8461 98.8537H14.0569V121.175H36.8461V98.8537Z" fill="#746BE9"/>
<path d="M48.2406 98.8537H25.4515V121.175H48.2406V98.8537Z" fill="#746BE9"/>
<path opacity="0.7" d="M36.8461 98.8537H14.0569V121.175H36.8461V98.8537Z" fill="white"/>
<path opacity="0.2" d="M48.2369 98.8537H36.8202V121.175H48.2369V98.8537Z" fill="white"/>
<path d="M42.29 114.47C43.8915 114.438 45.1373 112.466 45.0726 110.066C45.0079 107.666 43.6572 105.747 42.0557 105.78C40.4543 105.812 39.2085 107.784 39.2732 110.184C39.3379 112.584 40.6885 114.503 42.29 114.47Z" fill="white"/>
<path d="M43.9214 109.392L42.6842 109.419L42.636 107.598L41.6803 107.617L41.7284 109.437L40.369 109.466L40.406 110.884L41.7655 110.855L41.8173 112.658L42.773 112.639L42.7249 110.836L43.9622 110.81L43.9214 109.392Z" fill="#746BE9"/>
<path d="M28.2261 98.8537H23.6104V102.86H28.2261V98.8537Z" fill="#F5F5F5"/>
<path d="M28.2261 106.856H23.6104V121.175H28.2261V106.856Z" fill="#F5F5F5"/>
<path d="M44.1473 80.5458H25.4515V98.8611H44.1473V80.5458Z" fill="#746BE9"/>
<path d="M53.4971 80.5458H34.8013V98.8611H53.4971V80.5458Z" fill="#746BE9"/>
<path opacity="0.7" d="M41.232 80.5458H25.4515V98.8611H41.232V80.5458Z" fill="white"/>
<path opacity="0.2" d="M53.4971 80.5458H41.232V98.8611H53.4971V80.5458Z" fill="white"/>
<path d="M49.7409 89.7498C49.7965 91.7173 48.7741 93.338 47.459 93.3637C46.144 93.3895 45.0364 91.8137 44.9845 89.8463C44.9327 87.8788 45.955 86.2489 47.2664 86.2489C48.5777 86.2489 49.689 87.7791 49.7409 89.7498Z" fill="white"/>
<path d="M48.8074 89.1937L47.7924 89.2129L47.7516 87.7181L46.9663 87.7341L47.0071 89.229L45.8883 89.2515L45.9217 90.4153L47.0367 90.3928L47.0775 91.8748L47.8628 91.8555L47.8221 90.3767L48.837 90.3574L48.8074 89.1937Z" fill="#746BE9"/>
<path d="M33.2899 80.5458H29.5003V98.8611H33.2899V80.5458Z" fill="#F5F5F5"/>
<path d="M65.6992 55.7403C65.6992 55.7403 60.2428 78.1668 59.7722 85.6059C59.3018 93.045 61.5393 111.739 61.5393 111.739L68.5109 112.703L69.8407 88.8465L72.8968 70.6603C72.8968 70.6603 76.0974 85.4484 77.4754 88.9108C78.8534 92.3727 85.4286 102.413 90.8591 110.433L95.5269 107.467C95.5269 107.467 86.8029 85.8181 85.3137 81.5906C83.8246 77.3631 84.8322 59.4406 80.2388 54.3515L65.6992 55.7403Z" fill="#746BE9"/>
<path opacity="0.4" d="M65.6992 55.7403C65.6992 55.7403 60.2428 78.1668 59.7722 85.6059C59.3018 93.045 61.5393 111.739 61.5393 111.739L68.5109 112.703L69.8407 88.8465L72.8968 70.6603C72.8968 70.6603 76.0974 85.4484 77.4754 88.9108C78.8534 92.3727 85.4286 102.413 90.8591 110.433L95.5269 107.467C95.5269 107.467 86.8029 85.8181 85.3137 81.5906C83.8246 77.3631 84.8322 59.4406 80.2388 54.3515L65.6992 55.7403Z" fill="white"/>
<path d="M66.9957 117.947C66.9624 118.127 63.3469 117.445 63.3469 117.445L63.1025 114.346L63.0062 113.131L66.7105 112.848C66.7105 112.848 66.7735 113.774 66.8402 114.835C66.9143 116.224 67.0365 117.841 66.9957 117.947Z" fill="#B55B52"/>
<path opacity="0.2" d="M66.8254 114.835L63.1025 114.346L63.0062 113.131L66.7105 112.848C66.7105 112.848 66.7587 113.774 66.8254 114.835Z" fill="black"/>
<path d="M60.6984 118.535L60.5503 118.358C60.5057 118.304 59.439 117.008 59.5945 116.372C59.609 116.31 59.6391 116.251 59.6826 116.201C59.7262 116.15 59.7821 116.109 59.8464 116.08C59.899 116.052 59.9591 116.037 60.0205 116.037C60.0818 116.037 60.1421 116.052 60.1946 116.08C60.7244 116.359 60.7058 118.121 60.7021 118.33L60.6984 118.535ZM60.0317 116.182C59.994 116.183 59.9571 116.192 59.9242 116.208C59.8819 116.228 59.8452 116.256 59.8165 116.29C59.7877 116.324 59.7677 116.363 59.7575 116.404C59.6427 116.841 60.2428 117.69 60.5354 118.082C60.5354 117.461 60.4391 116.375 60.1094 116.202C60.086 116.189 60.0591 116.182 60.0317 116.182Z" fill="#746BE9"/>
<path d="M60.3243 118.555L60.1094 118.478C59.8797 118.397 57.8646 117.668 57.7386 117.04C57.727 116.976 57.735 116.911 57.7617 116.851C57.7884 116.791 57.8328 116.737 57.8905 116.697C57.9512 116.647 58.0246 116.611 58.1045 116.592C58.1843 116.572 58.2685 116.569 58.3498 116.584C59.1648 116.706 60.1724 118.307 60.202 118.375L60.3243 118.555ZM58.2461 116.719C58.1557 116.719 58.0691 116.75 58.0053 116.806C57.9677 116.829 57.9384 116.862 57.9207 116.9C57.903 116.937 57.8977 116.978 57.9053 117.018C57.9868 117.43 59.2463 117.983 59.9427 118.259C59.6537 117.831 58.9055 116.815 58.3202 116.725L58.2461 116.719Z" fill="#746BE9"/>
<path d="M66.8772 117.773L63.1358 117.262C62.9034 117.231 62.6656 117.276 62.469 117.388C61.6016 117.896 60.6253 118.248 59.5982 118.423C57.9979 118.618 56.5755 118.346 56.4421 118.744C56.3664 119.003 56.3932 119.277 56.5182 119.521C56.6431 119.766 56.859 119.966 57.1311 120.091C57.6571 120.329 64.1027 121.197 66.8216 121.557C66.964 121.576 67.1094 121.566 67.2467 121.528C67.384 121.492 67.5097 121.427 67.6143 121.342C67.719 121.255 67.7996 121.15 67.8503 121.033C67.901 120.917 67.9204 120.791 67.907 120.667L67.6736 118.513C67.6536 118.331 67.5645 118.159 67.4205 118.025C67.2764 117.892 67.0854 117.803 66.8772 117.773Z" fill="#222221"/>
<path d="M60.6169 110.997L61.2022 113.671L68.8331 114.301L69.0591 111.594L60.6169 110.997Z" fill="#746BE9"/>
<path d="M97.8713 110.823C97.9756 110.984 94.6565 112.402 94.6565 112.402L92.4556 110.302L91.3035 109.2L92.4739 108.235L93.993 106.991C93.993 106.991 94.1487 107.145 94.4043 107.39L95.753 108.708C96.753 109.691 97.82 110.742 97.8713 110.823Z" fill="#B55B52"/>
<path opacity="0.2" d="M95.753 108.71L92.4556 110.302L91.3035 109.2L92.4739 108.235L94.4043 107.39L95.753 108.71Z" fill="black"/>
<path d="M93.5783 113.684L93.3852 113.607C93.3148 113.581 91.6887 112.935 91.533 112.366C91.5191 112.309 91.5209 112.25 91.5391 112.194C91.5574 112.138 91.5913 112.087 91.6374 112.045C91.687 111.989 91.7522 111.946 91.8269 111.921C91.9017 111.895 91.9835 111.887 92.0635 111.897C92.7226 111.989 93.4078 113.363 93.4852 113.52L93.5783 113.684ZM92.0035 112.032C91.9591 112.033 91.9148 112.043 91.8756 112.06C91.8356 112.078 91.8009 112.103 91.7739 112.135C91.7443 112.161 91.7235 112.193 91.7122 112.229C91.7017 112.264 91.7009 112.302 91.7113 112.337C91.8 112.697 92.7191 113.16 93.2487 113.391C92.993 112.915 92.467 112.105 92.0487 112.034L92.0035 112.032Z" fill="#746BE9"/>
<path d="M91.1409 114.359C90.8069 114.39 90.4722 114.315 90.1965 114.151C90.1261 114.089 90.0774 114.012 90.0556 113.928C90.0339 113.844 90.04 113.756 90.0739 113.674C90.1 113.575 90.153 113.482 90.2278 113.404C90.3035 113.326 90.3991 113.264 90.5069 113.224C91.4739 112.845 93.6339 113.8 93.7261 113.841L93.9113 113.925L93.7113 113.976C92.8739 114.188 92.0113 114.317 91.1409 114.359ZM91.0704 113.279C90.9009 113.274 90.7313 113.3 90.5739 113.356C90.4896 113.387 90.4148 113.436 90.3556 113.498C90.2974 113.559 90.2565 113.632 90.2365 113.71C90.2148 113.764 90.2104 113.823 90.2235 113.88C90.2365 113.936 90.2661 113.988 90.3113 114.031C90.7556 114.404 92.5669 114.079 93.4522 113.873C93 113.703 91.8556 113.279 91.0704 113.279Z" fill="#746BE9"/>
<path d="M97.6565 110.707L94.36 112.315C94.1539 112.414 93.9991 112.576 93.9261 112.771C93.6104 113.636 93.0965 114.438 92.4148 115.127C91.3035 116.147 89.9922 116.7 90.1739 117.082C90.2991 117.326 90.5148 117.526 90.787 117.65C91.0591 117.775 91.3722 117.816 91.6739 117.767C92.2557 117.67 97.9304 114.874 100.32 113.697C100.445 113.635 100.553 113.548 100.634 113.445C100.715 113.342 100.768 113.223 100.788 113.099C100.808 112.975 100.796 112.848 100.751 112.729C100.707 112.61 100.631 112.501 100.531 112.411L98.8087 110.845C98.6609 110.715 98.4678 110.632 98.26 110.607C98.0513 110.581 97.8391 110.617 97.6565 110.707Z" fill="#222221"/>
<path d="M88.1139 109.051L90.4887 110.839L96.9235 107.22L95.1635 104.975L88.1139 109.051Z" fill="#746BE9"/>
<path d="M73.4376 27.7393C73.6414 27.6396 77.8828 27.4724 81.9576 28.2151C86.0324 28.9577 78.7719 33.3073 78.7719 33.3073L76.4975 41.2093L72.3301 41.2415L71.8262 30.0218L73.4376 27.7393Z" fill="#EBEBEB"/>
<path d="M81.9539 28.2247L73.1154 40.3285L74.0933 27.6364C74.0933 27.6364 70.8816 27.7071 69.8851 27.9579C68.8887 28.2086 68.0329 30.2275 67.3181 32.9923C66.6031 35.757 65.5177 42.386 65.5177 42.386L60.439 79.3563C60.439 79.3563 77.8014 82.5711 85.9805 80.0732C85.9805 80.0732 82.9059 46.8674 83.4135 44.8164C83.9209 42.7653 85.562 35.2619 85.562 35.2619C85.562 35.2619 87.8365 31.5167 86.8474 30.414C85.8583 29.3113 81.9539 28.2247 81.9539 28.2247Z" fill="#746BE9"/>
<path d="M71.5336 51.5128L72.793 80.8512" stroke="white" stroke-width="0.75" stroke-linecap="round" stroke-linejoin="round"/>
<path d="M70.4604 28.5876L39.8188 37.6507L47.5362 57.3021L78.1778 48.2389L70.4604 28.5876Z" fill="#746BE9"/>
<path d="M70.4594 28.588L47.5331 57.3027L43.2287 55.6085L35.5125 35.9595L66.1549 26.897L70.4594 28.588Z" fill="#746BE9"/>
<path opacity="0.7" d="M70.4594 28.588L39.8169 37.6505L47.5331 57.3027L43.2287 55.6085L35.5125 35.9595L66.1549 26.897L70.4594 28.588Z" fill="white"/>
<path opacity="0.46" d="M70.4604 28.5876L39.8188 37.6507L47.5362 57.3021L78.1778 48.2389L70.4604 28.5876Z" fill="white"/>
<path d="M63.9048 48.7593C67.5989 46.1363 68.1434 41.4109 65.1209 38.205C62.0985 34.9991 56.6536 34.5266 52.9595 37.1496C49.2655 39.7726 48.7209 44.4979 51.7434 47.7038C54.7658 50.9097 60.2107 51.3823 63.9048 48.7593Z" fill="#FAFAFA"/>
<path d="M63.6211 40.3542L60.0982 41.354L58.9648 38.3514L56.2421 39.1261L57.3756 42.1288L53.5009 43.2282L54.3788 45.5654L58.2572 44.4627L59.3796 47.4396L62.1023 46.6649L60.9799 43.688L64.5028 42.6881L63.6211 40.3542Z" fill="#746BE9"/>
<path d="M74.0748 12.0317V7.35412C74.0748 7.35412 79.9758 5.0491 85.6176 9.75559L83.0245 14.2949L74.0748 12.0317Z" fill="#746BE9"/>
<path d="M79.7424 8.03903L79.0737 7.92444L78.6697 9.70011L79.3384 9.81465L79.7424 8.03903Z" fill="white"/>
<path d="M78.2572 8.40218L78.1251 8.9825L80.1712 9.33316L80.3032 8.75279L78.2572 8.40218Z" fill="white"/>
<path d="M82.5948 20.6667C81.5169 22.0137 80.5277 21.8272 80.5277 21.8272C80.2036 22.3387 79.7814 22.7985 79.2794 23.1871C79.1016 27.3888 80.5277 28.5237 80.5277 28.5237C79.046 30.5072 77.2161 30.4526 75.3639 29.8739C73.5117 29.2952 73.4154 28.035 73.4154 28.035C75.0898 27.3213 75.112 26.2026 74.8712 25.4374C74.7753 25.1413 74.6333 24.858 74.4489 24.5952C71.3039 23.8461 70.3963 21.2293 70.6112 18.7603C70.7442 17.2627 71.1675 15.7955 71.8633 14.4203L73.7155 11.9867L80.9575 13.2726L81.3464 16.6031L79.8647 19.0721C82.4762 17.3972 83.6839 19.3036 82.5948 20.6667Z" fill="#B55B52"/>
<path d="M74.0748 20.6345C73.8988 20.6353 73.723 20.6246 73.5488 20.6024C73.532 20.5998 73.516 20.5945 73.5016 20.5866C73.4872 20.5786 73.4747 20.5683 73.465 20.5563C73.4551 20.5441 73.4482 20.5305 73.4444 20.516C73.4407 20.5016 73.4403 20.4867 73.4432 20.4721C73.4462 20.4576 73.4524 20.4437 73.4615 20.4312C73.4705 20.4187 73.4824 20.4079 73.4964 20.3994C73.5103 20.3908 73.526 20.3849 73.5426 20.3816C73.5593 20.3783 73.5764 20.378 73.5932 20.3805C73.5932 20.3805 75.4454 20.6602 76.2418 19.4708C76.2504 19.4579 76.2617 19.4466 76.2752 19.4375C76.2888 19.4284 76.3043 19.4218 76.3208 19.4178C76.3373 19.414 76.3545 19.413 76.3715 19.4149C76.3884 19.4167 76.4048 19.4216 76.4197 19.429C76.4345 19.4363 76.4475 19.4462 76.458 19.458C76.4684 19.4697 76.4761 19.4832 76.4805 19.4975C76.485 19.5118 76.4862 19.5268 76.484 19.5415C76.4818 19.5562 76.4764 19.5704 76.4678 19.5833C75.8566 20.4899 74.7268 20.6345 74.0748 20.6345Z" fill="#263238"/>
<path d="M73.5673 19.1654C73.645 19.1654 73.9599 17.1143 73.9599 17.1143L72.2782 18.8696C72.4515 19.0029 72.6583 19.099 72.8822 19.1504C73.1061 19.2018 73.3407 19.2069 73.5673 19.1654Z" fill="#A02724"/>
<path d="M76.1715 17.1561C76.1307 17.4101 75.9492 17.5997 75.7676 17.5772C75.5862 17.5547 75.4713 17.3297 75.5121 17.0757C75.5528 16.8218 75.7343 16.6289 75.9158 16.6514C76.0974 16.6739 76.2122 16.8989 76.1715 17.1561Z" fill="#263238"/>
<path d="M72.593 16.8732C72.5523 17.1272 72.3708 17.3168 72.1893 17.2943C72.0077 17.2718 71.8929 17.05 71.9336 16.7928C71.9744 16.5356 72.1559 16.3492 72.3375 16.3717C72.519 16.3942 72.6523 16.616 72.593 16.8732Z" fill="#263238"/>
<path d="M77.6235 16.0052C77.5908 16.0048 77.5588 15.9965 77.5314 15.9812C77.5039 15.9659 77.4819 15.9441 77.468 15.9184C77.0271 15.105 76.4048 15.2111 76.3788 15.2143C76.3359 15.2198 76.2921 15.2112 76.256 15.1902C76.22 15.1691 76.1943 15.1371 76.1841 15.1003C76.1739 15.0637 76.1798 15.025 76.2008 14.992C76.2217 14.959 76.2562 14.9339 76.2974 14.9218C76.3344 14.9218 77.2161 14.7418 77.7791 15.7898C77.7891 15.8079 77.7948 15.8275 77.7959 15.8477C77.7969 15.8677 77.7934 15.8877 77.7854 15.9065C77.7775 15.9255 77.7654 15.9427 77.7496 15.9574C77.7339 15.9722 77.715 15.9841 77.6939 15.9923C77.6718 16.001 77.6478 16.0054 77.6235 16.0052Z" fill="#263238"/>
<path d="M71.4558 15.4651C71.4338 15.4653 71.4121 15.4616 71.3917 15.4544C71.3714 15.4473 71.3529 15.4367 71.3373 15.4233C71.3209 15.4095 71.3079 15.393 71.299 15.3748C71.2902 15.3566 71.2856 15.337 71.2856 15.3172C71.2856 15.2975 71.2902 15.2778 71.299 15.2596C71.3079 15.2414 71.3209 15.2249 71.3373 15.2111C71.3817 15.1725 72.3745 14.2917 73.6265 14.7257C73.648 14.7328 73.6676 14.7435 73.6842 14.7573C73.7009 14.771 73.7143 14.7874 73.7235 14.8057C73.7329 14.8239 73.7379 14.8435 73.7384 14.8635C73.7389 14.8834 73.7349 14.9032 73.7266 14.9218C73.7085 14.9591 73.6743 14.9887 73.6314 15.0043C73.5884 15.0199 73.5402 15.0204 73.4969 15.0054C72.456 14.6453 71.6002 15.4104 71.5891 15.4201C71.5723 15.4359 71.5515 15.4482 71.5285 15.456C71.5054 15.4638 71.4805 15.4669 71.4558 15.4651Z" fill="#263238"/>
<path opacity="0.2" d="M76.064 24.4248C75.7743 24.8389 75.3676 25.1819 74.8823 25.4214C74.7864 25.1253 74.6443 24.8419 74.4601 24.5791C75.0012 24.6244 75.5474 24.5718 76.064 24.4248Z" fill="black"/>
<path d="M80.6129 13.5555C80.6129 13.5555 74.3637 15.0054 71.8744 14.237C69.3851 13.4687 70.2556 10.8133 70.5927 10.5625C71.0521 10.2217 72.0522 11.6298 72.0522 11.6298C72.0522 11.6298 71.2335 10.1221 71.8744 9.79094C72.5153 9.45982 72.6153 11.7198 74.949 11.4819C77.2828 11.244 83.7505 9.717 84.1321 13.2469C84.361 15.3616 83.9672 17.4922 82.9875 19.4386C82.9875 19.4386 82.6429 17.5097 79.8906 19.0432C79.8906 19.0432 78.9756 18.4774 79.8906 17.6994C81.4834 16.3524 80.9278 14.581 80.6129 13.5555Z" fill="#263238"/>
<path d="M79.9499 13.2726C79.9499 13.2726 78.8645 16.3524 80.8611 16.2045C82.8578 16.0566 81.6316 12.8418 81.6316 12.8418L79.9499 13.2726Z" fill="#263238"/>
<path d="M74.7009 11.6652C74.7009 11.6652 73.3969 10.8326 73.7303 10.2282C74.0637 9.62378 74.5823 11.0833 77.179 10.8165C79.7758 10.5496 82.8578 10.3471 83.4283 11.842C83.9988 13.3369 78.2422 12.1988 78.2422 12.1988L74.6934 12.8611L74.7009 11.6652Z" fill="#263238"/>
<path d="M74.2488 48.462L71.741 47.8479C71.741 47.8479 68.7775 47.6904 68.5294 48.6709C68.2812 49.6514 68.1589 51.3424 69.3369 51.4774C70.5149 51.6125 74.1822 51.4132 74.1822 51.4132L74.2488 48.462Z" fill="#B55B52"/>
<path d="M82.8059 33.5259L86.8474 30.3947C86.8474 30.3947 91.8522 40.0391 92.1339 43.7458C92.4148 47.4525 89.1148 49.1178 86.3176 49.7415C83.5208 50.3651 74.2526 52.0272 74.2526 52.0272L73.7525 47.5522C73.7525 47.5522 83.6246 46.0894 87.4252 44.5752C87.4104 44.5849 83.9913 35.9531 82.8059 33.5259Z" fill="#746BE9"/>
<path opacity="0.1" d="M74.2526 52.0368L83.5949 50.304L83.6209 51.5257L74.2526 52.0368Z" fill="black"/>
<path d="M75.3713 29.8578L76.4344 32.2947C78.1234 31.2154 79.6777 29.986 81.0723 28.6265L79.5313 26.3987C79.5313 26.3987 78.1199 28.8355 75.3713 29.8578Z" fill="#FAFAFA"/>
<path d="M74.5934 27.1927C74.6241 28.1199 74.8897 29.0298 75.3713 29.8578L74.2118 32.1082C73.6249 31.5923 73.1775 30.9696 72.902 30.2851C72.6265 29.6006 72.5298 28.8716 72.619 28.1508L74.5934 27.1927Z" fill="#FAFAFA"/>
</g>
</g>
<defs>
<clipPath id="clip0_2_520">
<rect width="140" height="124" fill="white"/>
</clipPath>
</defs>
</svg>
