<svg width="137" height="130" viewBox="0 0 137 130" fill="none" xmlns="http://www.w3.org/2000/svg">
<g clip-path="url(#clip0_2_220)">
<mask id="mask0_2_220" style="mask-type:luminance" maskUnits="userSpaceOnUse" x="0" y="0" width="137" height="130">
<path d="M137 0H0V130H137V0Z" fill="white"/>
</mask>
<g mask="url(#mask0_2_220)">
<path d="M154.238 113.893H-19.5066V113.983H154.238V113.893Z" fill="#EBEBEB"/>
<path d="M136.829 119.682H125.32V119.771H136.829V119.682Z" fill="#EBEBEB"/>
<path d="M75.4348 118.555H70.9556V118.646H75.4348V118.555Z" fill="#EBEBEB"/>
<path d="M102 118.937H92.5694V119.027H102V118.937Z" fill="#EBEBEB"/>
<path d="M124.973 116.343H105.475V116.433H124.973V116.343Z" fill="#EBEBEB"/>
<path d="M7.9417 120.505H-1.27722V120.595H7.9417V120.505Z" fill="#EBEBEB"/>
<path d="M19.0266 120.505H11.0343V120.595H19.0266V120.505Z" fill="#EBEBEB"/>
<path d="M47.1452 118.512H26.0146V118.602H47.1452V118.512Z" fill="#EBEBEB"/>
<path d="M62.8485 97.8472H-4.24833C-4.77395 97.8462 -5.27776 97.6295 -5.64911 97.2445C-6.02046 96.8591 -6.229 96.3371 -6.229 95.7929V-1.85867C-6.22447 -2.39975 -6.01384 -2.91712 -5.64299 -3.29838C-5.27214 -3.67965 -4.77095 -3.89403 -4.24833 -3.89496H62.8485C63.3748 -3.89496 63.8796 -3.67852 64.2516 -3.29328C64.6236 -2.90802 64.8328 -2.38551 64.8328 -1.84069V95.7929C64.8328 96.3381 64.6236 96.8606 64.2516 97.2455C63.8796 97.631 63.3748 97.8472 62.8485 97.8472ZM-4.24833 -3.82301C-4.7509 -3.82205 -5.23262 -3.61467 -5.58769 -3.24639C-5.94276 -2.87811 -6.14213 -2.37902 -6.14213 -1.85867V95.7929C-6.14213 96.3134 -5.94276 96.8122 -5.58769 97.1805C-5.23262 97.5489 -4.7509 97.7565 -4.24833 97.7575H62.8485C63.3516 97.7565 63.8334 97.5489 64.189 97.181C64.5447 96.8127 64.7447 96.3139 64.7457 95.7929V-1.85867C64.7447 -2.37936 64.5447 -2.87843 64.189 -3.24661C63.8334 -3.61479 63.3516 -3.82205 62.8485 -3.82301H-4.24833Z" fill="#EBEBEB"/>
<path d="M138.014 97.8472H70.9139C70.3876 97.8462 69.8836 97.6295 69.5116 97.2445C69.1401 96.8596 68.9305 96.3376 68.9296 95.7929V-1.85867C68.9351 -2.40008 69.1465 -2.91744 69.518 -3.29861C69.8891 -3.67978 70.3908 -3.89404 70.9139 -3.89496H138.014C138.536 -3.89308 139.036 -3.67829 139.407 -3.29712C139.777 -2.91595 139.987 -2.39913 139.991 -1.85867V95.7929C139.991 96.3366 139.783 96.8581 139.412 97.243C139.042 97.628 138.539 97.8452 138.014 97.8472ZM70.9139 -3.82301C70.4108 -3.82205 69.929 -3.61479 69.5733 -3.24661C69.2177 -2.87843 69.0176 -2.37936 69.0167 -1.85867V95.7929C69.0176 96.3139 69.2177 96.8127 69.5733 97.181C69.929 97.5489 70.4108 97.7565 70.9139 97.7575H138.014C138.517 97.7565 138.999 97.5489 139.355 97.181C139.711 96.8127 139.911 96.3139 139.912 95.7929V-1.85867C139.911 -2.37936 139.711 -2.87843 139.355 -3.24661C138.999 -3.61479 138.517 -3.82205 138.014 -3.82301H70.9139Z" fill="#EBEBEB"/>
<path d="M135.589 4.3797H82.9962V113.893H135.589V4.3797Z" fill="#FAFAFA"/>
<path d="M118.673 18.4106H99.9084V45.5119H118.673V18.4106Z" fill="white"/>
<path d="M135.585 113.893H135.912V4.3797H135.585V113.893Z" fill="#EBEBEB"/>
<path d="M132.979 113.893H132.631V7.43771H85.9498V113.893H85.6024V7.07794H132.979V113.893Z" fill="#E0E0E0"/>
<path d="M128.938 61.162H121.686C121.541 61.1705 121.396 61.1484 121.259 61.0965C121.123 61.0451 120.998 60.9655 120.892 60.8622C120.787 60.7589 120.702 60.6344 120.645 60.4964C120.588 60.3583 120.558 60.2096 120.558 60.059C120.558 59.9088 120.588 59.7602 120.645 59.6221C120.702 59.4841 120.787 59.3596 120.892 59.2563C120.998 59.153 121.123 59.0729 121.259 59.0215C121.396 58.9701 121.541 58.9479 121.686 58.9565H128.938C129.083 58.9479 129.228 58.9701 129.364 59.0215C129.501 59.0729 129.626 59.153 129.731 59.2563C129.837 59.3596 129.921 59.4841 129.978 59.6221C130.036 59.7602 130.065 59.9088 130.065 60.059C130.065 60.2096 130.036 60.3583 129.978 60.4964C129.921 60.6344 129.837 60.7589 129.731 60.8622C129.626 60.9655 129.501 61.0451 129.364 61.0965C129.228 61.1484 129.083 61.1705 128.938 61.162ZM121.686 59.3163C121.587 59.3092 121.488 59.3228 121.395 59.3571C121.302 59.3914 121.217 59.4448 121.145 59.5143C121.073 59.5843 121.015 59.6685 120.976 59.7622C120.937 59.8559 120.916 59.9567 120.916 60.059C120.916 60.1613 120.937 60.2626 120.976 60.3558C121.015 60.4495 121.073 60.5341 121.145 60.6037C121.217 60.6732 121.302 60.7271 121.395 60.7609C121.488 60.7952 121.587 60.8093 121.686 60.8022H128.938C129.036 60.8093 129.135 60.7952 129.228 60.7609C129.321 60.7271 129.406 60.6732 129.478 60.6037C129.55 60.5341 129.608 60.4495 129.647 60.3558C129.687 60.2626 129.707 60.1613 129.707 60.059C129.707 59.9567 129.687 59.8559 129.647 59.7622C129.608 59.6685 129.55 59.5843 129.478 59.5143C129.406 59.4448 129.321 59.3914 129.228 59.3571C129.135 59.3228 129.036 59.3092 128.938 59.3163H121.686Z" fill="#E0E0E0"/>
<path d="M48.8587 35.1182H-0.0575562V39.4642H48.8587V35.1182Z" fill="#FAFAFA"/>
<path d="M48.8551 39.4642H0.567932V113.893H48.8551V39.4642Z" fill="#FAFAFA"/>
<path d="M48.8587 113.893H52.403V35.1218H48.8587V113.893Z" fill="#F0F0F0"/>
<path d="M23.3007 43.7814H4.62311V87.7631H23.3007V43.7814Z" fill="#F0F0F0"/>
<path d="M17.9633 43.7814H13.5814L9.96057 87.7596H14.3389L17.9633 43.7814Z" fill="white"/>
<path d="M44.1953 110.511H5.23119C5.01213 110.51 4.80232 110.419 4.6474 110.259C4.49252 110.099 4.40509 109.882 4.40417 109.655V91.3069C4.40509 91.0801 4.49252 90.8624 4.6474 90.7022C4.80232 90.542 5.01213 90.4513 5.23119 90.4503H44.1953C44.4143 90.4513 44.6241 90.542 44.7791 90.7022C44.9339 90.8624 45.0214 91.0801 45.0223 91.3069V109.655C45.0214 109.882 44.9339 110.099 44.7791 110.259C44.6241 110.419 44.4143 110.51 44.1953 110.511ZM5.23119 90.8821C5.12735 90.8831 5.02801 90.9264 4.95456 91.0025C4.88112 91.0781 4.83943 91.1814 4.83852 91.2887V109.637C4.83943 109.744 4.88112 109.847 4.95456 109.923C5.02801 109.999 5.12735 110.042 5.23119 110.043H44.1953C44.2991 110.042 44.3985 109.999 44.4719 109.923C44.5453 109.847 44.587 109.744 44.5879 109.637V91.2887C44.587 91.1814 44.5453 91.0781 44.4719 91.0025C44.3985 90.9264 44.2991 90.8831 44.1953 90.8821H5.23119Z" fill="#F0F0F0"/>
<path d="M41.6517 94.8647C41.4714 94.8647 41.2953 94.8093 41.1455 94.7055C40.9957 94.6022 40.879 94.4546 40.8102 94.2822C40.7414 94.1094 40.7235 93.9199 40.759 93.737C40.7944 93.5541 40.8815 93.3858 41.0091 93.2543C41.1368 93.1228 41.2994 93.0331 41.4762 92.9973C41.653 92.9611 41.8362 92.9807 42.0025 93.0523C42.1688 93.1243 42.3107 93.2458 42.4103 93.401C42.5099 93.5567 42.5627 93.7391 42.5621 93.926C42.5621 94.0494 42.5385 94.1719 42.4927 94.2858C42.4469 94.4001 42.3798 94.5039 42.2952 94.5911C42.2106 94.6783 42.1102 94.7473 41.9998 94.7942C41.8894 94.8415 41.7711 94.8652 41.6517 94.8647ZM41.6517 93.4256C41.5575 93.4256 41.4654 93.4549 41.3872 93.5088C41.3089 93.5627 41.2479 93.6398 41.2118 93.73C41.1758 93.8202 41.1663 93.9189 41.1847 94.0147C41.2031 94.1104 41.2485 94.1981 41.315 94.2671C41.3816 94.3361 41.4664 94.383 41.5588 94.4022C41.6511 94.4208 41.7468 94.4112 41.8338 94.3739C41.9208 94.3367 41.9951 94.2737 42.0475 94.1925C42.0998 94.1114 42.1277 94.0162 42.1277 93.9184C42.1273 93.8544 42.1146 93.791 42.0904 93.7315C42.0662 93.6725 42.031 93.6186 41.9868 93.5738C41.9426 93.5284 41.8903 93.4932 41.8327 93.469C41.7753 93.4448 41.7137 93.4322 41.6517 93.4327V93.4256Z" fill="#F0F0F0"/>
<path d="M5.10615 43.7814H4.62311V87.7631H5.10615V43.7814Z" fill="#EBEBEB"/>
<path d="M44.8034 43.7814H26.1258V87.7631H44.8034V43.7814Z" fill="#F0F0F0"/>
<path d="M34.7783 43.7814H32.9748L29.354 87.7596H31.1575L34.7783 43.7814Z" fill="white"/>
<path d="M37.4922 43.7814H35.6887L32.0645 87.7596H33.8679L37.4922 43.7814Z" fill="white"/>
<path d="M26.6088 43.7814H26.1258V87.7631H26.6088V43.7814Z" fill="#EBEBEB"/>
<path d="M48.8551 39.4642H0.567932V40.0147H48.8551V39.4642Z" fill="#EBEBEB"/>
<path d="M58.4459 3.55223H8.2926V28.6172H58.4459V3.55223Z" fill="#FAFAFA"/>
<path d="M39.81 25.3937C38.032 25.3937 36.294 24.8478 34.8156 23.8252C33.3373 22.8025 32.1851 21.3489 31.5047 19.6482C30.8243 17.9476 30.6463 16.0762 30.9931 14.2708C31.34 12.4654 32.1962 10.807 33.4534 9.50537C34.7106 8.20371 36.3124 7.31729 38.0562 6.95818C39.8 6.59906 41.6075 6.78338 43.2501 7.4878C44.8928 8.19227 46.2965 9.38519 47.2845 10.9157C48.2721 12.4463 48.7997 14.2457 48.7997 16.0865C48.7961 18.5538 47.8475 20.9189 46.1627 22.6635C44.4774 24.4081 42.193 25.3899 39.81 25.3937ZM39.81 7.13912C38.1007 7.13912 36.4299 7.66385 35.0087 8.64702C33.5875 9.63018 32.4798 11.0276 31.8257 12.6625C31.1716 14.2974 31.0005 16.0965 31.3339 17.8321C31.6674 19.5677 32.4905 21.162 33.6991 22.4133C34.9077 23.6646 36.4476 24.5168 38.124 24.862C39.8003 25.2073 41.538 25.0301 43.1172 24.3529C44.6963 23.6757 46.0461 22.5288 46.9956 21.0574C47.945 19.5861 48.4522 17.8562 48.4522 16.0865C48.4495 13.7144 47.5377 11.4403 45.9177 9.7629C44.2977 8.08555 42.1011 7.14199 39.81 7.13912Z" fill="white"/>
<path d="M49.849 9.4776C50.2718 8.30387 50.3471 7.02609 50.0645 5.80797L49.1263 5.77557C49.3355 6.95817 49.1935 8.17861 48.7194 9.2761C45.3038 9.24733 44.6991 12.9781 41.9713 12.1542C40.9976 11.8989 39.9824 11.8609 38.9934 12.0427C38.582 12.1079 38.1756 12.2029 37.7771 12.327C34.1633 13.3019 29.7501 15.6332 28.9648 19.1338L29.8023 19.2993C29.8023 19.2993 30.3478 16.7017 33.9721 14.8489C33.6276 15.3179 33.3717 15.8501 33.2181 16.4175C30.9907 24.9008 46.096 23.4078 50.1026 20.4469C55.0024 16.8456 52.9138 10.7296 49.849 9.4776Z" fill="#EBEBEB"/>
<path d="M25.8999 6.39081H10.7633V7.39095H25.8999V6.39081Z" fill="#EBEBEB"/>
<path d="M22.0776 8.94153H10.7633V9.94167H22.0776V8.94153Z" fill="#EBEBEB"/>
<path d="M25.8999 14.0394H10.7633V15.0396H25.8999V14.0394Z" fill="#EBEBEB"/>
<path d="M18.0814 16.5902H10.7633V17.5904H18.0814V16.5902Z" fill="#EBEBEB"/>
<path d="M24.4787 16.5902H19.2664V17.5904H24.4787V16.5902Z" fill="#EBEBEB"/>
<path d="M22.9463 19.1409H10.7633V20.1411H22.9463V19.1409Z" fill="#EBEBEB"/>
<path d="M25.8999 21.6881H10.7633V22.6883H25.8999V21.6881Z" fill="#EBEBEB"/>
<path d="M74.4582 113.893H60.173C60.011 113.893 59.855 113.832 59.7339 113.721C59.6123 113.61 59.5338 113.458 59.5125 113.292L56.6287 89.5297C56.6174 89.4324 56.626 89.3347 56.6536 89.2415C56.6818 89.1483 56.7285 89.0626 56.7911 88.989C56.8532 88.916 56.9299 88.8575 57.0156 88.8172C57.1014 88.7774 57.1944 88.7562 57.2887 88.7557H77.3425C77.4364 88.7562 77.5298 88.7774 77.6155 88.8172C77.7013 88.8575 77.778 88.916 77.8401 88.989C77.9027 89.0626 77.9494 89.1483 77.9771 89.2415C78.0052 89.3347 78.0139 89.4324 78.0025 89.5297L75.1183 113.292C75.0983 113.458 75.0198 113.611 74.8982 113.722C74.7767 113.833 74.6202 113.893 74.4582 113.893Z" fill="#EBEBEB"/>
<path opacity="0.7" d="M56.3193 88.2665C55.7981 88.6555 56.2113 94.6707 56.8959 95.9979C57.5804 97.3257 61.6673 96.1854 66.5457 95.739C71.4247 95.293 77.2694 97.0772 77.523 95.9979C77.7766 94.9186 79.2015 89.0475 78.4543 88.2665C77.8569 87.6407 70.6707 87.6407 67.512 88.015C64.3533 88.3889 57.4312 87.4426 56.3193 88.2665Z" fill="#F5F5F5"/>
<path d="M67.3659 130.14C104.576 130.14 134.741 128.317 134.741 126.067C134.741 123.818 104.576 121.995 67.3659 121.995C30.1558 121.995 -0.00891113 123.818 -0.00891113 126.067C-0.00891113 128.317 30.1558 130.14 67.3659 130.14Z" fill="#F5F5F5"/>
<path d="M37.4818 12.791C34.8582 10.2403 30.532 9.75101 28.9127 12.4061C27.2934 15.0612 28.2177 17.8674 24.8957 20.8103C22.637 22.8214 24.3119 28.9842 37.1968 28.4194C43.2953 28.1531 41.2312 21.5838 41.0679 18.479C40.9045 15.3742 40.8941 11.575 37.4818 12.791Z" fill="#263238"/>
<path d="M32.405 121.096L29.2845 121.221L29.2255 117.725L32.3459 117.599L32.405 121.096Z" fill="#B55B52"/>
<path d="M29.0899 120.552H32.6169C32.679 120.551 32.7395 120.573 32.7882 120.613C32.837 120.653 32.8709 120.709 32.8845 120.772L33.4961 123.668C33.5101 123.738 33.5087 123.811 33.4918 123.881C33.4751 123.951 33.4433 124.016 33.399 124.072C33.3546 124.127 33.2988 124.172 33.2356 124.202C33.1724 124.233 33.1035 124.248 33.0339 124.247C31.8003 124.226 31.2026 124.15 29.6494 124.15C28.6938 124.15 26.2161 124.254 24.8957 124.254C23.5752 124.254 23.4084 122.901 23.947 122.779C26.3795 122.229 27.7937 121.473 28.5721 120.75C28.7149 120.62 28.8995 120.549 29.0899 120.552Z" fill="#263238"/>
<path opacity="0.2" d="M29.2255 117.728L29.2532 119.354L32.3737 119.214L32.3459 117.602L29.2255 117.728Z" fill="black"/>
<path d="M24.6246 50.6637C23.9297 54.5421 24.7289 73.4984 25.7887 81.8698C27.1996 92.9868 28.659 118.8 28.659 118.8L32.8288 118.541C32.8288 118.541 33.8713 91.3572 33.02 82.4311C33.503 70.9437 34.6984 50.8799 34.6984 50.8799L24.6246 50.6637Z" fill="#746BE9"/>
<path opacity="0.2" d="M34.0069 63.3816C34.1528 60.4712 32.1617 57.8843 31.359 63.3816C30.8516 66.8749 31.901 72.998 33.2771 77.3223C33.4891 72.8217 33.7601 67.8101 34.0069 63.3816Z" fill="black"/>
<path d="M55.3321 110.22L53.303 112.227L50.5544 109.176L52.5803 107.172L55.3321 110.22Z" fill="#B55B52"/>
<path d="M52.7714 112.281L54.8563 109.324C54.8903 109.273 54.9421 109.236 55.0006 109.223C55.0595 109.21 55.1208 109.22 55.1725 109.252L57.6049 110.734C57.6648 110.775 57.7161 110.829 57.7555 110.891C57.7955 110.953 57.8222 111.023 57.8354 111.096C57.8481 111.169 57.8467 111.244 57.8313 111.317C57.8154 111.389 57.7859 111.458 57.7437 111.518C57.0039 112.537 56.5974 112.986 55.6833 114.289C55.1203 115.087 54.4707 116.188 53.6959 117.296C52.9206 118.404 51.8609 117.609 52.0905 117.073C53.1329 114.667 52.6915 113.997 52.6357 112.85C52.618 112.65 52.6657 112.45 52.7714 112.281Z" fill="#263238"/>
<path opacity="0.2" d="M50.5544 109.18L51.972 110.748L53.9839 108.727L52.5835 107.172L50.5544 109.18Z" fill="black"/>
<path d="M29.4617 50.768C29.4617 50.768 33.9513 75.2322 35.1188 84.7303C35.8138 90.4039 51.1382 110.817 51.1382 110.817L53.7548 107.964C53.7548 107.964 48.1464 93.019 41.391 84.1544C41.1235 73.7644 42.2632 56.6609 38.3852 50.959L29.4617 50.768Z" fill="#746BE9"/>
<path d="M25.5212 32.0098C25.5212 34.1109 25.4274 36.1724 25.2779 38.2554C25.1285 40.3384 24.9304 42.4107 24.6073 44.4973L24.5482 44.8895L24.4683 45.332C24.408 45.6222 24.342 45.9064 24.2702 46.1847C24.1173 46.7351 23.9227 47.264 23.749 47.7748C23.3688 48.7765 22.9373 49.7564 22.4563 50.7106C21.5092 52.5759 20.4302 54.3667 19.2281 56.0673C19.1012 56.2436 18.9159 56.3656 18.7077 56.4089C18.4996 56.4528 18.2832 56.415 18.1001 56.3036C17.9171 56.1917 17.7802 56.0144 17.7158 55.8048C17.6515 55.5952 17.6641 55.3684 17.7513 55.1679V55.1467C18.5679 53.3186 19.3602 51.4442 20.0516 49.588C20.3991 48.6599 20.7084 47.7209 20.9725 46.7999C21.0976 46.3394 21.2088 45.8824 21.2957 45.4364C21.3409 45.2133 21.3722 44.9939 21.4034 44.778L21.4382 44.4578L21.4729 44.098C21.6501 42.1049 21.7543 40.083 21.8517 38.0575C21.949 36.032 21.9941 33.9886 22.0497 31.9811V31.9631C22.0571 31.486 22.2472 31.0315 22.5783 30.6995C22.9093 30.3676 23.3542 30.1854 23.815 30.193C24.2758 30.2007 24.7148 30.3975 25.0354 30.7402C25.356 31.083 25.532 31.5435 25.5246 32.0206L25.5212 32.0098Z" fill="#B55B52"/>
<path d="M24.3884 29.38C20.1212 30.6715 20.6702 38.7087 20.6702 38.7087L26.7374 40.3996C26.7374 40.3996 27.7451 34.5138 27.6548 32.402C27.5644 30.2074 26.7409 28.6712 24.3884 29.38Z" fill="#746BE9"/>
<path d="M18.203 54.7038L16.066 56.5858L19.0613 57.852C19.0613 57.852 19.9891 56.3878 19.5583 54.9991L18.203 54.7038Z" fill="#B55B52"/>
<path d="M16.4448 59.4564L17.8104 59.6327C17.9621 59.6524 18.1158 59.6196 18.2478 59.5395C18.3797 59.4599 18.4824 59.3369 18.5401 59.1903L19.0614 57.852L16.066 56.5858L15.8401 58.6612C15.8195 58.8497 15.8715 59.0387 15.9846 59.1878C16.0978 59.3364 16.2632 59.4332 16.4448 59.4564Z" fill="#B55B52"/>
<path d="M23.0088 31.4702C22.8177 39.529 24.6072 45.4112 24.6281 50.6637L38.3852 50.959C38.2845 45.699 38.3262 42.2668 40.5119 32.8409C40.6069 32.4304 40.6182 32.0038 40.545 31.5885C40.4718 31.1731 40.3158 30.7782 40.0869 30.4288C39.858 30.0794 39.5613 29.7833 39.2156 29.5593C38.87 29.3354 38.483 29.1885 38.0794 29.1281C37.2559 29.0022 36.342 28.8834 35.4142 28.8187C33.3351 28.6193 31.2448 28.5736 29.1594 28.682C27.693 28.7899 26.1153 29.013 24.9895 29.1892C24.4546 29.2716 23.9643 29.5444 23.6027 29.9608C23.2412 30.3771 23.0312 30.9108 23.0088 31.4702Z" fill="#746BE9"/>
<path d="M35.8312 38.9174L31.7517 38.8886C31.7111 38.8904 31.6705 38.8831 31.6329 38.8672C31.5953 38.8513 31.5615 38.8271 31.5337 38.7963C31.506 38.7655 31.485 38.7289 31.4722 38.6889C31.4595 38.649 31.4552 38.6066 31.4598 38.5648L31.6857 36.5645C31.7004 36.4752 31.745 36.3942 31.8117 36.3356C31.8785 36.277 31.963 36.2447 32.0505 36.2443L36.1266 36.2731C36.167 36.2707 36.2075 36.2775 36.2451 36.293C36.2828 36.3086 36.3166 36.3324 36.3445 36.3629C36.3723 36.3934 36.3933 36.4298 36.4061 36.4696C36.4189 36.5094 36.4231 36.5516 36.4185 36.5933L36.1926 38.5972C36.1786 38.6861 36.1347 38.7672 36.0685 38.8258C36.0024 38.8844 35.9183 38.9168 35.8312 38.9174Z" fill="white"/>
<path opacity="0.4" d="M29.1803 28.6856C29.1803 28.6856 26.9355 30.3117 29.3088 34.3915C31.2574 32.4292 33.2997 30.5693 35.4281 28.8187L29.1803 28.6856Z" fill="white"/>
<path d="M34.9555 21.5226C34.5212 23.5949 34.0486 27.4012 35.4281 28.8187C33.2589 29.7034 31.2587 30.98 29.5207 32.589C27.9953 29.6893 29.1733 28.682 29.1733 28.682C31.425 28.1783 31.4042 26.455 31.0463 24.8289L34.9555 21.5226Z" fill="#B55B52"/>
<path opacity="0.2" d="M34.5316 21.8824C34.4774 23.1206 34.1682 24.3325 33.6246 25.4369C33.2459 26.196 32.2347 26.5162 31.2165 26.5774C31.2501 25.9893 31.1951 25.3994 31.0532 24.8289L34.5316 21.8824Z" fill="black"/>
<path d="M38.2115 18.9862C37.1691 22.3033 36.8216 23.728 34.7366 25.0231C31.6266 26.9695 27.9189 24.9368 27.9675 21.3715C28.0162 18.1624 29.705 13.2804 33.2042 12.7803C33.9791 12.6641 34.7698 12.7553 35.5011 13.045C36.2323 13.3348 36.8797 13.8135 37.3817 14.4356C37.8836 15.0578 38.2234 15.8026 38.3687 16.5991C38.5139 17.3957 38.4599 18.2175 38.2115 18.9862Z" fill="#B55B52"/>
<path d="M29.7154 14.6295C31.4528 15.1367 35.6853 15.5145 36.5331 14.9893C35.7374 16.2556 36.4949 19.7166 37.725 20.5548C39.3826 19.1769 39.7509 15.8455 38.2185 14.1941C36.6861 12.5428 31.842 10.5677 29.7154 14.6295Z" fill="#263238"/>
<path d="M38.698 21.0154C38.5883 21.3314 38.4186 21.6215 38.199 21.8686C37.9794 22.1158 37.7143 22.315 37.4192 22.4544C36.6339 22.8142 36.1127 22.1234 36.2238 21.2852C36.3246 20.5333 36.8563 19.436 37.6972 19.4216C37.8787 19.4242 38.0567 19.473 38.2157 19.5637C38.3746 19.6545 38.5095 19.7844 38.6084 19.942C38.7073 20.0995 38.7672 20.2799 38.7829 20.467C38.7985 20.6542 38.7693 20.8426 38.698 21.0154Z" fill="#B55B52"/>
<path d="M38.6076 50.1277L39.2053 51.4195C39.2505 51.5163 39.1359 51.6171 38.976 51.6135L24.5447 51.3006C24.4231 51.3006 24.3223 51.2321 24.3154 51.1495L24.2146 49.8723C24.2146 49.7859 24.3188 49.714 24.4544 49.714L38.3887 50.0162C38.4314 50.0135 38.474 50.0224 38.5125 50.042C38.5508 50.0615 38.5836 50.0911 38.6076 50.1277Z" fill="#263238"/>
<path d="M36.7068 51.6997H37.0787C37.1516 51.6997 37.2107 51.6604 37.2073 51.6135L37.0648 49.9515C37.0648 49.9047 36.9953 49.8615 36.9223 49.8615H36.547C36.474 49.8615 36.4185 49.8975 36.4219 49.9478L36.5609 51.6065C36.5679 51.6604 36.6304 51.6997 36.7068 51.6997Z" fill="#746BE9"/>
<path d="M25.5907 51.4624H25.966C26.0389 51.4624 26.098 51.4266 26.0946 51.3762L25.9521 49.714C25.9521 49.6672 25.8826 49.6277 25.8096 49.624H25.4343C25.3613 49.624 25.3023 49.66 25.3092 49.7104L25.4482 51.3691C25.4551 51.419 25.5177 51.4588 25.5907 51.4624Z" fill="#746BE9"/>
<path d="M31.147 51.5813H31.5223C31.5953 51.5813 31.6544 51.545 31.6509 51.4946L31.5084 49.8363C31.5084 49.7859 31.4389 49.7464 31.3659 49.7464H30.9906C30.9177 49.7464 30.8621 49.7859 30.8656 49.8327L31.0046 51.4946C31.0115 51.5379 31.0741 51.5813 31.147 51.5813Z" fill="#746BE9"/>
<path d="M33.2112 18.7092C33.1417 18.9827 32.947 19.1697 32.7733 19.123C32.5996 19.0762 32.5162 18.8172 32.5822 18.5438C32.6482 18.2703 32.8463 18.0833 33.02 18.13C33.1938 18.1768 33.2772 18.4358 33.2112 18.7092Z" fill="#263238"/>
<path d="M30.2158 17.9177C30.1497 18.1948 29.9552 18.3782 29.7814 18.3315C29.6077 18.2847 29.5208 18.0293 29.5903 17.7523C29.6598 17.4752 29.8509 17.2953 30.0246 17.3385C30.1984 17.3817 30.2853 17.6443 30.2158 17.9177Z" fill="#263238"/>
<path d="M30.0976 17.3745L29.5069 17.0147C29.5069 17.0147 29.7085 17.6191 30.0976 17.3745Z" fill="#263238"/>
<path d="M30.8795 18.5977C30.4905 19.1616 30.0286 19.6675 29.5069 20.1015C29.617 20.2366 29.7543 20.3453 29.9091 20.4198C30.064 20.4944 30.2327 20.5331 30.4034 20.5333L30.8795 18.5977Z" fill="#A02724"/>
<path d="M31.0463 21.609C31.034 21.5981 31.025 21.5839 31.0201 21.5681C31.0152 21.5522 31.0146 21.5352 31.0185 21.519C31.0216 21.5086 31.0268 21.4989 31.0335 21.4906C31.0403 21.4822 31.0486 21.4753 31.058 21.4703C31.0674 21.4653 31.0776 21.4623 31.0881 21.4613C31.0986 21.4604 31.1092 21.4617 31.1193 21.4651C31.4438 21.5704 31.7878 21.5953 32.1234 21.5378C32.4589 21.4803 32.7768 21.342 33.0513 21.1341C33.0674 21.1198 33.0884 21.1127 33.1096 21.1143C33.1307 21.116 33.1504 21.1264 33.1642 21.143C33.178 21.1598 33.1849 21.1814 33.1832 21.2034C33.1817 21.2253 33.1717 21.2457 33.1555 21.26C32.8618 21.4895 32.5188 21.6421 32.1557 21.7047C31.7927 21.7674 31.4204 21.7382 31.0706 21.6198L31.0463 21.609Z" fill="#263238"/>
<path d="M34.8443 17.4465C34.8232 17.427 34.8056 17.4038 34.7922 17.3781C34.7204 17.1831 34.6048 17.0086 34.455 16.8691C34.3051 16.7295 34.1253 16.629 33.9304 16.5758C33.8885 16.5682 33.8512 16.5436 33.8268 16.5075C33.8023 16.4714 33.7927 16.4268 33.8001 16.3833C33.8075 16.3399 33.8312 16.3013 33.8661 16.276C33.9009 16.2507 33.9441 16.2408 33.986 16.2484C34.2339 16.3119 34.4634 16.4358 34.6557 16.6098C34.8479 16.7838 34.9972 17.0027 35.091 17.2486C35.1033 17.2824 35.1048 17.3194 35.0953 17.3541C35.0857 17.3889 35.0657 17.4196 35.0382 17.4417C35.0106 17.4638 34.9769 17.4762 34.942 17.4771C34.9071 17.4779 34.8729 17.4672 34.8443 17.4465Z" fill="#263238"/>
<path d="M29.625 16.1693L29.6042 16.1477C29.5743 16.1167 29.5575 16.0746 29.5575 16.0308C29.5575 15.9869 29.5743 15.9448 29.6042 15.9138C29.7877 15.7356 30.0091 15.6046 30.2506 15.5315C30.4921 15.4584 30.7469 15.4451 30.9942 15.4929C31.0149 15.4983 31.0343 15.508 31.0513 15.5213C31.0683 15.5346 31.0826 15.5513 31.0933 15.5704C31.104 15.5895 31.1108 15.6106 31.1135 15.6325C31.1162 15.6545 31.1146 15.6767 31.1089 15.6979C31.0982 15.7404 31.0718 15.7768 31.0353 15.799C30.9988 15.8212 30.9553 15.8276 30.9142 15.8167C30.716 15.778 30.5117 15.7888 30.3183 15.8483C30.1249 15.9077 29.948 16.014 29.8023 16.1585C29.7771 16.1782 29.7468 16.1898 29.7153 16.1917C29.6837 16.1936 29.6523 16.1858 29.625 16.1693Z" fill="#263238"/>
<path d="M40.5084 31.6716C41.5196 33.0567 42.4648 34.4527 43.3821 35.9025C43.8374 36.6221 44.2891 37.3416 44.7165 38.1187C45.1769 38.9047 45.5902 39.7193 45.9535 40.5579C46.0638 40.8193 46.1586 41.0873 46.2384 41.3602C46.2965 41.5708 46.3359 41.7863 46.3568 42.0042C46.3623 42.0916 46.3623 42.1794 46.3568 42.2668V42.4287C46.3505 42.5 46.34 42.5709 46.3255 42.641L46.301 42.7525V42.8029V42.8424L46.2733 42.9216C46.11 43.3533 45.9812 43.7886 45.7866 44.2059C45.4346 45.0613 45.0112 45.8834 44.5219 46.6631C44.018 47.4504 43.428 48.1747 42.7636 48.8218C42.4251 49.1504 42.0614 49.45 41.6759 49.7176C41.4779 49.8507 41.2763 49.9802 41.0678 50.0989L40.7377 50.2645C40.6127 50.322 40.5223 50.3615 40.3416 50.4299L39.6814 48.7894C39.7284 48.7417 39.7783 48.6973 39.8308 48.6563L40.0219 48.4836C40.1505 48.3648 40.2756 48.2353 40.3972 48.1022C40.6448 47.8273 40.8768 47.5378 41.0922 47.2352C41.5166 46.6172 41.8864 45.961 42.1972 45.2745C42.3432 44.9147 42.503 44.5765 42.6246 44.1952C42.7462 43.8138 42.8818 43.4756 42.993 43.1159C43.1041 42.7561 43.191 42.3604 43.2988 41.9862V41.9178V41.8819V41.9142V41.9862C43.2988 42.0294 43.2814 42.0941 43.2779 42.1193C43.2762 42.1469 43.2762 42.1745 43.2779 42.202V42.3064C43.2779 42.3891 43.2779 42.3639 43.2779 42.328C43.2779 42.292 43.1806 42.0977 43.1076 41.9466C42.7914 41.3314 42.3675 40.6227 41.9331 39.9463C41.4988 39.2699 41.047 38.5756 40.5848 37.8956C39.664 36.5321 38.7153 35.1542 37.7841 33.8015L40.5084 31.6716Z" fill="#B55B52"/>
<path d="M41.2625 50.0054L38.5833 51.9662L37.381 49.1312C37.381 49.1312 39.0073 48.2281 40.2895 48.8325L41.2625 50.0054Z" fill="#B55B52"/>
<path d="M36.7173 52.2L36.0466 51.2321C35.9193 51.0457 35.8673 50.8149 35.9017 50.5891C35.9361 50.3634 36.0541 50.1604 36.2308 50.0234L37.381 49.1312L38.5833 51.9662L37.8466 52.4374C37.6643 52.5533 37.4464 52.5931 37.2367 52.5492C37.0271 52.5049 36.8415 52.3804 36.7173 52.2Z" fill="#B55B52"/>
<path d="M35.1467 30.8154C34.2362 34.5606 39.8517 40.9716 39.8517 40.9716L44.5741 35.8953C44.5741 35.8953 42.4161 31.1248 39.598 29.6282C37.6312 28.5848 35.5498 29.1641 35.1467 30.8154Z" fill="#746BE9"/>
<path d="M33.093 18.166L32.5023 17.8062C32.5023 17.8062 32.7003 18.4106 33.093 18.166Z" fill="#263238"/>
<path d="M27.0571 40.8206C27.0317 40.8204 27.0069 40.8124 26.9859 40.7977C26.9649 40.783 26.9485 40.7621 26.9389 40.7378C26.9276 40.7058 26.9289 40.6705 26.9426 40.6396C26.9563 40.6086 26.9812 40.5844 27.0119 40.5723L27.554 40.3564C28.0617 40.1623 28.5002 39.8124 28.8107 39.3533C29.1211 38.8943 29.2888 38.3481 29.2914 37.7877L29.3297 32.5279C29.3406 32.1275 29.2185 31.7353 28.9836 31.4169C28.7488 31.0986 28.4154 30.8733 28.0394 30.779C27.6634 30.6846 27.2675 30.7268 26.9179 30.8984C26.5683 31.0701 26.2862 31.3608 26.1188 31.722L23.7698 36.399C23.5175 36.8927 23.4156 37.4541 23.4776 38.009C23.5396 38.5639 23.7627 39.0864 24.1173 39.5074L24.4996 39.9571C24.5124 39.9695 24.5226 39.9845 24.5295 40.0012C24.5364 40.0179 24.5398 40.0359 24.5396 40.0541C24.5393 40.0723 24.5353 40.0902 24.5279 40.1067C24.5205 40.1231 24.5099 40.1378 24.4966 40.1497C24.4834 40.1617 24.4678 40.1706 24.4511 40.1759C24.4343 40.1812 24.4166 40.1829 24.3992 40.1806C24.3817 40.1784 24.365 40.1724 24.3499 40.163C24.3349 40.1536 24.322 40.1411 24.3119 40.1262L23.9296 39.6369C23.5383 39.1794 23.2911 38.6091 23.2209 38.0023C23.1507 37.3955 23.261 36.7809 23.537 36.2407L25.886 31.5637C26.0868 31.1646 26.4115 30.847 26.8079 30.6622C27.2042 30.4774 27.6491 30.4361 28.0709 30.5449C28.4927 30.6538 28.8668 30.9065 29.1329 31.2623C29.3991 31.6181 29.5418 32.0563 29.5382 32.5063L29.4999 37.7661C29.4971 38.3762 29.3156 38.9711 28.9793 39.4721C28.643 39.9732 28.1678 40.3568 27.6165 40.5723L27.0744 40.7846L27.0571 40.8206Z" fill="#263238"/>
<path d="M29.4165 33.7007C29.3842 33.6999 29.3534 33.6864 29.3302 33.6631C29.307 33.6398 29.2932 33.6082 29.2914 33.5748C29.2422 33.1591 29.0724 32.7686 28.8044 32.4548C28.5366 32.141 28.1831 31.9186 27.7906 31.817C27.3982 31.7153 26.9853 31.7391 26.6062 31.8853C26.2271 32.0314 25.8997 32.2932 25.6671 32.6358C25.6591 32.6507 25.6484 32.6638 25.6355 32.6744C25.6226 32.685 25.6079 32.6928 25.592 32.6975C25.5762 32.7022 25.5597 32.7036 25.5434 32.7017C25.527 32.6997 25.5112 32.6944 25.4969 32.6862C25.4825 32.6779 25.4698 32.6668 25.4596 32.6535C25.4494 32.6401 25.4418 32.6249 25.4372 32.6085C25.4327 32.5921 25.4314 32.575 25.4332 32.558C25.4351 32.5412 25.4402 32.5248 25.4482 32.5099C25.7068 32.1142 26.0765 31.8104 26.5073 31.6394C26.9382 31.4685 27.4094 31.4386 27.8571 31.5541C28.3049 31.6695 28.7076 31.9245 29.0107 32.2846C29.3138 32.6448 29.5028 33.0927 29.5521 33.5676C29.5521 33.6017 29.5395 33.6345 29.5169 33.6593C29.4943 33.6841 29.4633 33.6989 29.4304 33.7007H29.4165Z" fill="#263238"/>
<path d="M28.0613 30.8262C28.0407 30.8259 28.0205 30.8206 28.0024 30.8106C27.9842 30.8005 27.9687 30.7862 27.957 30.7686C27.8936 30.6228 27.8607 30.4645 27.8607 30.3045C27.8607 30.1445 27.8936 29.9863 27.957 29.8405C28.0473 29.5503 28.1993 29.2848 28.402 29.0637C28.6047 28.8427 28.8529 28.6716 29.1281 28.5633C29.1433 28.5571 29.1596 28.5543 29.176 28.555C29.1923 28.5556 29.2084 28.5598 29.2231 28.5673C29.2377 28.5747 29.2508 28.5852 29.2614 28.5982C29.272 28.6111 29.2798 28.6262 29.2845 28.6424C29.2945 28.6744 29.2921 28.7091 29.2779 28.7394C29.2636 28.7696 29.2386 28.7929 29.208 28.8043C28.9723 28.9043 28.7605 29.0562 28.587 29.2495C28.4137 29.4426 28.2829 29.6725 28.2038 29.9232C28.152 30.0346 28.1219 30.1555 28.1153 30.279C28.1088 30.4025 28.1258 30.5261 28.1655 30.6427C28.1745 30.6571 28.1807 30.6732 28.1836 30.69C28.1866 30.7069 28.1863 30.7242 28.1827 30.7409C28.1791 30.7577 28.1724 30.7735 28.1629 30.7875C28.1534 30.8015 28.1413 30.8135 28.1273 30.8226C28.1059 30.8292 28.0833 30.8304 28.0613 30.8262Z" fill="#263238"/>
<path d="M26.7721 40.6227C26.7131 40.8565 26.7721 41.0795 26.9389 41.1192C27.1057 41.1587 27.2586 40.9968 27.3142 40.7594C27.3698 40.5219 27.2934 40.2989 27.1439 40.2629C26.9945 40.2269 26.8277 40.3852 26.7721 40.6227Z" fill="#263238"/>
<path d="M36.6339 34.4095C36.7451 34.9527 37.1204 35.3269 37.4644 35.2513C37.8084 35.1758 37.9961 34.6685 37.8814 34.1289C37.7667 33.5892 37.3949 33.2078 37.0509 33.287C36.7069 33.3662 36.5192 33.8806 36.6339 34.4095Z" fill="#263238"/>
<path d="M37.7216 34.2404C37.7056 34.2409 37.6897 34.2381 37.6748 34.2322C37.6599 34.2263 37.6462 34.2174 37.6345 34.2061C37.6229 34.1947 37.6136 34.1811 37.607 34.166C37.6005 34.1509 37.5969 34.1346 37.5965 34.1181C37.5235 32.1285 36.7938 29.6569 35.3725 28.9266C35.3432 28.9112 35.3209 28.8844 35.3105 28.8521C35.3001 28.8198 35.3024 28.7845 35.3169 28.7539C35.324 28.7386 35.3339 28.7248 35.3462 28.7135C35.3585 28.7022 35.3729 28.6936 35.3885 28.6882C35.404 28.6829 35.4205 28.6808 35.4369 28.6822C35.4533 28.6836 35.4692 28.6884 35.4837 28.6964C37.0057 29.4771 37.7667 31.9774 37.8432 34.0929C37.8447 34.1098 37.8427 34.1269 37.8374 34.143C37.8321 34.1591 37.8236 34.1739 37.8125 34.1864C37.8014 34.199 37.7879 34.209 37.7728 34.2158C37.7577 34.2226 37.7415 34.2261 37.725 34.226L37.7216 34.2404Z" fill="#263238"/>
<path d="M36.2621 34.4563C36.3351 34.9204 36.6582 35.2513 36.9849 35.1974C37.3115 35.1434 37.52 34.7225 37.447 34.2548C37.374 33.7871 37.0474 33.4597 36.7208 33.5137C36.3941 33.5676 36.1891 33.9886 36.2621 34.4563Z" fill="white"/>
<path d="M36.2343 34.4958C36.3386 35.0714 36.6304 35.496 36.8841 35.4456C37.1378 35.3952 37.2524 34.8915 37.1482 34.3159C37.0439 33.7403 36.7521 33.3158 36.4984 33.3662C36.2448 33.4165 36.1266 33.9202 36.2343 34.4958Z" fill="#263238"/>
<path d="M24.1451 39.9427C24.0895 40.1801 24.166 40.4032 24.3154 40.4392C24.4648 40.4752 24.6316 40.3205 24.6907 40.0794C24.7498 39.8384 24.6698 39.6225 24.5204 39.5829C24.371 39.5434 24.2042 39.7089 24.1451 39.9427Z" fill="#263238"/>
<path d="M62.2094 10.6468C60.0097 11.0534 59.7316 10.8447 59.7039 9.20778C59.6758 7.57083 58.8769 4.84019 59.9888 3.98394C60.065 3.90901 60.1589 3.85611 60.261 3.83053C60.3635 3.80495 60.4706 3.80759 60.5713 3.83818C60.6725 3.86876 60.7636 3.92623 60.8362 4.00483C60.9093 4.08344 60.961 4.18044 60.9859 4.28614C61.054 4.10658 61.186 3.96108 61.3552 3.87997C61.5239 3.79887 61.7167 3.78843 61.8927 3.85083C61.9381 3.51265 61.9903 2.6456 62.5877 2.41175C63.1856 2.1779 63.7345 2.73915 63.7345 2.73915C63.7345 2.73915 63.6896 1.4044 64.5584 1.53392C64.8174 1.57683 65.0583 1.69968 65.2492 1.88643C65.4402 2.07319 65.5722 2.31518 65.6285 2.58085C65.6285 2.58085 66.1289 1.82534 66.8066 2.12394C67.4839 2.42255 67.3414 3.30038 67.3414 3.30038C67.3414 3.30038 68.0609 2.94061 68.5962 3.34715C69.1311 3.75369 68.7418 4.40487 68.7418 4.40487C68.7418 4.40487 69.2286 3.10971 70.1563 3.82565C70.9901 4.47323 70.2325 5.48776 70.2325 5.48776C70.2325 5.48776 71.1502 5.33307 71.3725 5.81155C72.1233 7.44129 69.2631 9.26174 69.1696 12.014C64.777 13.7336 62.2094 10.6468 62.2094 10.6468Z" fill="#263238"/>
<path d="M46.3568 54.3874L44.8902 54.1067L42.9512 56.0245C42.8457 56.1283 42.7625 56.2542 42.7068 56.3938C42.6511 56.5329 42.6243 56.683 42.6281 56.8337L42.6559 58.4022C42.6593 58.6708 42.7591 58.9278 42.9357 59.1243C43.1124 59.3203 43.3533 59.4412 43.6115 59.4639L44.2856 59.5249C44.5309 59.5491 44.7764 59.4821 44.9786 59.3364C45.1809 59.1913 45.3269 58.9762 45.3906 58.7298L45.738 57.4489C45.738 57.4489 47.6529 55.1069 46.3568 54.3874Z" fill="#FFB573"/>
<path d="M61.1669 25.6995C60.1834 28.3366 59.2035 30.9845 58.2582 33.6396C57.3132 36.2946 56.3746 38.9605 55.4955 41.5832L55.3394 42.0689L55.2314 42.3855C55.1897 42.5043 55.148 42.6265 55.1099 42.7201C54.9466 43.1482 54.7832 43.5008 54.6199 43.857C54.2933 44.5765 53.9631 45.2205 53.6296 45.8717C52.9592 47.1668 52.2673 48.4152 51.5692 49.66C50.1792 52.1532 48.7893 54.5889 47.3503 57.0604L42.9269 54.211C44.3864 51.8619 45.7939 49.437 47.1421 47.0157C47.8058 45.7997 48.459 44.5801 49.0669 43.3713C49.3695 42.7669 49.6612 42.1625 49.9184 41.5724C50.04 41.2882 50.1615 40.9968 50.2414 40.7594C50.2695 40.691 50.2799 40.6442 50.2972 40.5975L50.353 40.4104L50.5127 39.8852C51.3501 37.1221 52.2292 34.4527 53.0771 31.7436L55.6207 23.6452L61.1669 25.6995Z" fill="#746BE9"/>
<path opacity="0.6" d="M61.1669 25.6995C60.1834 28.3366 59.2035 30.9845 58.2582 33.6396C57.3132 36.2946 56.3746 38.9605 55.4955 41.5832L55.3394 42.0689L55.2314 42.3855C55.1897 42.5043 55.148 42.6265 55.1099 42.7201C54.9466 43.1482 54.7832 43.5008 54.6199 43.857C54.2933 44.5765 53.9631 45.2205 53.6296 45.8717C52.9592 47.1668 52.2673 48.4152 51.5692 49.66C50.1792 52.1532 48.7893 54.5889 47.3503 57.0604L42.9269 54.211C44.3864 51.8619 45.7939 49.437 47.1421 47.0157C47.8058 45.7997 48.459 44.5801 49.0669 43.3713C49.3695 42.7669 49.6612 42.1625 49.9184 41.5724C50.04 41.2882 50.1615 40.9968 50.2414 40.7594C50.2695 40.691 50.2799 40.6442 50.2972 40.5975L50.353 40.4104L50.5127 39.8852C51.3501 37.1221 52.2292 34.4527 53.0771 31.7436L55.6207 23.6452L61.1669 25.6995Z" fill="white"/>
<path d="M47.9133 121.991L44.7964 122.15L46.2697 113.745L49.2338 114.45L47.9133 121.991Z" fill="#FFB573"/>
<path d="M70.2742 122.113H67.1572L67.1677 114.641H70.2815L70.2742 122.113Z" fill="#FFB573"/>
<path d="M66.8619 121.739H70.6603C70.7211 121.738 70.7805 121.76 70.8277 121.8C70.8749 121.84 70.9066 121.897 70.9175 121.959L71.4179 124.837C71.4288 124.908 71.4247 124.981 71.4061 125.05C71.387 125.12 71.3539 125.184 71.3085 125.239C71.2632 125.294 71.2069 125.338 71.1434 125.368C71.0804 125.398 71.0114 125.413 70.9415 125.413C69.7185 125.391 68.8289 125.315 67.2893 125.315C66.3443 125.315 63.4669 125.416 62.1745 125.416C60.8816 125.416 60.7496 124.078 61.2885 123.956C63.7209 123.412 65.5518 122.664 66.348 121.948C66.4886 121.816 66.6719 121.741 66.8619 121.739Z" fill="#263238"/>
<path opacity="0.2" d="M46.2697 113.749L45.5888 117.634L48.5529 118.34L49.2338 114.454L46.2697 113.749Z" fill="black"/>
<path opacity="0.2" d="M70.2815 114.641H67.1645V118.491H70.2815V114.641Z" fill="black"/>
<path d="M72.7901 25.606C70.3577 36.9351 71.0041 48.1166 70.7437 50.5377L54.1091 49.401C52.3717 35.7298 54.3105 27.0091 55.4124 23.433C55.5912 22.8427 55.93 22.3179 56.3882 21.9207C56.8464 21.5234 57.4048 21.2704 57.9977 21.1916C60.471 20.911 62.9619 20.8303 65.4479 20.9506C67.1305 21.0548 68.8008 21.3173 70.4375 21.7349C71.245 21.9262 71.9459 22.4411 72.3868 23.1669C72.8282 23.8925 72.9729 24.7697 72.7901 25.606Z" fill="#746BE9"/>
<path d="M67.776 13.2732C67.2271 15.4066 66.5771 19.1841 67.6232 21.0945C67.7865 21.3931 67.4735 21.6485 67.4599 21.9939C67.4217 23.0516 66.0386 23.3682 63.5644 23.3826C61.0903 23.397 60.0305 22.3285 60.7047 21.3212C60.8081 21.1676 60.9651 21.0618 61.1424 21.0262C63.4601 20.4901 63.5055 18.6085 63.1893 16.8132L67.776 13.2732Z" fill="#FFB573"/>
<path opacity="0.4" d="M63.387 22.7962C64.0371 23.732 64.4494 24.8219 64.586 25.9657C67.0565 24.7641 68.2346 21.8464 68.2346 21.8464L67.4911 21.0225C67.4911 21.0225 64.7457 21.5586 63.387 22.7962Z" fill="black"/>
<path opacity="0.4" d="M63.1439 22.807C62.2343 23.5736 61.4668 24.505 60.8784 25.5556C59.1514 24.4475 59.7211 21.2888 59.7211 21.2888L61.1283 21.0009C61.1283 21.0009 61.7575 21.6018 63.1439 22.807Z" fill="black"/>
<path d="M63.255 22.7278L62.7233 22.7818L61.8233 23.397C61.7661 23.7676 61.8296 24.1473 62.0043 24.4763C62.5269 24.582 63.0604 24.6195 63.592 24.5878C63.9491 24.4095 64.2335 24.1061 64.395 23.7316L63.7345 22.8573L63.255 22.7278Z" fill="#263238"/>
<path d="M63.255 22.7278C63.9228 23.5928 64.4345 24.575 64.7665 25.6275C67.2375 24.4259 68.676 21.555 68.676 21.555L67.4839 20.4757C67.4839 20.4757 64.6137 21.4974 63.255 22.7278Z" fill="#746BE9"/>
<path d="M63.255 22.7278C62.3015 23.3507 61.4672 24.1509 60.7949 25.0879C59.0575 23.9834 59.7212 21.0082 59.7212 21.0082L61.1284 20.7203C61.1284 20.7203 61.8723 21.5298 63.255 22.7278Z" fill="#746BE9"/>
<path opacity="0.2" d="M65.9066 14.7158L63.196 16.8097C63.2782 17.2424 63.3235 17.6818 63.3317 18.1228C64.3079 18.0473 65.7119 17.0435 65.8821 15.993C65.9637 15.5722 65.9719 15.1396 65.9066 14.7158Z" fill="black"/>
<path d="M68.2728 9.74743C67.8804 12.9242 67.8073 14.7842 66.1461 16.3348C63.6479 18.6337 59.9403 16.914 59.4086 13.6797C58.9291 10.7691 59.6518 6.06339 62.7479 5.00209C63.4297 4.76421 64.1587 4.71074 64.8659 4.84679C65.5732 4.98283 66.235 5.30385 66.7885 5.77936C67.3424 6.25492 67.7692 6.86909 68.0292 7.56358C68.2887 8.25813 68.3726 9.00986 68.2728 9.74743Z" fill="#FFB573"/>
<path d="M67.5224 12.6184C66.8275 11.924 67.2616 8.59975 67.6127 7.64637C65.8753 7.81905 60.2596 7.81189 60.4719 6.2073C60.6838 4.60275 62.727 3.23923 66.0662 4.3653C68.8462 5.3043 69.5411 6.73974 69.5411 7.91262C69.5829 10.3231 67.5224 12.6184 67.5224 12.6184Z" fill="#263238"/>
<path d="M69.3501 12.6543C69.0199 13.3073 68.4564 13.8006 67.7796 14.0287C66.8932 14.3129 66.4554 13.4674 66.7058 12.5608C66.9281 11.7477 67.6612 10.6145 68.5472 10.7296C69.4336 10.8447 69.7566 11.8449 69.3501 12.6543Z" fill="#FFB573"/>
<path d="M44.5741 116.649L49.7274 117.825C49.7274 117.825 54.7384 97.4945 56.2254 87.558C56.6804 84.5358 57.7369 80.2221 58.6996 75.6857C59.9122 69.9652 61.4378 63.7771 62.6889 58.9313C64.009 53.826 64.9893 50.1565 64.9893 50.1565L54.1092 49.4118C54.1092 49.4118 49.0461 76.0021 48.0245 85.7914C46.9579 95.9657 44.5741 116.649 44.5741 116.649Z" fill="#263238"/>
<path opacity="0.2" d="M58.6995 75.6786C59.9121 69.9581 61.4377 63.77 62.6889 58.9243L61.5452 56.4059C58.8456 59.7441 58.1538 70.073 58.6995 75.6786Z" fill="black"/>
<path d="M59.2938 49.7572C59.2938 49.7572 61.5453 76.9303 62.4212 86.3382C63.3943 96.6419 66.0036 117.75 66.0036 117.75H71.2369C71.2369 117.75 71.4732 95.2714 70.5419 85.3203C70.4099 65.7558 70.7401 50.5413 70.7401 50.5413L59.2938 49.7572Z" fill="#263238"/>
<path d="M65.3368 117.876H72.057V115.796L65.0759 115.397L65.3368 117.876Z" fill="#746BE9"/>
<path d="M43.8999 116.627L50.04 118.03L50.4777 115.976L44.0493 114.299L43.8999 116.627Z" fill="#746BE9"/>
<path d="M63.7867 10.3159C63.7867 10.5749 63.6234 10.7763 63.4601 10.7656C63.2968 10.7548 63.1752 10.5353 63.1924 10.2763C63.2101 10.0173 63.3557 9.81576 63.519 9.82659C63.6824 9.83737 63.8039 10.0568 63.7867 10.3159Z" fill="#263238"/>
<path d="M60.9514 10.136C60.9514 10.395 60.7881 10.5965 60.6248 10.5857C60.4615 10.5749 60.3395 10.3554 60.3572 10.0964C60.3744 9.83737 60.5205 9.63587 60.6838 9.6467C60.8471 9.65749 60.9687 9.86256 60.9514 10.136Z" fill="#263238"/>
<path d="M61.601 10.3159C61.2508 11.0876 60.8008 11.8066 60.2632 12.4529C60.6765 12.9134 61.4445 12.7695 61.4445 12.7695L61.601 10.3159Z" fill="#ED893E"/>
<path d="M62.4594 13.5358C62.7411 13.5193 63.0164 13.4439 63.2691 13.314C63.5218 13.1842 63.7463 13.0026 63.9292 12.7803C63.9423 12.7662 63.9496 12.7475 63.9496 12.7281C63.9496 12.7087 63.9423 12.69 63.9292 12.6759C63.9151 12.6623 63.8965 12.6547 63.877 12.6547C63.8579 12.6547 63.8393 12.6623 63.8248 12.6759C63.6189 12.9197 63.3598 13.1098 63.0695 13.2311C62.7792 13.3523 62.4657 13.4012 62.1536 13.3739C62.1441 13.3729 62.1341 13.3739 62.125 13.3768C62.1159 13.3797 62.1073 13.3845 62.1001 13.3908C62.0924 13.3972 62.0865 13.405 62.0819 13.4138C62.0774 13.4227 62.0747 13.4323 62.0738 13.4423C62.0728 13.4627 62.0792 13.4827 62.0924 13.4981C62.1051 13.5135 62.1237 13.5231 62.1432 13.525C62.2484 13.5352 62.3537 13.5388 62.4594 13.5358Z" fill="#263238"/>
<path d="M64.4785 9.41643C64.503 9.41351 64.5266 9.4049 64.5479 9.39124C64.5806 9.36912 64.6042 9.33445 64.6123 9.2947C64.621 9.25499 64.6137 9.21342 64.5928 9.17901C64.469 8.97202 64.2989 8.79868 64.097 8.67357C63.8951 8.54841 63.6674 8.47499 63.4324 8.45947C63.397 8.46507 63.3648 8.48356 63.3417 8.51162C63.3185 8.53969 63.3058 8.57541 63.3058 8.61235C63.3058 8.64928 63.3185 8.68506 63.3417 8.71307C63.3648 8.74114 63.397 8.75963 63.4324 8.76528C63.6179 8.77943 63.7976 8.83904 63.9564 8.93911C64.1151 9.03918 64.249 9.17689 64.346 9.3409C64.3592 9.36499 64.3783 9.38489 64.4018 9.39824C64.425 9.4116 64.4517 9.4179 64.4785 9.41643Z" fill="#263238"/>
<path d="M59.551 9.03147C59.5751 9.02971 59.5982 9.02195 59.6191 9.00879C59.6395 8.99559 59.6567 8.9775 59.669 8.95594C59.7579 8.78875 59.8831 8.6456 60.0355 8.53807C60.1875 8.43055 60.3621 8.36172 60.5445 8.33713C60.5835 8.3335 60.6193 8.31471 60.6452 8.28462C60.6711 8.25459 60.6847 8.21544 60.6838 8.17523C60.681 8.13482 60.6629 8.09713 60.6339 8.07022C60.6048 8.04332 60.5663 8.02936 60.5273 8.03133C60.2941 8.0605 60.0709 8.14732 59.8767 8.28442C59.6826 8.42158 59.5233 8.60494 59.4117 8.81924C59.3932 8.85405 59.3886 8.89522 59.399 8.93362C59.409 8.97201 59.434 9.00461 59.4675 9.02426C59.4939 9.03651 59.5229 9.03908 59.551 9.03147Z" fill="#263238"/>
<path d="M65.809 122.301C66.0858 122.294 66.3607 122.255 66.6292 122.185C66.6433 122.182 66.656 122.175 66.666 122.164C66.6759 122.153 66.6823 122.139 66.685 122.124C66.6886 122.11 66.6877 122.096 66.6828 122.082C66.6778 122.068 66.6687 122.057 66.6569 122.049C66.5458 121.973 65.5659 121.329 65.2116 121.516C65.173 121.537 65.1408 121.568 65.1177 121.606C65.0946 121.644 65.0814 121.688 65.0796 121.732C65.0673 121.806 65.0732 121.883 65.0968 121.954C65.1204 122.025 65.1612 122.088 65.2148 122.139C65.389 122.262 65.599 122.319 65.809 122.301ZM66.4174 122.078C65.8857 122.189 65.4792 122.168 65.3159 122.02C65.2787 121.986 65.2511 121.943 65.2352 121.894C65.2193 121.845 65.2161 121.793 65.2252 121.743C65.2252 121.686 65.2533 121.664 65.2742 121.653C65.4584 121.56 66.0213 121.833 66.4174 122.078Z" fill="#746BE9"/>
<path d="M66.612 122.189C66.6242 122.194 66.6378 122.194 66.6501 122.189C66.6619 122.182 66.6719 122.173 66.6787 122.161C66.6855 122.149 66.6887 122.135 66.6882 122.121C66.6882 122.081 66.6501 121.149 66.299 120.844C66.2568 120.805 66.2069 120.777 66.1529 120.76C66.0989 120.743 66.0422 120.738 65.9864 120.746C65.9306 120.747 65.8766 120.766 65.8331 120.802C65.7895 120.838 65.7591 120.888 65.7464 120.944C65.6666 121.304 66.2609 122.024 66.5771 122.193C66.5889 122.195 66.6011 122.194 66.612 122.189ZM66.035 120.879C66.0971 120.88 66.1565 120.905 66.2019 120.948C66.4242 121.142 66.504 121.686 66.5285 121.959C66.2191 121.707 65.8335 121.171 65.8893 120.959C65.8893 120.941 65.8893 120.894 66.0005 120.883H66.035V120.879Z" fill="#746BE9"/>
<path d="M44.3308 120.729L47.9863 121.808C48.0449 121.825 48.0957 121.863 48.1297 121.915C48.1642 121.967 48.1796 122.029 48.1741 122.092L47.9029 124.996C47.8942 125.067 47.8707 125.136 47.8339 125.197C47.7967 125.258 47.7477 125.31 47.6897 125.349C47.6316 125.389 47.5658 125.415 47.4973 125.426C47.4284 125.437 47.3585 125.432 47.2914 125.413C46.1205 125.053 45.2864 124.725 43.8165 124.29C42.9061 124.024 39.942 122.923 38.8613 122.16C37.7806 121.398 38.4165 120.221 38.9273 120.437C41.2242 121.401 42.8401 121.247 43.7922 120.797C43.9583 120.709 44.1491 120.685 44.3308 120.729Z" fill="#263238"/>
<path d="M43.1667 120.973C43.4353 121.042 43.7101 121.082 43.9868 121.092C44.0017 121.093 44.0165 121.089 44.0295 121.081C44.0425 121.074 44.053 121.062 44.0598 121.049C44.068 121.037 44.0724 121.022 44.0724 121.007C44.0724 120.993 44.068 120.978 44.0598 120.966C43.9729 120.865 43.198 119.973 42.8122 120.048C42.7693 120.059 42.7295 120.079 42.6967 120.109C42.6639 120.14 42.639 120.178 42.6246 120.221C42.5945 120.288 42.581 120.362 42.5852 120.436C42.5895 120.511 42.6114 120.583 42.6489 120.646C42.7814 120.812 42.9637 120.927 43.1667 120.973ZM43.813 120.93C43.2709 120.887 42.8852 120.75 42.7706 120.57C42.7471 120.526 42.7348 120.475 42.7348 120.424C42.7348 120.373 42.7471 120.324 42.7706 120.279C42.7914 120.221 42.8192 120.21 42.8435 120.207C43.0416 120.16 43.4933 120.585 43.813 120.944V120.93Z" fill="#746BE9"/>
<path d="M43.9694 121.088C43.9831 121.092 43.9974 121.092 44.0111 121.088C44.0245 121.085 44.0368 121.077 44.0466 121.067C44.0564 121.057 44.0633 121.045 44.0667 121.031C44.0667 120.995 44.2821 120.088 44.0285 119.692C43.9974 119.644 43.957 119.603 43.9097 119.572C43.8624 119.541 43.8094 119.521 43.754 119.512C43.7001 119.497 43.6428 119.501 43.5911 119.523C43.5395 119.545 43.4965 119.584 43.469 119.635C43.2953 119.959 43.6845 120.808 43.9381 121.074C43.9472 121.081 43.958 121.086 43.9694 121.088ZM43.7574 119.667C43.8169 119.684 43.8678 119.724 43.8999 119.779C44.0667 120.03 43.9972 120.578 43.952 120.858C43.7192 120.531 43.4968 119.908 43.6045 119.717C43.6045 119.7 43.6358 119.66 43.7331 119.675L43.7574 119.667Z" fill="#746BE9"/>
<path d="M67.8282 20.8139C67.791 20.8077 67.7534 20.8104 67.7175 20.8216C67.6817 20.8329 67.6486 20.8524 67.6214 20.8788C67.5937 20.9051 67.5724 20.9376 67.5592 20.9737C67.5456 21.0098 67.5401 21.0487 67.5433 21.0873C67.6649 23.0157 64.7634 26.4838 64.0684 36.8703C63.6547 43.1878 63.2759 62.8852 63.554 73.131C63.5581 73.2656 63.5916 73.3976 63.6524 73.5165C63.7128 73.6354 63.799 73.7387 63.9037 73.8178C64.0085 73.8974 64.1297 73.9509 64.2571 73.9745C64.3851 73.9987 64.5166 73.9917 64.6418 73.9549C69.7707 72.473 72.1927 76.0671 73.1794 71.829C73.1272 66.7525 71.6433 48.5267 72.0258 44.206C72.4082 39.8852 73.9959 28.1459 74.3924 25.0159C74.7431 22.2961 69.2631 21.0837 67.8282 20.8139Z" fill="#746BE9"/>
<path opacity="0.7" d="M67.8282 20.8139C67.791 20.8077 67.7534 20.8104 67.7175 20.8216C67.6817 20.8329 67.6486 20.8524 67.6214 20.8788C67.5937 20.9051 67.5724 20.9376 67.5592 20.9737C67.5456 21.0098 67.5401 21.0487 67.5433 21.0873C67.6649 23.0157 64.7634 26.4838 64.0684 36.8703C63.6547 43.1878 63.2759 62.8852 63.554 73.131C63.5581 73.2656 63.5916 73.3976 63.6524 73.5165C63.7128 73.6354 63.799 73.7387 63.9037 73.8178C64.0085 73.8974 64.1297 73.9509 64.2571 73.9745C64.3851 73.9987 64.5166 73.9917 64.6418 73.9549C69.7707 72.473 72.1927 76.0671 73.1794 71.829C73.1272 66.7525 71.6433 48.5267 72.0258 44.206C72.4082 39.8852 73.9959 28.1459 74.3924 25.0159C74.7431 22.2961 69.2631 21.0837 67.8282 20.8139Z" fill="white"/>
<path opacity="0.2" d="M71.2092 29.6174C70.9833 31.2219 70.8966 37.7049 72.3873 40.8241C72.6373 38.6655 72.9639 36.1004 73.2801 33.6288L71.2092 29.6174Z" fill="#746BE9"/>
<path d="M73.3395 57.654L71.8588 57.8339L70.5491 60.255C70.477 60.386 70.4326 60.5316 70.418 60.6813C70.404 60.8314 70.4199 60.9826 70.4657 61.1257L70.9379 62.6152C71.0182 62.8701 71.1874 63.0848 71.412 63.2178C71.637 63.3508 71.9014 63.3926 72.1541 63.3347L72.8146 63.1911C73.0573 63.1397 73.2742 63.0011 73.427 62.7991C73.5799 62.5975 73.6584 62.3461 73.6484 62.0901L73.6067 60.7659C73.6067 60.7659 74.7812 57.9563 73.3395 57.654Z" fill="#FFB573"/>
<path d="M74.1524 23.8071C74.6251 25.2462 75.0629 26.6673 75.497 28.1063C75.9316 29.5454 76.3657 30.9845 76.7758 32.4236C77.1859 33.8626 77.5819 35.3341 77.9471 36.8343C78.1277 37.5862 78.2946 38.3453 78.4543 39.1404C78.5273 39.5398 78.6004 39.9463 78.6594 40.378C78.687 40.6011 78.7183 40.8061 78.7356 41.0544L78.7669 41.4142L78.7846 41.8207C78.7914 41.9573 78.7914 42.0942 78.7846 42.2308C78.7846 42.3747 78.7846 42.5115 78.7669 42.623L78.7356 42.9827L78.6975 43.3065C78.6489 43.7418 78.5863 44.1376 78.5237 44.5333C78.3985 45.3176 78.2529 46.0732 78.1032 46.8215C77.8047 48.3181 77.4708 49.7823 77.1338 51.2396C76.7967 52.6964 76.4388 54.15 76.0913 55.5997L75.0488 59.9491L70.0175 58.5353C70.7955 55.7257 71.5045 52.8657 72.1614 50.0234C72.4807 48.5843 72.7797 47.174 73.0473 45.7674C73.1794 45.0478 73.3046 44.3643 73.3948 43.6879C73.447 43.3497 73.4887 43.0151 73.5164 42.7129C73.5436 42.4742 73.5527 42.2336 73.5441 41.9934V41.8423L73.52 41.648C73.52 41.5257 73.4783 41.3638 73.4574 41.2234C73.4089 40.9213 73.3463 40.6011 73.2769 40.2737C73.1344 39.6189 72.9639 38.9426 72.7797 38.2626C72.4322 36.8991 71.9908 35.5176 71.5426 34.1432C70.6566 31.3946 69.6595 28.628 68.6307 25.937L74.1524 23.8071Z" fill="#746BE9"/>
<path opacity="0.7" d="M74.1524 23.8071C74.6251 25.2462 75.0629 26.6673 75.497 28.1063C75.9316 29.5454 76.3657 30.9845 76.7758 32.4236C77.1859 33.8626 77.5819 35.3341 77.9471 36.8343C78.1277 37.5862 78.2946 38.3453 78.4543 39.1404C78.5273 39.5398 78.6004 39.9463 78.6594 40.378C78.687 40.6011 78.7183 40.8061 78.7356 41.0544L78.7669 41.4142L78.7846 41.8207C78.7914 41.9573 78.7914 42.0942 78.7846 42.2308C78.7846 42.3747 78.7846 42.5115 78.7669 42.623L78.7356 42.9827L78.6975 43.3065C78.6489 43.7418 78.5863 44.1376 78.5237 44.5333C78.3985 45.3176 78.2529 46.0732 78.1032 46.8215C77.8047 48.3181 77.4708 49.7823 77.1338 51.2396C76.7967 52.6964 76.4388 54.15 76.0913 55.5997L75.0488 59.9491L70.0175 58.5353C70.7955 55.7257 71.5045 52.8657 72.1614 50.0234C72.4807 48.5843 72.7797 47.174 73.0473 45.7674C73.1794 45.0478 73.3046 44.3643 73.3948 43.6879C73.447 43.3497 73.4887 43.0151 73.5164 42.7129C73.5436 42.4742 73.5527 42.2336 73.5441 41.9934V41.8423L73.52 41.648C73.52 41.5257 73.4783 41.3638 73.4574 41.2234C73.4089 40.9213 73.3463 40.6011 73.2769 40.2737C73.1344 39.6189 72.9639 38.9426 72.7797 38.2626C72.4322 36.8991 71.9908 35.5176 71.5426 34.1432C70.6566 31.3946 69.6595 28.628 68.6307 25.937L74.1524 23.8071Z" fill="white"/>
<path d="M61.0693 20.544C61.1456 20.5435 61.2209 20.5653 61.2857 20.6072C61.3502 20.649 61.4023 20.7091 61.4354 20.7803C61.4686 20.8515 61.4817 20.9311 61.4726 21.0097C61.464 21.0882 61.4336 21.1625 61.3855 21.224C60.5586 22.2169 60.0373 23.5805 59.0574 27.9552C57.8762 33.233 55.3603 59.7874 54.8876 72.8005C54.8853 72.9083 54.8603 73.0147 54.8145 73.1119C54.7687 73.2091 54.7029 73.2948 54.6222 73.3633C54.541 73.4314 54.4466 73.4807 54.3455 73.5079C54.2448 73.5352 54.1391 73.5392 54.0361 73.52C51.5828 73.0519 49.9011 74.2824 49.6335 72.6529C49.3382 70.854 50.4396 53.6714 52.5005 45.591C52.1771 38.4245 53.3447 24.0482 55.6765 22.1378C56.9412 21.0765 59.6308 20.5692 61.0693 20.544Z" fill="#746BE9"/>
<path opacity="0.7" d="M61.0693 20.544C61.1456 20.5435 61.2209 20.5653 61.2857 20.6072C61.3502 20.649 61.4023 20.7091 61.4354 20.7803C61.4686 20.8515 61.4817 20.9311 61.4726 21.0097C61.464 21.0882 61.4336 21.1625 61.3855 21.224C60.5586 22.2169 60.0373 23.5805 59.0574 27.9552C57.8762 33.233 55.3603 59.7874 54.8876 72.8005C54.8853 72.9083 54.8603 73.0147 54.8145 73.1119C54.7687 73.2091 54.7029 73.2948 54.6222 73.3633C54.541 73.4314 54.4466 73.4807 54.3455 73.5079C54.2448 73.5352 54.1391 73.5392 54.0361 73.52C51.5828 73.0519 49.9011 74.2824 49.6335 72.6529C49.3382 70.854 50.4396 53.6714 52.5005 45.591C52.1771 38.4245 53.3447 24.0482 55.6765 22.1378C56.9412 21.0765 59.6308 20.5692 61.0693 20.544Z" fill="white"/>
<path d="M62.4212 24.1094C62.4212 24.1094 59.419 32.8409 58.3625 40.1586C58.279 42.1481 59.1931 46.0012 59.933 47.6813C61.4795 44.1952 62.4453 42.1409 62.5982 40.1586C62.8449 37.1761 63.2519 24.1669 63.2519 24.1669L62.4212 24.1094Z" fill="#263238"/>
<path d="M68.7037 34.4958C68.6733 34.4948 68.6443 34.4834 68.6207 34.4635C68.5971 34.4436 68.5803 34.4162 68.5731 34.3856C68.5663 34.3549 68.569 34.3227 68.5812 34.2939C68.5935 34.2651 68.6143 34.2412 68.6411 34.226L69.2109 33.9166C69.743 33.6333 70.179 33.1889 70.4607 32.6425C70.7428 32.0962 70.8572 31.4739 70.7887 30.8586L70.1703 25.0591C70.1245 24.6268 69.9399 24.223 69.6455 23.9128C69.3511 23.6026 68.9641 23.404 68.5477 23.3492C68.1308 23.2943 67.7084 23.3863 67.3487 23.6104C66.9885 23.8344 66.7118 24.1775 66.5634 24.5842L64.5615 30.0347C64.346 30.6124 64.3056 31.2442 64.4454 31.8464C64.5846 32.4485 64.8981 32.9924 65.3436 33.4057L65.8231 33.8554C65.8485 33.8823 65.863 33.9185 65.863 33.9562C65.863 33.9938 65.8485 34.03 65.8231 34.0569C65.7972 34.0833 65.7623 34.098 65.7256 34.098C65.6893 34.098 65.6543 34.0833 65.6285 34.0569L65.149 33.6108C64.6636 33.1572 64.3233 32.5616 64.1723 31.9031C64.0217 31.2445 64.0675 30.554 64.3047 29.9232L66.3234 24.4835C66.4958 24.0187 66.8138 23.6273 67.2266 23.3719C67.6395 23.1166 68.123 23.012 68.6003 23.0751C69.0771 23.1381 69.5198 23.365 69.8573 23.7196C70.1948 24.0741 70.408 24.5356 70.462 25.0303L71.0808 30.8262C71.1538 31.5006 71.0268 32.1821 70.7161 32.7799C70.4058 33.3777 69.9267 33.8633 69.3433 34.172L68.7731 34.4778C68.7527 34.4916 68.7282 34.4979 68.7037 34.4958Z" fill="#263238"/>
<path d="M70.4271 26.3255C70.394 26.3258 70.3622 26.3135 70.3373 26.2909C70.3123 26.2684 70.296 26.2372 70.2919 26.2032C70.2112 25.7367 69.9821 25.3115 69.6419 24.9949C69.3012 24.6782 68.8684 24.4881 68.412 24.4547C67.6404 24.354 66.5911 24.6058 66.1706 25.6563C66.1647 25.6749 66.1547 25.6921 66.142 25.7067C66.1293 25.7213 66.1139 25.7331 66.0966 25.7413C66.0794 25.7495 66.0608 25.7539 66.0417 25.7544C66.0231 25.7549 66.0041 25.7513 65.9864 25.7439C65.9692 25.7365 65.9528 25.7255 65.9397 25.7115C65.9265 25.6975 65.9161 25.6808 65.9093 25.6625C65.9025 25.6442 65.8993 25.6247 65.8998 25.605C65.9007 25.5854 65.9052 25.5661 65.9134 25.5484C66.1484 25.078 66.5172 24.6936 66.9704 24.4475C67.4235 24.2014 67.9384 24.1054 68.4461 24.1726C68.9532 24.2398 69.4286 24.4667 69.8074 24.8229C70.1858 25.179 70.4498 25.6471 70.5627 26.1636C70.5677 26.2003 70.5587 26.2376 70.5369 26.2672C70.5156 26.2969 70.4838 26.3166 70.448 26.3219L70.4271 26.3255Z" fill="#263238"/>
<path d="M68.5577 23.3502C68.5395 23.3493 68.5218 23.3447 68.5055 23.3365C68.4892 23.3284 68.4747 23.3169 68.4629 23.3029C68.4506 23.2887 68.4415 23.2723 68.4356 23.2545C68.4302 23.2367 68.4279 23.2179 68.4293 23.1991C68.471 22.4976 68.3735 21.2204 67.7343 20.8894C67.7016 20.8718 67.6771 20.8414 67.6658 20.8049C67.6549 20.7685 67.6581 20.729 67.6753 20.6951C67.6921 20.6613 67.7216 20.6358 67.757 20.6244C67.7919 20.6129 67.83 20.6163 67.8627 20.634C68.7872 21.1269 68.7037 23.0049 68.6897 23.2171C68.6883 23.2525 68.6733 23.2858 68.6489 23.3105C68.6248 23.3352 68.5921 23.3494 68.5577 23.3502Z" fill="#263238"/>
<path d="M66.0386 33.9993C66.0037 34.2692 65.8403 34.467 65.6702 34.4418C65.5001 34.4167 65.3885 34.1864 65.4235 33.9202C65.4584 33.654 65.6181 33.4525 65.7882 33.4777C65.9588 33.5029 66.0699 33.7331 66.0386 33.9993Z" fill="#263238"/>
<path d="M57.9592 28.1675C57.7405 28.7395 57.2642 29.0849 56.9167 28.9374C56.5692 28.7899 56.4341 28.2179 56.6527 27.6315C56.8718 27.045 57.3477 26.714 57.6952 26.8616C58.0427 27.0091 58.1747 27.5955 57.9592 28.1675Z" fill="#263238"/>
<path d="M56.816 27.797H56.7883C56.7525 27.7892 56.7212 27.767 56.7008 27.7354C56.6808 27.7037 56.6735 27.6651 56.6803 27.6279C57.1394 25.2642 59.0366 21.5118 60.7078 20.4325C60.7232 20.419 60.7409 20.4089 60.7604 20.4032C60.7795 20.3975 60.7999 20.3961 60.8194 20.3992C60.8393 20.4022 60.8584 20.4097 60.8752 20.4211C60.892 20.4325 60.906 20.4474 60.9165 20.465C60.9273 20.4826 60.9341 20.5024 60.9364 20.5229C60.9391 20.5435 60.9373 20.5644 60.9314 20.5842C60.9255 20.604 60.9156 20.6222 60.9019 20.6377C60.8888 20.6531 60.8725 20.6653 60.8539 20.6736C59.238 21.7277 57.3998 25.3506 56.9516 27.6782C56.9457 27.7113 56.9294 27.7413 56.9044 27.7629C56.8799 27.7846 56.8486 27.7966 56.816 27.797Z" fill="#263238"/>
<path d="M58.3557 28.2862C58.1955 28.7791 57.7854 29.0849 57.438 28.9662C57.0905 28.8475 56.9344 28.3474 57.0905 27.8509C57.247 27.3544 57.6607 27.0522 58.0082 27.171C58.3557 27.2897 58.5154 27.7898 58.3557 28.2862Z" fill="white"/>
<path d="M58.3797 28.3366C58.1679 28.9446 57.775 29.3583 57.5078 29.2576C57.2402 29.1569 57.1948 28.5813 57.4103 27.9697C57.6258 27.3581 58.015 26.9479 58.2826 27.0486C58.5503 27.1494 58.5952 27.725 58.3797 28.3366Z" fill="#263238"/>
<path d="M69.0131 34.3951C68.9818 34.6613 68.8148 34.8592 68.6447 34.8376C68.4746 34.816 68.363 34.5786 68.3979 34.3123C68.4329 34.0461 68.5962 33.8482 68.7663 33.8698C68.9364 33.8914 69.0476 34.1253 69.0131 34.3951Z" fill="#263238"/>
<path d="M88.7157 18.8064C89.8761 22.091 86.7904 23.7424 84.7681 28.5813C82.7457 33.4201 87.6247 39.1908 95.1129 39.3167C102.601 39.4426 102.838 32.017 101.677 26.6889C100.516 21.3607 102.942 20.4937 102.427 16.4247C101.767 11.0786 94.3277 7.02757 91.374 11.9348C88.747 11.6794 87.7009 15.9354 88.7157 18.8064Z" fill="#263238"/>
<path d="M110.896 63.0218V62.6046C110.889 62.404 110.84 62.208 110.754 62.0286L109.496 59.4599L108.022 59.1722C106.98 60.3341 108.022 62.6514 108.022 62.6514V63.0218C108.022 63.3251 108.118 63.6204 108.295 63.8628C108.472 64.1051 108.72 64.281 109.002 64.3636L109.2 64.4251C109.404 64.4805 109.618 64.486 109.825 64.4412C110.031 64.3959 110.224 64.3011 110.389 64.1651C110.554 64.0285 110.686 63.8542 110.774 63.6557C110.862 63.4571 110.903 63.24 110.896 63.0218Z" fill="#FFC3BD"/>
<path d="M104.652 29.9771L105.194 33.913L105.764 37.8381C105.951 39.1512 106.149 40.4572 106.351 41.7667L106.952 45.6666L107.025 46.0515C107.049 46.1775 107.091 46.3394 107.122 46.4797L107.227 46.9222L107.348 47.3791C107.505 47.9835 107.696 48.6095 107.863 49.2283C108.21 50.4697 108.61 51.7249 109.002 52.9735C109.801 55.4667 110.635 57.9704 111.525 60.4314L106.611 62.2302L104.151 54.6247C103.745 53.3549 103.331 52.0847 102.938 50.7897C102.744 50.1385 102.55 49.4945 102.365 48.8218L102.222 48.3217L102.087 47.8C102.042 47.6202 101.993 47.4618 101.952 47.264L101.823 46.6739L101.097 42.7165C100.865 41.4118 100.623 40.107 100.371 38.8022L99.6267 34.888L98.8519 31.0025L104.652 29.9771Z" fill="#746BE9"/>
<path opacity="0.6" d="M104.652 29.9771L105.194 33.913L105.764 37.8381C105.951 39.1512 106.149 40.4572 106.351 41.7667L106.952 45.6666L107.025 46.0515C107.049 46.1775 107.091 46.3394 107.122 46.4797L107.227 46.9222L107.348 47.3791C107.505 47.9835 107.696 48.6095 107.863 49.2283C108.21 50.4697 108.61 51.7249 109.002 52.9735C109.801 55.4667 110.635 57.9704 111.525 60.4314L106.611 62.2302L104.151 54.6247C103.745 53.3549 103.331 52.0847 102.938 50.7897C102.744 50.1385 102.55 49.4945 102.365 48.8218L102.222 48.3217L102.087 47.8C102.042 47.6202 101.993 47.4618 101.952 47.264L101.823 46.6739L101.097 42.7165C100.865 41.4118 100.623 40.107 100.371 38.8022L99.6267 34.888L98.8519 31.0025L104.652 29.9771Z" fill="white"/>
<path d="M103.87 29.6749C104.033 31.5925 103.887 36.363 102.028 48.1886H89.1712C89.3758 43.0511 89.3898 39.7772 87.26 29.9736C87.2114 29.7531 87.2074 29.5247 87.2473 29.3025C87.2876 29.0802 87.3711 28.8689 87.4931 28.6815C87.6152 28.494 87.7735 28.3345 87.9572 28.2127C88.1414 28.0909 88.3474 28.0094 88.5628 27.9732C89.8181 27.7597 91.0837 27.6168 92.3539 27.5451C94.2996 27.401 96.253 27.401 98.1987 27.5451C99.7973 27.6962 101.531 27.9948 102.58 28.1927C102.922 28.2599 103.234 28.4412 103.466 28.7089C103.699 28.9766 103.841 29.316 103.87 29.6749Z" fill="#263238"/>
<path d="M92.9205 20.7311C93.2889 22.6774 93.6572 26.2463 92.3398 27.5451C92.3398 27.5451 93.987 29.6174 96.5097 29.6174C99.0329 29.6174 98.1882 27.5451 98.1882 27.5451C96.1033 27.0271 96.145 25.4153 96.5097 23.9043L92.9205 20.7311Z" fill="#FFC3BD"/>
<path opacity="0.2" d="M94.3835 22.0263L96.5065 23.9007C96.4162 24.2544 96.3559 24.6155 96.3255 24.98C95.523 24.8612 94.2651 24.1525 94.0913 23.2495C94.0115 22.8214 94.3136 22.2277 94.3835 22.0263Z" fill="black"/>
<path d="M90.7067 16.9104C91.1967 20.1267 91.3391 21.4974 93.0698 23.0012C95.6759 25.2642 99.3836 23.9366 99.8318 20.634C100.235 17.6623 99.3627 12.899 96.1867 11.9168C95.4872 11.6965 94.7446 11.6649 94.0297 11.8252C93.3152 11.9854 92.6515 12.3321 92.1026 12.8324C91.5537 13.3327 91.1372 13.9699 90.8927 14.6836C90.6487 15.3973 90.5847 16.1638 90.7067 16.9104Z" fill="#FFC3BD"/>
<path d="M91.2248 19.2273C93.004 17.4033 93.6155 14.8669 93.4486 13.8308C95.1615 14.3237 96.4195 13.6257 96.3433 13.3235C97.5522 14.5467 99.7451 15.5145 99.4983 14.1978C99.2516 12.881 97.6289 10.4526 94.2443 11.3196C90.8596 12.1866 89.5568 15.7843 89.6053 17.245C89.6538 18.7056 91.2248 19.2273 91.2248 19.2273Z" fill="#263238"/>
<path d="M95.1652 17.2738C95.1897 17.54 95.3425 17.7379 95.5127 17.7235C95.6828 17.7091 95.7939 17.4788 95.7699 17.2162C95.7454 16.9536 95.5893 16.7521 95.4224 16.7665C95.2554 16.7809 95.1652 17.0111 95.1652 17.2738Z" fill="#263238"/>
<path d="M98.0526 16.9895C98.0771 17.2522 98.2336 17.4537 98.4001 17.4357C98.567 17.4177 98.6818 17.1946 98.6573 16.932C98.6332 16.6693 98.4767 16.4679 98.3098 16.4823C98.1433 16.4967 98.0285 16.7269 98.0526 16.9895Z" fill="#263238"/>
<path d="M98.2404 16.5039L98.8347 16.2628C98.8347 16.2628 98.5634 16.7881 98.2404 16.5039Z" fill="#263238"/>
<path d="M97.212 17.5508C97.4928 18.1299 97.8493 18.6662 98.2717 19.1446C98.151 19.2529 98.0086 19.3328 97.8552 19.3788C97.7015 19.4248 97.5404 19.4356 97.3821 19.4108L97.212 17.5508Z" fill="#ED847E"/>
<path d="M96.0897 20.5692C96.2158 20.5781 96.3423 20.5781 96.4684 20.5692C96.488 20.5665 96.5056 20.556 96.5179 20.5399C96.5306 20.5238 96.536 20.5033 96.5342 20.4829C96.5338 20.4727 96.5315 20.4628 96.527 20.4537C96.5229 20.4447 96.5165 20.4367 96.5093 20.4302C96.5016 20.4238 96.4929 20.419 96.4834 20.4163C96.4739 20.4136 96.4639 20.413 96.4544 20.4145C96.1382 20.4524 95.8179 20.4129 95.519 20.2992C95.22 20.1855 94.9515 20.0007 94.7342 19.7597C94.721 19.7472 94.7033 19.7399 94.6852 19.7393C94.6675 19.7386 94.6493 19.7447 94.6353 19.7564C94.6212 19.7681 94.6112 19.7846 94.6081 19.803C94.6044 19.8214 94.6072 19.8405 94.6162 19.8569C94.804 20.0705 95.0309 20.2434 95.284 20.3657C95.5367 20.4879 95.8107 20.5571 96.0897 20.5692Z" fill="#263238"/>
<path d="M90.019 19.5259C90.2509 20.1082 90.6954 20.5724 91.2561 20.8175C91.9996 21.1341 92.4687 20.4577 92.3399 19.6914C92.2256 18.9718 91.6971 17.9753 90.9118 17.9897C90.7408 17.9984 90.5748 18.0504 90.4278 18.1414C90.2808 18.2323 90.1579 18.3593 90.0694 18.5111C89.9814 18.663 89.9306 18.835 89.9215 19.0119C89.9129 19.189 89.946 19.3655 90.019 19.5259Z" fill="#FFC3BD"/>
<path d="M94.1748 15.8922C94.2048 15.9032 94.237 15.9042 94.2678 15.8952C94.2982 15.8861 94.3255 15.8675 94.345 15.8419C94.7827 15.2842 95.676 15.3382 95.6828 15.3382C95.7222 15.3402 95.7612 15.3264 95.7907 15.2995C95.8207 15.2727 95.8393 15.235 95.8429 15.1943C95.8447 15.1739 95.8424 15.1533 95.8365 15.1337C95.8306 15.1142 95.8207 15.0961 95.8075 15.0806C95.7948 15.0651 95.7789 15.0525 95.7608 15.0436C95.7431 15.0347 95.7236 15.0297 95.7036 15.0288C95.6619 15.0288 94.6439 14.9641 94.1122 15.6476C94.0873 15.6798 94.076 15.7207 94.0796 15.7617C94.0837 15.8027 94.1027 15.8404 94.1331 15.8671L94.1748 15.8922Z" fill="#263238"/>
<path d="M99.0987 15.5649C99.1318 15.567 99.1644 15.5576 99.1917 15.5385C99.2189 15.5193 99.2393 15.4913 99.2497 15.4588C99.2601 15.4264 99.2597 15.3913 99.2488 15.3591C99.2379 15.3268 99.2166 15.2992 99.1889 15.2806C98.9948 15.1386 98.7702 15.0465 98.5348 15.0121C98.2989 14.9777 98.0589 15.0019 97.8339 15.0828C97.7972 15.0994 97.7686 15.1301 97.7536 15.1685C97.7386 15.2068 97.7386 15.2496 97.7541 15.2879C97.7613 15.3069 97.7727 15.3242 97.7867 15.3387C97.8008 15.3532 97.8176 15.3646 97.8362 15.3724C97.8548 15.3801 97.8743 15.3838 97.8942 15.3835C97.9142 15.3832 97.9337 15.3789 97.9518 15.3706C98.1306 15.309 98.3207 15.2922 98.5066 15.3216C98.6931 15.351 98.8696 15.4258 99.0224 15.5397C99.0451 15.555 99.0714 15.5637 99.0987 15.5649Z" fill="#263238"/>
<path d="M110.017 122.668L113.217 122.509L112.269 115.026L109.072 115.188L110.017 122.668Z" fill="#FFC3BD"/>
<g opacity="0.2">
<path d="M112.269 115.03L112.759 118.887L109.558 119.045L109.068 115.188L112.269 115.03Z" fill="black"/>
</g>
<path d="M102.028 48.1886C102.028 48.1886 106.055 73.4621 107.696 83.3164C109.405 93.5622 113.255 117.678 113.255 117.678L109.023 118.397C109.023 118.397 103.317 94.2566 101.031 84.2194C98.5498 73.2646 92.5381 58.5751 92.6007 48.2174L102.028 48.1886Z" fill="#746BE9"/>
<path opacity="0.2" d="M95.5612 55.9454C94.9565 55.0348 93.7924 53.758 92.8997 52.7074C93.709 59.147 96.0271 66.6195 98.1433 73.6566C98.7063 68.2958 98.3865 60.1653 95.5612 55.9454Z" fill="black"/>
<path d="M90.2726 122.16H93.4417L93.6536 114.562H90.4808L90.2726 122.16Z" fill="#FFC3BD"/>
<path d="M93.591 121.664H90.0294C89.9677 121.663 89.9078 121.686 89.8611 121.728C89.8144 121.769 89.784 121.827 89.7754 121.891L89.3689 124.805C89.3617 124.879 89.3694 124.954 89.3916 125.024C89.4143 125.095 89.4506 125.16 89.4987 125.215C89.5467 125.271 89.6057 125.314 89.671 125.345C89.7368 125.375 89.808 125.391 89.8797 125.391C91.1204 125.366 91.7179 125.29 93.2852 125.29C94.2478 125.29 96.2389 125.395 97.5699 125.395C98.9008 125.395 98.9598 124.035 98.4177 123.909C95.9331 123.358 94.9428 122.596 94.119 121.865C93.9711 121.737 93.7842 121.665 93.591 121.664Z" fill="#263238"/>
<g opacity="0.2">
<path d="M93.65 114.566L93.5424 118.483H90.3733L90.4808 114.566H93.65Z" fill="black"/>
</g>
<path d="M98.4105 48.1886C98.4105 48.1886 97.1249 73.7861 96.2561 83.7518C95.3493 94.12 94.2583 117.616 94.2583 117.616H89.97C89.97 117.616 89.2056 94.2102 89.5046 83.9856C89.8276 72.8328 87.2391 58.5464 88.987 48.1886H98.4105Z" fill="#746BE9"/>
<path d="M89.5985 117.775L94.6267 117.872L94.7029 114.699L89.5776 115.03L89.5985 117.775Z" fill="#263238"/>
<path d="M94.7795 122.25C95.0504 122.276 95.3212 122.205 95.5476 122.049C95.5984 122.001 95.6374 121.942 95.6614 121.876C95.685 121.809 95.6923 121.737 95.6827 121.667C95.6805 121.625 95.6678 121.584 95.646 121.548C95.6238 121.513 95.5938 121.483 95.558 121.462C95.1688 121.239 93.9036 121.909 93.7611 121.988C93.748 121.995 93.7375 122.007 93.7307 122.021C93.7235 122.035 93.7212 122.051 93.723 122.067C93.7248 122.083 93.7316 122.098 93.7425 122.109C93.7529 122.121 93.767 122.128 93.782 122.131C94.11 122.204 94.4443 122.244 94.7795 122.25ZM95.3457 121.57C95.3938 121.569 95.4414 121.579 95.485 121.599C95.4995 121.607 95.5117 121.619 95.5203 121.634C95.529 121.648 95.5335 121.665 95.5335 121.682C95.5412 121.727 95.5371 121.774 95.5217 121.818C95.5067 121.861 95.4809 121.9 95.4464 121.93C95.2554 122.11 94.7342 122.143 94.0324 122.02C94.442 121.793 94.8866 121.641 95.3457 121.57Z" fill="#746BE9"/>
<path d="M93.796 122.135H93.8273C94.2061 121.959 94.9533 121.25 94.8943 120.879C94.8943 120.79 94.8212 120.682 94.6126 120.66C94.5382 120.651 94.4624 120.659 94.3907 120.681C94.3186 120.704 94.2524 120.742 94.1957 120.793C93.7996 121.135 93.7266 122.02 93.723 122.056C93.7216 122.07 93.7239 122.084 93.7293 122.096C93.7348 122.109 93.7434 122.12 93.7543 122.128C93.7674 122.134 93.782 122.137 93.796 122.135ZM94.5536 120.804H94.5985C94.7342 120.804 94.7446 120.872 94.7446 120.894C94.7827 121.117 94.2755 121.671 93.8899 121.912C93.9194 121.54 94.0605 121.187 94.2928 120.901C94.3653 120.837 94.4583 120.803 94.5536 120.804Z" fill="#746BE9"/>
<path d="M113.179 121.664H109.617C109.589 121.662 109.56 121.667 109.533 121.677C109.507 121.689 109.483 121.706 109.463 121.727C109.444 121.749 109.429 121.775 109.42 121.803C109.411 121.831 109.409 121.861 109.412 121.891L109.593 124.805C109.614 124.963 109.688 125.108 109.803 125.216C109.917 125.323 110.064 125.385 110.218 125.391C111.455 125.366 112.039 125.29 113.603 125.29C114.569 125.29 116.581 125.395 117.912 125.395C119.243 125.395 119.038 124.035 118.461 123.909C115.865 123.358 114.732 122.596 113.749 121.865C113.583 121.739 113.384 121.669 113.179 121.664Z" fill="#263238"/>
<path d="M114.367 122.25C114.639 122.276 114.911 122.205 115.139 122.049C115.189 122.001 115.228 121.942 115.252 121.876C115.276 121.809 115.283 121.737 115.274 121.667C115.271 121.625 115.258 121.584 115.235 121.548C115.213 121.512 115.182 121.483 115.146 121.462C114.757 121.239 113.495 121.909 113.353 121.988C113.339 121.995 113.328 122.007 113.32 122.021C113.313 122.035 113.309 122.051 113.311 122.067C113.314 122.082 113.321 122.097 113.332 122.108C113.342 122.119 113.355 122.128 113.37 122.131C113.698 122.204 114.032 122.244 114.367 122.25ZM114.934 121.57C114.982 121.568 115.029 121.578 115.073 121.599C115.088 121.607 115.1 121.619 115.11 121.633C115.119 121.648 115.124 121.664 115.125 121.682C115.131 121.727 115.126 121.774 115.111 121.817C115.096 121.86 115.071 121.899 115.038 121.93C114.844 122.11 114.322 122.143 113.62 122.02C114.03 121.794 114.474 121.642 114.934 121.57Z" fill="#746BE9"/>
<path d="M113.387 122.135H113.419C113.794 121.959 114.541 121.25 114.482 120.879C114.482 120.79 114.409 120.682 114.201 120.66C114.126 120.651 114.052 120.659 113.98 120.681C113.909 120.704 113.843 120.742 113.787 120.793C113.387 121.135 113.314 122.02 113.311 122.056C113.311 122.069 113.313 122.083 113.319 122.096C113.324 122.108 113.332 122.119 113.342 122.128C113.357 122.134 113.372 122.137 113.387 122.135ZM114.141 120.804H114.187C114.322 120.804 114.333 120.872 114.336 120.894C114.371 121.117 113.863 121.671 113.478 121.912C113.509 121.54 113.65 121.187 113.881 120.901C113.954 120.838 114.046 120.803 114.141 120.804Z" fill="#746BE9"/>
<path d="M108.669 118.602L113.634 117.775L113.075 115.026L108.154 116.228L108.669 118.602Z" fill="#263238"/>
<path d="M95.3634 16.7881L95.9572 16.547C95.9572 16.547 95.69 17.0723 95.3634 16.7881Z" fill="#263238"/>
<path d="M88.9625 47.4079L88.6358 48.6023C88.5905 48.6923 88.6948 48.7894 88.8441 48.7894H102.09C102.209 48.7894 102.303 48.7282 102.31 48.6526L102.427 47.4618C102.427 47.3791 102.334 47.3071 102.209 47.3071H89.1743C89.1335 47.3035 89.0926 47.3109 89.0554 47.3286C89.0183 47.3462 88.9865 47.3736 88.9625 47.4079Z" fill="#263238"/>
<path d="M90.7589 48.9153H90.4114C90.342 48.9153 90.2898 48.8794 90.2935 48.8362L90.4568 47.2855C90.4568 47.2388 90.5225 47.2028 90.592 47.2028H90.9394C91.0093 47.2028 91.0615 47.2388 91.0578 47.2855L90.8909 48.8362C90.8877 48.8794 90.8283 48.9153 90.7589 48.9153Z" fill="#746BE9"/>
<path d="M101.111 48.9153H100.763C100.694 48.9153 100.638 48.8794 100.645 48.8362L100.808 47.2855C100.808 47.2388 100.874 47.2028 100.944 47.2028H101.292C101.361 47.2028 101.413 47.2388 101.41 47.2855L101.246 48.8362C101.239 48.8794 101.18 48.9153 101.111 48.9153Z" fill="#746BE9"/>
<path d="M95.954 48.9153H95.6065C95.5371 48.9153 95.4849 48.8794 95.4881 48.8362L95.6514 47.2855C95.6514 47.2388 95.7177 47.2028 95.7871 47.2028H96.1346C96.204 47.2028 96.2561 47.2388 96.2493 47.2855L96.086 48.8362C96.086 48.8794 96.0234 48.9153 95.954 48.9153Z" fill="#746BE9"/>
<path d="M91.7841 27.4372C89.765 27.6279 86.6793 27.2321 86.7732 30.4376C86.8671 33.6432 86.266 42.1337 86.4257 46.1092C86.5854 50.0846 85.5847 75.8258 87.2042 83.2877C87.4891 84.6008 97.9487 84.4315 99.2134 84.3055V83.1219C99.2134 83.1219 106.813 82.0643 108.693 82.4024C108.529 77.9199 104.321 55.2762 104.158 48.9153C103.995 42.5546 104.686 31.6249 104.644 29.8908C104.603 28.1568 101.274 27.394 99.2343 27.4372C99.6861 29.0022 98.6886 31.9415 97.0936 35.219C93.1705 31.2615 92.0132 29.2972 91.7841 27.4372Z" fill="#746BE9"/>
<path opacity="0.7" d="M91.7841 27.4372C89.765 27.6279 86.6793 27.2321 86.7732 30.4376C86.8671 33.6432 86.266 42.1337 86.4257 46.1092C86.5854 50.0846 85.5847 75.8258 87.2042 83.2877C87.4891 84.6008 97.9487 84.4315 99.2134 84.3055V83.1219C99.2134 83.1219 106.813 82.0643 108.693 82.4024C108.529 77.9199 104.321 55.2762 104.158 48.9153C103.995 42.5546 104.686 31.6249 104.644 29.8908C104.603 28.1568 101.274 27.394 99.2343 27.4372C99.6861 29.0022 98.6886 31.9415 97.0936 35.219C93.1705 31.2615 92.0132 29.2972 91.7841 27.4372Z" fill="white"/>
<path opacity="0.2" d="M87.9409 35.0391L86.648 35.9853C86.5473 38.7555 86.4117 41.8603 86.3981 44.2599C87.6002 41.5077 88.278 37.5358 87.9409 35.0391Z" fill="#746BE9"/>
<path d="M92.0586 32.1645C91.9928 32.2655 91.922 32.3628 91.8467 32.456L91.7737 32.5423L91.7356 32.5855L91.6657 32.661L91.5269 32.8157L91.2488 33.1359C91.0615 33.3482 90.8805 33.5676 90.6999 33.7907C90.3384 34.2368 89.9909 34.6913 89.6575 35.1542C88.9756 36.0786 88.3415 37.0393 87.7567 38.0324C86.6076 39.8655 85.7775 41.8929 85.3034 44.0225C85.2159 44.4975 85.1614 44.9784 85.1401 45.4616C85.1619 45.7019 85.229 45.9354 85.3383 46.1487C85.7793 47.1158 86.31 48.0363 86.9225 48.8973C87.5657 49.8471 88.2952 50.7716 89.0423 51.6856C89.4175 52.1461 89.8067 52.5921 90.1996 53.0345C90.592 53.4774 91.0021 53.9304 91.3845 54.3224L87.6383 58.0712C87.1833 57.5568 86.78 57.0892 86.3599 56.5964L85.1333 55.1104C84.3199 54.1138 83.5383 53.0778 82.7666 51.9914C81.9292 50.8436 81.2052 49.6119 80.6055 48.3145C80.4299 47.9126 80.2802 47.4991 80.1568 47.0769C80.0847 46.8255 80.028 46.5695 79.9867 46.3106C79.9599 46.1619 79.9414 46.0117 79.9314 45.8609C79.9173 45.703 79.9114 45.5445 79.9137 45.386C79.9218 44.6134 79.9858 43.8426 80.1051 43.0799C80.3455 41.6391 80.7348 40.2291 81.2655 38.8742C81.765 37.5914 82.3457 36.3439 83.003 35.1398C83.6422 33.9526 84.3444 32.8193 85.0707 31.7112C85.439 31.1572 85.8142 30.6139 86.2071 30.0779L86.8009 29.2756L87.1103 28.8727L87.2668 28.6712L87.3466 28.5741L87.3815 28.5273L87.3326 28.5848C87.2699 28.6676 87.211 28.7504 87.1556 28.8367L92.0586 32.1645Z" fill="#746BE9"/>
<path opacity="0.7" d="M92.0586 32.1645C91.9928 32.2655 91.922 32.3628 91.8467 32.456L91.7737 32.5423L91.7356 32.5855L91.6657 32.661L91.5269 32.8157L91.2488 33.1359C91.0615 33.3482 90.8805 33.5676 90.6999 33.7907C90.3384 34.2368 89.9909 34.6913 89.6575 35.1542C88.9756 36.0786 88.3415 37.0393 87.7567 38.0324C86.6076 39.8655 85.7775 41.8929 85.3034 44.0225C85.2159 44.4975 85.1614 44.9784 85.1401 45.4616C85.1619 45.7019 85.229 45.9354 85.3383 46.1487C85.7793 47.1158 86.31 48.0363 86.9225 48.8973C87.5657 49.8471 88.2952 50.7716 89.0423 51.6856C89.4175 52.1461 89.8067 52.5921 90.1996 53.0345C90.592 53.4774 91.0021 53.9304 91.3845 54.3224L87.6383 58.0712C87.1833 57.5568 86.78 57.0892 86.3599 56.5964L85.1333 55.1104C84.3199 54.1138 83.5383 53.0778 82.7666 51.9914C81.9292 50.8436 81.2052 49.6119 80.6055 48.3145C80.4299 47.9126 80.2802 47.4991 80.1568 47.0769C80.0847 46.8255 80.028 46.5695 79.9867 46.3106C79.9599 46.1619 79.9414 46.0117 79.9314 45.8609C79.9173 45.703 79.9114 45.5445 79.9137 45.386C79.9218 44.6134 79.9858 43.8426 80.1051 43.0799C80.3455 41.6391 80.7348 40.2291 81.2655 38.8742C81.765 37.5914 82.3457 36.3439 83.003 35.1398C83.6422 33.9526 84.3444 32.8193 85.0707 31.7112C85.439 31.1572 85.8142 30.6139 86.2071 30.0779L86.8009 29.2756L87.1103 28.8727L87.2668 28.6712L87.3466 28.5741L87.3815 28.5273L87.3326 28.5848C87.2699 28.6676 87.211 28.7504 87.1556 28.8367L92.0586 32.1645Z" fill="white"/>
<path opacity="0.3" d="M97.0972 35.219C97.4619 42.8964 99.4425 69.6704 99.2171 83.1219L99.8213 83.0393C99.8213 83.0393 98.8832 62.3526 98.4595 53.301C98.0353 44.2491 97.0972 35.219 97.0972 35.219Z" fill="#746BE9"/>
<path opacity="0.3" d="M91.0928 54.3874L87.3815 58.5464C87.3815 59.9421 86.4398 62.7341 88.9348 63.7484C91.4299 64.7632 91.4956 57.4021 91.0928 54.3874Z" fill="#746BE9"/>
<path opacity="0.3" d="M103.192 54.2579L104.825 58.496C104.874 59.935 105.35 62.8132 104.384 63.9106C103.418 65.0076 103.137 57.3769 103.192 54.2579Z" fill="#746BE9"/>
<path d="M99.1368 37.892L103.213 37.8633C103.254 37.8651 103.294 37.8578 103.332 37.8419C103.369 37.8259 103.403 37.8017 103.431 37.771C103.459 37.7402 103.479 37.7035 103.493 37.6636C103.505 37.6236 103.509 37.5813 103.505 37.5395L103.279 35.5391C103.265 35.4526 103.224 35.3734 103.16 35.3151C103.097 35.2568 103.016 35.2228 102.931 35.219L98.8519 35.2442C98.8115 35.2429 98.7711 35.2506 98.7339 35.2668C98.6967 35.2829 98.6632 35.3071 98.6355 35.3377C98.6078 35.3684 98.587 35.4048 98.5738 35.4445C98.5606 35.4841 98.5561 35.5262 98.5602 35.568L98.7861 37.5718C98.8002 37.6587 98.8428 37.738 98.9068 37.7963C98.9707 37.8545 99.0519 37.8884 99.1368 37.892Z" fill="white" stroke="#746BE9" stroke-width="0.5" stroke-miterlimit="10"/>
</g>
</g>
<defs>
<clipPath id="clip0_2_220">
<rect width="137" height="130" fill="white"/>
</clipPath>
</defs>
</svg>
